<?xml version="1.0" encoding="UTF-8" standalone="no"?>
<!DOCTYPE svg PUBLIC "-//W3C//DTD SVG 1.1//EN" "http://www.w3.org/Graphics/SVG/1.1/DTD/svg11.dtd">
<svg xmlns="http://www.w3.org/2000/svg" version="1.1" viewBox="0.00 0.00 808.00 666.00">
<path fill="#ffffff" d="
  M 270.69 156.46
  C 223.45 194.68 193.63 248.82 187.27 309.38
  Q 187.10 310.98 185.48 310.98
  L 99.04 310.90
  A 0.99 0.98 -87.8 0 1 98.06 309.84
  C 113.34 116.98 294.77 -18.14 484.53 24.94
  C 619.31 55.53 718.89 172.38 729.31 310.03
  A 0.86 0.86 0.0 0 1 728.45 310.95
  L 641.32 310.97
  A 1.07 1.07 0.0 0 1 640.26 310.01
  C 633.93 248.54 602.64 192.07 554.28 154.21
  C 470.89 88.94 353.02 89.85 270.69 156.46
  Z
  M 435.6216 46.9886
  A 5.90 5.90 0.0 0 0 430.0493 40.7781
  L 429.7098 40.7598
  A 5.90 5.90 0.0 0 0 423.4994 46.3321
  L 421.2584 87.7114
  A 5.90 5.90 0.0 0 0 426.8307 93.9219
  L 427.1702 93.9402
  A 5.90 5.90 0.0 0 0 433.3806 88.3679
  L 435.6216 46.9886
  Z
  M 389.25 53.31
  C 392.89 52.57 399.49 52.90 400.52 47.93
  C 401.49 43.21 397.90 41.08 393.75 41.39
  Q 383.08 42.18 369.26 43.71
  Q 362.77 44.43 363.00 50.19
  C 363.25 56.30 371.75 54.87 375.51 54.69
  Q 376.26 54.66 376.34 55.41
  Q 378.30 72.65 380.18 89.50
  C 381.13 97.95 393.34 96.55 392.29 86.99
  Q 389.77 64.10 388.67 54.11
  A 0.73 0.73 0.0 0 1 389.25 53.31
  Z
  M 471.61 78.67
  Q 474.27 79.30 480.72 80.72
  C 488.82 82.49 492.20 71.96 482.32 69.51
  Q 478.19 68.49 474.20 67.50
  A 0.99 0.98 13.3 0 1 473.47 66.32
  L 475.03 59.58
  A 0.77 0.76 11.7 0 1 475.92 59.00
  C 480.09 59.81 490.13 63.66 493.16 59.09
  Q 494.49 57.09 493.92 54.77
  C 492.99 50.97 489.62 50.50 486.23 49.66
  Q 479.78 48.05 473.26 46.71
  Q 465.57 45.13 463.85 52.75
  Q 457.75 79.77 455.78 89.24
  C 453.63 99.60 465.91 101.60 467.82 91.50
  Q 469.00 85.28 470.72 79.19
  Q 470.91 78.50 471.61 78.67
  Z
  M 327.54 88.18
  Q 337.02 94.34 346.44 100.57
  Q 349.14 102.36 352.23 101.11
  C 357.82 98.85 356.63 92.04 352.01 89.39
  Q 345.86 85.85 339.65 82.25
  A 0.48 0.48 0.0 0 1 339.55 81.49
  C 341.69 79.37 344.14 77.57 345.25 74.83
  Q 348.24 67.47 344.17 60.82
  C 336.67 48.58 320.66 55.06 310.56 58.82
  C 306.23 60.43 306.29 64.27 307.52 68.28
  Q 315.76 95.05 319.48 105.26
  C 322.29 112.97 333.84 108.81 330.69 99.98
  Q 328.35 93.41 326.93 88.63
  A 0.41 0.40 8.3 0 1 327.54 88.18
  Z
  M 529.5038 69.9796
  A 6.10 6.10 0.0 0 0 526.1469 62.0328
  L 525.9060 61.9350
  A 6.10 6.10 0.0 0 0 517.9592 65.2918
  L 502.4362 103.5204
  A 6.10 6.10 0.0 0 0 505.7931 111.4672
  L 506.0340 111.5650
  A 6.10 6.10 0.0 0 0 513.9808 108.2082
  L 529.5038 69.9796
  Z
  M 272.59 97.98
  L 269.11 91.90
  A 0.84 0.84 0.0 0 1 269.44 90.74
  Q 276.90 86.80 278.95 85.21
  C 282.57 82.41 283.47 77.30 279.16 75.25
  C 274.31 72.94 262.92 81.15 258.12 84.16
  C 252.86 87.46 254.44 91.58 257.14 96.27
  Q 265.45 110.75 273.79 125.27
  C 278.19 132.93 281.08 130.91 288.01 127.15
  Q 296.27 122.67 299.29 120.56
  C 302.57 118.27 304.34 113.36 300.72 110.87
  C 296.18 107.75 288.14 113.85 284.14 116.03
  A 1.04 1.03 -29.1 0 1 282.75 115.64
  L 279.12 109.36
  A 0.66 0.65 -33.4 0 1 279.30 108.51
  C 282.75 105.98 292.93 102.18 290.84 96.66
  C 287.76 88.57 277.94 95.87 273.65 98.27
  A 0.78 0.78 0.0 0 1 272.59 97.98
  Z
  M 548.33 118.04
  L 551.68 112.47
  A 1.30 1.29 32.5 0 1 553.51 112.07
  Q 557.47 114.74 561.54 116.87
  C 569.19 120.88 573.73 111.26 567.22 106.98
  Q 563.38 104.46 559.32 101.91
  A 0.71 0.71 0.0 0 1 559.08 100.96
  L 562.58 94.85
  A 0.76 0.75 31.8 0 1 563.66 94.60
  C 568.02 97.59 574.97 103.04 579.17 100.84
  C 583.18 98.74 583.04 93.60 579.55 90.93
  Q 575.85 88.12 569.43 84.40
  C 564.90 81.77 561.51 79.24 557.50 81.47
  Q 555.32 82.68 552.25 87.70
  Q 543.41 102.12 534.60 116.55
  Q 531.27 122.01 536.04 125.42
  Q 541.45 129.27 551.97 135.25
  Q 555.88 137.48 558.88 134.96
  C 566.37 128.69 553.05 122.00 548.86 119.89
  A 1.31 1.31 0.0 0 1 548.33 118.04
  Z
  M 242.57 146.67
  C 229.05 152.55 210.26 127.61 229.87 118.31
  Q 233.65 116.52 234.52 115.34
  C 236.39 112.80 235.87 107.35 231.76 106.86
  C 221.03 105.58 211.64 115.48 209.23 124.59
  Q 207.39 131.52 209.39 138.35
  C 216.38 162.30 247.82 169.52 260.13 145.29
  C 262.95 139.75 260.67 130.77 252.60 134.75
  A 1.64 1.61 -87.8 0 0 251.90 135.41
  C 249.06 140.39 247.12 144.69 242.57 146.67
  Z
  M 603.08 116.56
  L 575.86 144.07
  A 6.93 6.93 0.0 0 0 575.91 153.87
  L 585.29 163.15
  A 24.48 24.41 44.7 0 0 619.86 163.01
  L 622.49 160.36
  A 24.48 24.41 44.7 0 0 622.26 125.79
  L 612.88 116.51
  A 6.93 6.93 0.0 0 0 603.08 116.56
  Z"
/>
<path fill="#ffffff" d="
  M 320.48 68.19
  A 0.92 0.92 0.0 0 1 321.08 67.04
  L 325.57 65.61
  A 6.73 5.81 -17.6 0 1 333.74 69.11
  L 333.90 69.63
  A 6.73 5.81 -17.6 0 1 329.24 77.20
  L 324.75 78.63
  A 0.92 0.92 0.0 0 1 323.60 78.03
  L 320.48 68.19
  Z"
/>
<path fill="#ffffff" d="
  M 607.29 130.03
  A 1.82 1.82 0.0 0 1 609.86 130.03
  L 613.39 133.55
  A 12.54 12.01 -45.1 0 1 613.05 150.91
  L 610.24 153.73
  A 12.54 12.01 -45.1 0 1 592.88 154.14
  L 589.35 150.61
  A 1.82 1.82 0.0 0 1 589.34 148.04
  L 607.29 130.03
  Z"
/>
<rect fill="#ffffff" x="211.05" y="249.64" width="401.92" height="18.08" rx="1.39"/>
<path fill="#ffffff" d="
  M 315.93 280.25
  L 322.70 280.53
  A 0.31 0.31 0.0 0 1 322.88 281.09
  L 317.52 285.24
  A 0.31 0.31 0.0 0 0 317.41 285.57
  L 319.24 292.10
  A 0.31 0.31 0.0 0 1 318.76 292.44
  L 313.16 288.63
  A 0.31 0.31 0.0 0 0 312.81 288.63
  L 307.17 292.37
  A 0.31 0.31 0.0 0 1 306.70 292.03
  L 308.59 285.52
  A 0.31 0.31 0.0 0 0 308.48 285.19
  L 303.17 280.98
  A 0.31 0.31 0.0 0 1 303.36 280.43
  L 310.13 280.22
  A 0.31 0.31 0.0 0 0 310.41 280.02
  L 312.77 273.66
  A 0.31 0.31 0.0 0 1 313.35 273.67
  L 315.65 280.04
  A 0.31 0.31 0.0 0 0 315.93 280.25
  Z"
/>
<path fill="#ffffff" d="
  M 337.71 284.54
  L 344.16 284.76
  A 0.41 0.41 0.0 0 1 344.40 285.50
  L 339.26 289.42
  A 0.41 0.41 0.0 0 0 339.12 289.86
  L 340.90 296.07
  A 0.41 0.41 0.0 0 1 340.27 296.52
  L 334.96 292.85
  A 0.41 0.41 0.0 0 0 334.49 292.85
  L 329.14 296.46
  A 0.41 0.41 0.0 0 1 328.52 296.00
  L 330.36 289.81
  A 0.41 0.41 0.0 0 0 330.22 289.37
  L 325.13 285.40
  A 0.41 0.41 0.0 0 1 325.38 284.66
  L 331.83 284.51
  A 0.41 0.41 0.0 0 0 332.21 284.24
  L 334.42 278.17
  A 0.41 0.41 0.0 0 1 335.19 278.17
  L 337.33 284.26
  A 0.41 0.41 0.0 0 0 337.71 284.54
  Z"
/>
<path fill="#ffffff" d="
  M 563.63 299.89
  Q 563.65 300.61 564.37 300.61
  L 588.75 300.58
  A 0.91 0.91 0.0 0 1 589.67 301.50
  L 589.51 314.85
  A 0.96 0.96 0.0 0 1 588.55 315.80
  L 564.99 315.82
  Q 563.32 315.82 563.28 317.49
  Q 563.03 330.40 563.25 343.93
  C 563.36 350.30 565.20 355.75 572.19 356.32
  Q 580.88 357.03 588.70 353.16
  Q 589.29 352.87 589.28 353.53
  L 589.23 367.71
  A 1.79 1.77 -10.6 0 1 588.08 369.37
  C 566.75 377.44 541.75 373.80 541.48 345.58
  Q 541.35 331.48 541.49 317.55
  Q 541.50 315.95 539.90 315.95
  L 531.92 315.92
  Q 531.42 315.92 531.24 315.46
  Q 530.11 312.52 531.74 310.69
  Q 545.97 294.70 560.50 278.70
  A 1.87 1.86 60.1 0 1 563.70 279.57
  C 563.89 280.42 564.08 282.16 564.01 283.15
  Q 563.38 291.66 563.63 299.89
  Z"
/>
<path fill="#ffffff" d="
  M 294.36 284.65
  L 301.05 284.77
  A 0.34 0.34 0.0 0 1 301.25 285.38
  L 295.89 289.39
  A 0.34 0.34 0.0 0 0 295.77 289.77
  L 297.73 296.17
  A 0.34 0.34 0.0 0 1 297.21 296.54
  L 291.74 292.69
  A 0.34 0.34 0.0 0 0 291.35 292.69
  L 285.86 296.52
  A 0.34 0.34 0.0 0 1 285.34 296.14
  L 287.32 289.75
  A 0.34 0.34 0.0 0 0 287.20 289.38
  L 281.86 285.35
  A 0.34 0.34 0.0 0 1 282.06 284.74
  L 288.75 284.64
  A 0.34 0.34 0.0 0 0 289.07 284.41
  L 291.25 278.09
  A 0.34 0.34 0.0 0 1 291.89 278.09
  L 294.05 284.42
  A 0.34 0.34 0.0 0 0 294.36 284.65
  Z"
/>
<rect fill="#ffffff" x="229.17" y="279.42" width="24.64" height="91.58" rx="1.23"/>
<path fill="#ffffff" d="
  M 428.31 333.84
  Q 429.49 334.09 429.48 332.88
  L 429.25 280.48
  A 0.77 0.77 0.0 0 1 430.02 279.71
  L 447.90 279.78
  A 1.11 1.11 0.0 0 1 449.00 280.89
  L 449.01 370.27
  A 1.42 1.42 0.0 0 1 447.62 371.69
  Q 441.26 371.85 435.75 371.68
  C 433.36 371.61 432.48 371.71 430.94 369.63
  Q 410.81 342.39 390.30 314.71
  A 0.87 0.86 -63.4 0 0 388.74 315.23
  L 389.11 370.29
  Q 389.12 371.46 387.96 371.45
  L 371.06 371.41
  A 1.10 1.09 0.5 0 1 369.97 370.31
  L 370.02 280.16
  Q 370.02 279.59 370.59 279.60
  L 385.51 279.78
  A 3.79 3.75 71.6 0 1 388.47 281.28
  Q 407.55 306.47 426.75 332.26
  Q 427.84 333.74 428.31 333.84
  Z"
/>
<path fill="#ffffff" d="
  M 352.78 300.59
  L 359.21 300.68
  A 0.48 0.48 0.0 0 1 359.49 301.55
  L 354.30 305.35
  A 0.48 0.48 0.0 0 0 354.13 305.88
  L 356.02 312.03
  A 0.48 0.48 0.0 0 1 355.28 312.56
  L 350.06 308.80
  A 0.48 0.48 0.0 0 0 349.51 308.80
  L 344.25 312.50
  A 0.48 0.48 0.0 0 1 343.51 311.96
  L 345.48 305.84
  A 0.48 0.48 0.0 0 0 345.31 305.30
  L 340.16 301.45
  A 0.48 0.48 0.0 0 1 340.45 300.58
  L 346.88 300.56
  A 0.48 0.48 0.0 0 0 347.33 300.23
  L 349.41 294.14
  A 0.48 0.48 0.0 0 1 350.32 294.15
  L 352.33 300.26
  A 0.48 0.48 0.0 0 0 352.78 300.59
  Z"
/>
<path fill="#ffffff" d="
  M 272.68 305.08
  L 267.77 301.96
  A 0.49 0.49 0.0 0 1 268.02 301.05
  L 274.40 300.91
  A 0.84 0.83 -80.0 0 0 275.16 300.37
  L 277.29 294.76
  A 0.37 0.37 0.0 0 1 277.99 294.77
  L 279.73 299.96
  A 1.51 1.50 80.1 0 0 281.20 301.00
  L 287.24 300.88
  A 0.47 0.47 0.0 0 1 287.51 301.75
  L 283.01 304.68
  A 1.99 1.99 0.0 0 0 282.17 306.87
  L 283.56 312.05
  Q 283.79 312.89 283.06 312.41
  L 278.34 309.34
  A 1.79 1.78 41.8 0 0 276.23 309.45
  L 270.96 313.80
  Q 270.59 314.11 270.73 313.65
  L 273.03 306.04
  A 0.85 0.84 25.2 0 0 272.68 305.08
  Z"
/>
<path fill="#ffffff" d="
  M 481.00 339.62
  A 1.06 1.06 0.0 0 0 479.95 340.78
  Q 481.32 355.66 495.75 358.98
  C 508.69 361.96 518.17 356.76 528.47 350.56
  A 0.56 0.56 0.0 0 1 529.32 351.05
  L 529.14 362.40
  A 2.00 1.99 74.9 0 1 528.18 364.07
  Q 513.88 372.80 497.72 372.41
  C 486.99 372.14 476.60 369.59 468.57 362.68
  C 455.94 351.82 454.25 331.14 462.56 317.09
  C 474.18 297.43 502.73 293.72 519.48 308.93
  C 527.53 316.25 530.79 328.19 530.56 338.75
  A 1.04 1.03 0.6 0 1 529.52 339.76
  L 481.00 339.62
  Z
  M 480.94 328.37
  L 510.66 328.31
  A 0.70 0.70 0.0 0 0 511.36 327.61
  L 511.36 327.43
  A 15.24 14.70 -0.1 0 0 496.10 312.76
  L 495.46 312.76
  A 15.24 14.70 -0.1 0 0 480.24 327.49
  L 480.24 327.67
  A 0.70 0.70 0.0 0 0 480.94 328.37
  Z"
/>
<path fill="#ffffff" d="
  M 273.34 322.33
  L 280.20 322.42
  A 0.35 0.35 0.0 0 1 280.40 323.06
  L 274.88 327.12
  A 0.35 0.35 0.0 0 0 274.75 327.51
  L 276.79 334.05
  A 0.35 0.35 0.0 0 1 276.25 334.44
  L 270.68 330.45
  A 0.35 0.35 0.0 0 0 270.27 330.44
  L 264.67 334.40
  A 0.35 0.35 0.0 0 1 264.14 334.01
  L 266.22 327.48
  A 0.35 0.35 0.0 0 0 266.09 327.09
  L 260.60 322.99
  A 0.35 0.35 0.0 0 1 260.81 322.36
  L 267.66 322.31
  A 0.35 0.35 0.0 0 0 267.99 322.08
  L 270.19 315.59
  A 0.35 0.35 0.0 0 1 270.86 315.59
  L 273.02 322.09
  A 0.35 0.35 0.0 0 0 273.34 322.33
  Z"
/>
<path fill="#ffffff" d="
  M 349.70 335.32
  Q 349.44 334.97 349.27 334.52
  Q 349.17 334.26 349.25 333.93
  Q 349.94 330.88 350.70 328.06
  A 1.25 1.24 24.5 0 0 350.18 326.69
  L 345.25 323.48
  A 0.54 0.54 0.0 0 1 345.55 322.48
  L 351.64 322.56
  A 1.72 1.71 8.6 0 0 353.30 321.34
  L 355.01 315.75
  Q 355.39 314.49 355.79 315.74
  L 357.51 321.21
  A 2.22 2.21 80.0 0 0 359.71 322.76
  L 364.51 322.59
  A 0.60 0.60 0.0 0 1 364.90 323.66
  L 360.71 326.91
  A 1.63 1.63 0.0 0 0 360.14 328.63
  L 361.60 333.96
  A 0.44 0.44 0.0 0 1 360.92 334.44
  L 355.97 330.90
  A 0.92 0.92 0.0 0 0 354.88 330.92
  L 350.20 334.46
  A 0.63 0.62 -30.5 0 0 350.00 335.21
  L 353.16 342.45
  A 0.86 0.85 -11.3 0 0 353.93 342.96
  L 359.87 343.08
  A 0.51 0.50 -63.0 0 1 360.16 343.99
  L 355.83 347.29
  A 1.91 1.91 0.0 0 0 355.15 349.31
  L 356.53 354.22
  A 0.49 0.49 0.0 0 1 355.77 354.75
  L 350.97 351.27
  A 0.85 0.83 -45.6 0 0 349.97 351.29
  L 344.94 355.16
  A 0.40 0.39 -12.4 0 1 344.31 354.76
  L 345.89 348.13
  Q 346.01 347.60 345.57 347.30
  L 340.99 344.18
  A 0.63 0.62 -28.0 0 1 341.34 343.04
  L 347.25 342.96
  A 1.47 1.46 -84.1 0 0 348.67 341.80
  L 349.88 336.18
  Q 349.98 335.71 349.70 335.32
  Z"
/>
<rect fill="#ffffff" x="97.31" y="326.94" width="88.82" height="11.94" rx="1.16"/>
<rect fill="#ffffff" x="641.45" y="326.91" width="88.84" height="11.94" rx="1.60"/>
<path fill="#ffffff" d="
  M 324.10 339.98
  L 330.17 340.06
  A 0.58 0.58 0.0 0 1 330.51 341.11
  L 325.62 344.72
  A 0.58 0.58 0.0 0 0 325.41 345.36
  L 327.20 351.16
  A 0.58 0.58 0.0 0 1 326.31 351.81
  L 321.37 348.27
  A 0.58 0.58 0.0 0 0 320.70 348.27
  L 315.73 351.77
  A 0.58 0.58 0.0 0 1 314.84 351.12
  L 316.68 345.33
  A 0.58 0.58 0.0 0 0 316.47 344.69
  L 311.61 341.04
  A 0.58 0.58 0.0 0 1 311.95 340.00
  L 318.03 339.96
  A 0.58 0.58 0.0 0 0 318.57 339.56
  L 320.53 333.81
  A 0.58 0.58 0.0 0 1 321.63 333.81
  L 323.55 339.58
  A 0.58 0.58 0.0 0 0 324.10 339.98
  Z"
/>
<path fill="#ffffff" d="
  M 278.66 342.99
  L 285.40 343.19
  A 0.34 0.34 0.0 0 1 285.59 343.80
  L 280.23 347.89
  A 0.34 0.34 0.0 0 0 280.11 348.25
  L 282.00 354.73
  A 0.34 0.34 0.0 0 1 281.48 355.10
  L 275.94 351.26
  A 0.34 0.34 0.0 0 0 275.55 351.26
  L 269.98 355.06
  A 0.34 0.34 0.0 0 1 269.46 354.68
  L 271.40 348.22
  A 0.34 0.34 0.0 0 0 271.28 347.86
  L 265.95 343.73
  A 0.34 0.34 0.0 0 1 266.15 343.12
  L 272.89 342.97
  A 0.34 0.34 0.0 0 0 273.20 342.74
  L 275.48 336.39
  A 0.34 0.34 0.0 0 1 276.12 336.40
  L 278.35 342.76
  A 0.34 0.34 0.0 0 0 278.66 342.99
  Z"
/>
<path fill="#ffffff" d="
  M 294.80 358.05
  L 301.32 358.29
  A 0.34 0.34 0.0 0 1 301.51 358.89
  L 296.36 362.89
  A 0.34 0.34 0.0 0 0 296.24 363.26
  L 298.04 369.53
  A 0.34 0.34 0.0 0 1 297.52 369.90
  L 292.12 366.24
  A 0.34 0.34 0.0 0 0 291.74 366.24
  L 286.33 369.88
  A 0.34 0.34 0.0 0 1 285.81 369.51
  L 287.63 363.24
  A 0.34 0.34 0.0 0 0 287.51 362.88
  L 282.38 358.86
  A 0.34 0.34 0.0 0 1 282.57 358.25
  L 289.09 358.04
  A 0.34 0.34 0.0 0 0 289.40 357.82
  L 291.64 351.69
  A 0.34 0.34 0.0 0 1 292.28 351.69
  L 294.49 357.83
  A 0.34 0.34 0.0 0 0 294.80 358.05
  Z"
/>
<path fill="#ffffff" d="
  M 337.19 358.31
  L 344.14 358.46
  A 0.30 0.30 0.0 0 1 344.32 359.00
  L 338.77 363.18
  A 0.30 0.30 0.0 0 0 338.66 363.51
  L 340.67 370.16
  A 0.30 0.30 0.0 0 1 340.21 370.50
  L 334.51 366.51
  A 0.30 0.30 0.0 0 0 334.17 366.51
  L 328.46 370.48
  A 0.30 0.30 0.0 0 1 328.00 370.14
  L 330.04 363.49
  A 0.30 0.30 0.0 0 0 329.93 363.17
  L 324.39 358.96
  A 0.30 0.30 0.0 0 1 324.57 358.43
  L 331.52 358.30
  A 0.30 0.30 0.0 0 0 331.80 358.10
  L 334.08 351.54
  A 0.30 0.30 0.0 0 1 334.65 351.54
  L 336.92 358.11
  A 0.30 0.30 0.0 0 0 337.19 358.31
  Z"
/>
<path fill="#ffffff" d="
  M 729.38 356.02
  C 721.48 463.00 661.01 557.54 567.78 610.10
  C 481.66 658.66 375.13 663.22 285.29 622.91
  C 178.59 575.02 106.24 472.98 98.08 355.95
  A 0.91 0.91 0.0 0 1 98.99 354.97
  L 185.75 354.97
  A 1.46 1.46 0.0 0 1 187.20 356.29
  C 194.21 429.17 237.19 495.71 301.38 531.80
  C 388.58 580.83 498.18 567.57 570.47 498.69
  C 610.14 460.88 635.18 410.30 640.33 355.61
  Q 640.39 354.96 641.04 354.96
  L 728.42 354.99
  A 0.96 0.96 0.0 0 1 729.38 356.02
  Z
  M 159.71 409.80
  A 0.27 0.27 0.0 0 1 159.80 410.32
  Q 147.69 414.44 135.79 419.08
  C 133.29 420.06 130.99 421.26 130.62 424.15
  C 129.95 429.34 134.49 431.68 138.92 429.89
  Q 152.16 424.55 165.32 419.01
  C 170.12 416.99 177.96 415.30 177.21 408.46
  Q 176.42 401.27 168.99 401.39
  Q 155.46 401.62 141.80 401.24
  Q 140.94 401.22 141.69 400.79
  Q 153.55 394.08 165.75 387.97
  Q 171.70 384.98 170.29 378.68
  C 168.90 372.46 163.96 373.24 158.06 373.56
  Q 142.66 374.40 127.25 375.03
  Q 125.05 375.12 123.12 376.03
  C 118.82 378.03 119.13 384.56 123.63 385.99
  Q 125.35 386.54 127.26 386.37
  Q 138.96 385.29 152.23 383.61
  Q 153.88 383.40 152.79 384.80
  Q 152.43 385.26 150.58 386.14
  Q 139.91 391.21 129.38 396.60
  Q 123.33 399.70 126.12 406.24
  Q 127.20 408.77 129.50 408.90
  Q 144.67 409.75 159.71 409.80
  Z
  M 674.80 387.05
  Q 685.87 388.12 696.84 389.85
  C 700.31 390.40 706.92 391.24 707.89 386.45
  C 709.06 380.64 705.33 379.44 700.42 379.02
  Q 683.70 377.58 667.02 375.88
  Q 660.85 375.26 658.55 379.78
  Q 656.16 384.50 658.83 387.99
  Q 660.13 389.69 664.82 392.16
  Q 675.87 397.97 686.83 403.70
  A 0.21 0.21 0.0 0 1 686.73 404.10
  Q 672.49 403.85 658.27 404.12
  Q 652.18 404.23 650.86 410.00
  C 649.65 415.26 652.19 417.31 656.76 419.41
  Q 672.08 426.47 687.51 433.31
  C 696.64 437.36 701.17 426.67 692.07 422.91
  Q 680.13 417.98 670.07 414.15
  Q 666.07 412.63 670.35 412.58
  Q 682.79 412.42 693.86 412.87
  C 698.20 413.04 701.66 412.32 702.52 407.73
  C 703.22 403.97 701.51 401.82 698.34 400.10
  Q 686.56 393.71 674.67 387.47
  Q 673.66 386.94 674.80 387.05
  Z
  M 666.20 454.20
  A 1.14 1.14 0.0 0 1 665.66 452.63
  C 667.52 449.10 672.14 441.65 667.89 438.14
  C 661.98 433.24 657.39 444.15 656.21 447.96
  A 1.21 1.21 0.0 0 1 654.52 448.69
  L 649.16 446.06
  A 0.78 0.78 0.0 0 1 648.81 445.01
  C 650.18 442.26 655.97 432.61 651.61 429.14
  C 644.50 423.48 639.27 439.49 637.46 443.45
  C 635.21 448.35 634.56 452.08 640.03 454.65
  Q 655.81 462.06 671.60 469.43
  C 676.60 471.77 679.21 469.01 681.21 464.51
  C 683.12 460.23 688.07 451.95 687.52 447.72
  C 687.06 444.19 682.85 442.84 680.00 444.60
  C 676.80 446.58 674.54 453.03 673.06 456.49
  A 0.72 0.72 0.0 0 1 672.10 456.86
  L 666.20 454.20
  Z
  M 157.03 463.25
  A 2.03 2.03 0.0 0 1 156.40 465.74
  C 154.20 467.38 151.65 469.70 151.50 472.53
  C 151.34 475.78 154.49 479.70 158.12 478.40
  C 160.61 477.51 162.35 475.44 164.28 473.54
  Q 175.72 462.31 187.06 450.96
  Q 189.93 448.08 190.60 445.95
  C 192.37 440.31 188.18 435.08 182.25 435.44
  Q 166.71 436.38 145.31 438.54
  Q 141.53 438.92 140.16 439.86
  C 136.36 442.48 137.62 449.49 143.14 449.27
  Q 146.53 449.13 149.55 449.01
  A 1.27 1.25 76.0 0 1 150.75 449.74
  L 157.03 463.25
  Z
  M 629.16 480.78
  Q 645.76 491.47 652.48 496.05
  C 655.03 497.79 657.95 499.76 661.01 498.55
  C 665.35 496.83 665.85 490.85 661.96 488.27
  Q 648.88 479.59 635.91 471.24
  A 1.08 1.08 0.0 0 1 635.61 469.70
  C 637.89 466.52 641.85 459.69 635.90 457.40
  C 632.57 456.12 629.79 458.66 628.04 461.26
  Q 622.21 469.91 616.84 478.84
  Q 614.88 482.10 615.28 483.76
  C 616.23 487.64 619.75 489.20 623.15 487.03
  C 625.63 485.44 626.42 482.75 628.23 480.89
  Q 628.65 480.45 629.16 480.78
  Z
  M 196.32 503.00
  Q 200.20 489.17 204.77 474.51
  C 206.85 467.86 202.69 461.47 195.64 466.62
  Q 182.77 476.01 169.96 485.46
  C 166.89 487.72 163.33 489.81 163.73 493.95
  C 164.27 499.58 170.27 499.33 173.79 496.77
  Q 182.40 490.50 190.60 484.41
  A 0.56 0.56 0.0 0 1 191.46 485.03
  Q 186.96 499.11 182.87 512.78
  C 181.86 516.15 181.18 519.96 183.70 522.70
  Q 186.46 525.71 190.79 522.58
  Q 205.87 511.65 220.77 500.48
  Q 223.68 498.30 224.00 496.00
  C 224.63 491.46 219.07 488.21 215.28 490.77
  Q 206.44 496.74 197.30 503.66
  Q 195.82 504.78 196.32 503.00
  Z
  M 623.83 516.38
  C 627.40 514.17 631.73 515.37 631.58 520.02
  C 631.35 527.43 616.51 528.14 619.63 536.19
  C 624.18 547.89 655.10 523.16 638.25 507.21
  C 629.99 499.40 620.53 505.10 612.44 509.95
  C 608.80 512.14 606.15 508.61 607.40 505.25
  C 609.09 500.71 618.67 499.21 616.75 493.21
  C 612.96 481.35 585.11 502.95 599.80 518.68
  C 607.30 526.70 616.49 520.94 623.83 516.38
  Z
  M 223.15 549.73
  C 222.21 551.92 220.86 554.23 220.58 556.30
  C 219.70 562.85 228.30 565.74 231.06 559.78
  Q 234.72 551.86 245.63 526.45
  C 247.55 521.99 248.52 517.53 244.70 514.29
  C 240.89 511.05 236.51 512.41 232.03 514.62
  Q 217.89 521.60 203.89 528.87
  C 201.80 529.96 199.10 531.07 198.08 533.07
  C 196.49 536.19 198.01 540.16 201.55 540.98
  C 204.08 541.57 208.11 538.83 210.61 538.00
  A 0.89 0.89 0.0 0 1 211.50 538.19
  L 222.95 548.77
  A 0.85 0.85 0.0 0 1 223.15 549.73
  Z
  M 583.82 534.52
  Q 576.71 532.51 569.56 530.82
  Q 563.53 529.40 562.11 534.45
  C 560.90 538.76 564.39 540.72 568.17 541.72
  Q 576.91 544.03 585.25 546.20
  A 5.35 5.32 -12.2 0 1 588.00 547.96
  Q 592.15 552.98 596.55 558.45
  C 599.41 562.00 603.57 563.90 606.82 560.43
  C 611.77 555.15 602.31 546.80 597.70 541.53
  Q 595.82 539.38 595.60 536.89
  Q 594.85 528.46 594.16 520.06
  C 593.86 516.49 593.03 513.10 589.11 512.82
  C 584.62 512.50 583.19 516.08 583.48 520.00
  Q 584.00 526.98 584.49 533.98
  A 0.53 0.52 5.5 0 1 583.82 534.52
  Z
  M 272.03 572.99
  Q 273.72 574.46 271.79 575.61
  Q 264.82 579.76 259.62 575.40
  C 250.42 567.69 259.11 550.04 269.78 549.74
  C 276.68 549.55 279.93 554.61 283.00 560.55
  Q 284.84 564.10 288.39 563.29
  C 294.04 561.99 293.85 555.20 291.35 551.18
  C 283.74 538.95 266.97 533.73 254.83 543.24
  C 237.50 556.82 239.98 585.24 263.86 588.45
  Q 276.59 590.16 285.39 577.61
  C 290.89 569.77 281.48 565.37 274.88 561.81
  C 271.29 559.88 266.11 560.42 265.76 565.19
  C 265.47 569.09 269.88 571.13 272.03 572.99
  Z
  M 547.78 558.39
  C 546.70 556.54 547.93 554.34 549.46 553.11
  C 552.16 550.95 561.01 550.44 561.01 546.21
  Q 561.00 539.93 554.74 540.35
  Q 544.31 541.04 538.76 549.06
  C 532.59 558.00 536.75 572.79 549.50 571.52
  Q 555.24 570.95 559.87 569.67
  C 562.19 569.03 564.83 568.98 566.38 570.67
  C 571.28 576.04 562.65 579.67 558.30 580.67
  C 555.86 581.24 553.15 582.21 551.91 583.95
  C 549.81 586.87 551.52 590.54 554.87 591.49
  Q 556.96 592.07 559.26 591.75
  C 569.91 590.28 581.17 581.77 579.12 569.77
  C 576.84 556.39 564.54 556.56 554.27 559.60
  C 552.33 560.18 548.99 560.45 547.78 558.39
  Z
  M 305.36 588.84
  C 308.38 590.43 316.24 594.26 319.25 591.49
  C 322.51 588.49 321.42 585.09 317.95 582.92
  Q 314.16 580.55 310.04 579.37
  A 1.19 1.19 0.0 0 1 309.25 577.81
  L 311.43 571.90
  A 0.60 0.59 -67.9 0 1 312.23 571.56
  C 315.78 573.10 321.46 576.42 325.30 575.72
  C 330.94 574.70 330.39 567.98 325.93 565.78
  Q 322.05 563.87 314.33 560.85
  C 308.70 558.64 305.07 557.68 302.37 564.06
  Q 296.21 578.59 290.14 593.22
  C 288.25 597.75 287.04 602.16 292.57 604.23
  C 297.13 605.94 301.70 608.03 307.25 610.19
  C 314.18 612.89 317.96 604.72 312.69 601.30
  Q 310.26 599.73 303.45 597.20
  Q 301.46 596.47 302.17 594.42
  Q 303.36 591.00 304.41 589.12
  A 0.71 0.70 -61.2 0 1 305.36 588.84
  Z
  M 489.45 583.07
  Q 493.63 597.34 498.51 612.12
  Q 500.07 616.85 504.51 616.52
  C 509.66 616.13 510.23 611.66 509.03 607.41
  Q 504.96 593.03 499.94 578.84
  A 0.66 0.66 0.0 0 1 500.31 578.02
  C 504.11 576.45 510.19 575.81 509.24 569.95
  C 508.31 564.20 500.52 566.38 496.69 567.66
  Q 488.28 570.47 479.88 573.37
  Q 475.01 575.05 475.96 579.81
  C 477.11 585.53 483.96 583.27 487.56 582.08
  A 1.49 1.48 -17.3 0 1 489.45 583.07
  Z
  M 345.74 589.02
  Q 345.87 603.20 346.39 617.50
  Q 346.61 623.48 352.46 624.21
  C 356.80 624.74 358.42 620.88 360.35 617.15
  Q 366.02 606.19 371.23 594.97
  A 0.33 0.33 0.0 0 1 371.85 595.14
  Q 370.69 608.30 369.34 621.74
  C 368.46 630.56 379.87 631.33 380.42 622.74
  Q 380.86 615.83 382.09 589.57
  C 382.35 584.02 382.02 579.43 375.76 578.71
  C 369.40 577.98 367.96 581.95 365.35 587.49
  Q 360.49 597.77 355.50 608.03
  Q 355.12 608.81 355.07 607.94
  Q 354.27 593.98 353.72 580.01
  Q 353.43 572.77 346.26 572.51
  Q 341.44 572.34 339.52 576.76
  Q 332.52 592.85 326.09 609.18
  C 324.86 612.31 324.19 615.42 326.66 617.76
  C 330.13 621.05 334.43 618.76 335.96 614.74
  Q 340.83 601.95 345.26 588.94
  A 0.25 0.25 0.0 0 1 345.74 589.02
  Z
  M 463.55 605.58
  Q 452.34 594.22 440.90 583.10
  C 437.98 580.26 431.96 579.54 430.66 584.04
  Q 430.22 585.57 430.72 589.47
  Q 432.91 606.52 435.51 623.50
  C 436.92 632.69 447.76 630.97 446.86 623.24
  Q 445.57 612.11 443.77 601.22
  A 0.25 0.25 0.0 0 1 444.19 600.99
  Q 456.02 612.23 467.29 623.45
  C 471.58 627.72 478.34 625.29 477.49 618.49
  Q 475.69 604.27 472.27 582.26
  C 470.77 572.57 459.28 575.11 461.01 584.52
  Q 462.92 594.85 464.03 605.35
  Q 464.12 606.16 463.55 605.58
  Z
  M 405.27 618.66
  L 405.23 612.14
  Q 405.22 610.59 406.77 610.69
  C 410.03 610.90 415.34 611.46 418.02 610.19
  C 421.43 608.55 421.90 602.21 417.75 601.26
  Q 412.44 600.04 407.10 600.55
  A 1.41 1.41 0.0 0 1 405.56 599.12
  L 405.70 592.73
  A 0.69 0.68 -0.0 0 1 406.38 592.06
  Q 412.07 591.97 417.73 591.79
  C 423.81 591.60 424.16 582.95 417.99 582.38
  Q 409.39 581.60 400.76 581.66
  Q 394.99 581.70 394.71 587.74
  Q 393.94 603.99 393.75 620.25
  C 393.71 624.24 393.20 629.03 398.50 629.36
  Q 405.54 629.79 412.59 629.95
  C 415.24 630.01 418.04 630.12 420.03 628.57
  Q 423.09 626.18 421.73 623.16
  C 419.47 618.16 410.21 619.56 405.91 619.33
  A 0.67 0.67 0.0 0 1 405.27 618.66
  Z"
/>
<path fill="#ffffff" d="
  M 315.52 365.19
  L 322.06 365.48
  A 0.33 0.33 0.0 0 1 322.25 366.07
  L 317.11 370.12
  A 0.33 0.33 0.0 0 0 316.99 370.47
  L 318.73 376.78
  A 0.33 0.33 0.0 0 1 318.23 377.15
  L 312.79 373.50
  A 0.33 0.33 0.0 0 0 312.42 373.50
  L 306.95 377.11
  A 0.33 0.33 0.0 0 1 306.45 376.74
  L 308.24 370.44
  A 0.33 0.33 0.0 0 0 308.13 370.09
  L 303.01 366.00
  A 0.33 0.33 0.0 0 1 303.20 365.42
  L 309.75 365.17
  A 0.33 0.33 0.0 0 0 310.04 364.95
  L 312.35 358.82
  A 0.33 0.33 0.0 0 1 312.96 358.82
  L 315.23 364.97
  A 0.33 0.33 0.0 0 0 315.52 365.19
  Z"
/>
<path fill="#ffffff" d="
  M 350.56 377.06
  L 357.28 377.18
  A 0.34 0.34 0.0 0 1 357.48 377.79
  L 352.11 381.84
  A 0.34 0.34 0.0 0 0 351.99 382.21
  L 353.96 388.64
  A 0.34 0.34 0.0 0 1 353.44 389.02
  L 347.92 385.17
  A 0.34 0.34 0.0 0 0 347.54 385.17
  L 342.02 389.02
  A 0.34 0.34 0.0 0 1 341.50 388.64
  L 343.47 382.21
  A 0.34 0.34 0.0 0 0 343.35 381.84
  L 337.98 377.79
  A 0.34 0.34 0.0 0 1 338.18 377.18
  L 344.90 377.06
  A 0.34 0.34 0.0 0 0 345.22 376.83
  L 347.41 370.47
  A 0.34 0.34 0.0 0 1 348.05 370.47
  L 350.24 376.83
  A 0.34 0.34 0.0 0 0 350.56 377.06
  Z"
/>
<rect fill="#ffffff" x="211.09" y="394.16" width="402.06" height="11.96" rx="1.42"/>
<path fill="#ffffff" d="
  M 161.72 447.25
  L 177.73 445.11
  A 0.32 0.32 0.0 0 1 177.99 445.66
  L 166.09 456.58
  A 0.32 0.32 0.0 0 1 165.59 456.49
  L 161.47 447.70
  A 0.32 0.32 0.0 0 1 161.72 447.25
  Z"
/>
<path fill="#ffffff" d="
  M 221.13 531.64
  L 234.94 524.05
  A 0.38 0.38 0.0 0 1 235.46 524.56
  L 228.42 538.65
  A 0.38 0.38 0.0 0 1 227.81 538.76
  L 221.05 532.25
  A 0.38 0.38 0.0 0 1 221.13 531.64
  Z"
/>
</svg>
