<?xml version="1.0" encoding="UTF-8" standalone="no"?>
<!DOCTYPE svg PUBLIC "-//W3C//DTD SVG 1.1//EN" "http://www.w3.org/Graphics/SVG/1.1/DTD/svg11.dtd">
<svg xmlns="http://www.w3.org/2000/svg" version="1.1" viewBox="0.00 0.00 298.00 255.00">
<g stroke-width="2.00" fill="none" stroke-linecap="butt">
<path stroke="#8ba1c9" vector-effect="non-scaling-stroke" d="
  M 135.73 23.98
  Q 136.46 26.89 137.33 29.74
  Q 137.87 31.54 139.58 30.89
  A 1.54 1.52 70.9 0 0 140.49 29.00
  L 137.28 18.76
  A 2.18 2.17 -51.3 0 0 133.04 19.23
  L 132.44 26.23
  Q 132.35 27.29 131.95 26.30
  L 129.26 19.75
  A 2.08 2.08 0.0 0 0 126.41 18.68
  Q 124.90 19.43 124.94 21.26
  Q 125.04 25.94 124.77 30.62
  C 124.70 31.98 125.23 32.92 126.63 32.92
  A 1.35 1.35 0.0 0 0 127.98 31.59
  L 128.06 25.01
  Q 128.07 23.73 128.57 24.91
  Q 129.83 27.93 131.18 30.93
  Q 132.01 32.78 133.74 31.63
  A 1.64 1.64 0.0 0 0 134.47 30.45
  L 135.21 24.01
  A 0.27 0.26 41.6 0 1 135.73 23.98"
/>
<path stroke="#8ba1c9" vector-effect="non-scaling-stroke" d="
  M 147.15 20.61
  C 137.71 17.50 139.67 34.70 147.19 30.49
  Q 147.60 30.26 148.02 30.49
  C 149.65 31.37 150.69 30.52 150.72 28.80
  Q 150.80 25.43 150.70 21.70
  A 1.58 1.58 0.0 0 0 148.39 20.35
  Q 148.26 20.43 148.13 20.50
  Q 147.67 20.79 147.15 20.61"
/>
<path stroke="#8ba1c9" vector-effect="non-scaling-stroke" d="
  M 158.57 24.74
  L 158.22 30.49
  A 0.85 0.84 5.4 0 0 158.96 31.38
  L 160.29 31.53
  A 0.97 0.96 5.4 0 0 161.37 30.64
  C 161.60 27.01 163.75 18.85 156.35 21.04
  A 0.93 0.92 54.0 0 1 155.55 20.91
  Q 154.59 20.26 153.45 20.60
  A 0.82 0.81 84.2 0 0 152.88 21.31
  L 152.15 29.71
  A 1.56 1.56 0.0 0 0 155.26 30.02
  L 155.88 24.51
  A 1.35 1.35 0.0 0 1 158.57 24.74"
/>
<path stroke="#8ba1c9" vector-effect="non-scaling-stroke" d="
  M 169.23 32.86
  Q 169.79 33.65 170.86 33.55
  A 1.29 1.29 0.0 0 0 172.01 32.50
  L 173.47 24.74
  A 1.42 1.39 -57.3 0 0 173.25 23.68
  Q 172.56 22.64 171.28 23.10
  A 1.02 1.00 49.7 0 1 170.41 23.02
  C 161.81 17.88 159.73 34.97 168.31 32.54
  Q 168.88 32.38 169.23 32.86"
/>
<path stroke="#8ba1c9" vector-effect="non-scaling-stroke" d="
  M 113.74 30.70
  L 110.89 27.20
  A 1.31 1.31 0.0 0 0 108.67 27.53
  Q 107.96 29.25 105.94 28.36
  Q 105.58 28.20 105.41 27.86
  L 104.69 26.43
  A 1.48 1.48 0.0 0 0 101.93 27.46
  L 102.46 29.57
  A 0.54 0.51 -27.2 0 1 102.27 30.12
  Q 101.11 31.03 101.86 32.29
  A 0.82 0.80 -16.7 0 0 102.61 32.68
  L 103.40 32.63
  A 0.69 0.68 -12.3 0 1 104.08 33.06
  Q 105.07 35.53 106.24 37.91
  C 106.82 39.07 107.85 39.47 108.92 38.47
  A 1.37 1.37 0.0 0 0 109.25 36.94
  L 107.19 32.04
  Q 107.01 31.61 107.32 31.26
  L 108.45 29.95
  Q 108.72 29.64 108.99 29.95
  L 113.36 34.95
  Q 113.72 35.36 113.73 35.91
  Q 113.77 37.47 113.71 39.00
  Q 113.66 40.36 114.97 40.48
  Q 116.44 40.62 116.55 39.15
  Q 117.03 32.98 117.40 26.72
  C 117.48 25.44 116.54 24.53 115.22 24.90
  A 1.11 1.11 0.0 0 0 114.40 25.92
  L 114.19 30.55
  Q 114.16 31.21 113.74 30.70"
/>
<path stroke="#8ba1c9" vector-effect="non-scaling-stroke" d="
  M 178.79 35.85
  Q 178.03 36.96 176.37 36.23
  Q 175.00 35.63 174.05 34.93
  A 1.26 1.26 0.0 0 0 172.04 35.78
  C 171.61 39.09 177.25 40.12 179.36 39.21
  C 182.49 37.87 183.89 30.73 184.65 27.66
  A 1.14 1.14 0.0 0 0 183.50 26.25
  L 182.29 26.30
  Q 181.80 26.32 181.49 25.95
  Q 180.26 24.48 178.71 24.72
  C 172.28 25.71 171.64 36.08 178.47 35.31
  Q 179.21 35.23 178.79 35.85"
/>
<path stroke="#8ba1c9" vector-effect="non-scaling-stroke" d="
  M 99.66 29.34
  A 1.88 1.88 0.0 0 0 97.78 27.46
  A 1.88 1.88 0.0 0 0 95.90 29.34
  A 1.88 1.88 0.0 0 0 97.78 31.22
  A 1.88 1.88 0.0 0 0 99.66 29.34"
/>
<path stroke="#8ba1c9" vector-effect="non-scaling-stroke" d="
  M 188.01 34.73
  L 191.93 36.50
  A 1.68 1.68 0.0 0 0 194.30 35.08
  C 195.02 23.96 180.24 29.38 184.90 37.28
  Q 186.69 40.30 191.15 39.47
  Q 192.65 39.20 192.52 37.79
  A 0.98 0.98 0.0 0 0 191.42 36.92
  Q 189.10 37.22 187.36 35.76
  A 0.61 0.61 0.0 0 1 188.01 34.73"
/>
<path stroke="#8ba1c9" vector-effect="non-scaling-stroke" d="
  M 94.3665 30.6944
  A 1.58 1.58 0.0 0 0 92.2208 30.0710
  L 92.1507 30.1095
  A 1.58 1.58 0.0 0 0 91.5273 32.2553
  L 97.1735 42.5256
  A 1.58 1.58 0.0 0 0 99.3192 43.1490
  L 99.3893 43.1105
  A 1.58 1.58 0.0 0 0 100.0127 40.9647
  L 94.3665 30.6944"
/>
<path stroke="#8ba1c9" vector-effect="non-scaling-stroke" d="
  M 100.9665 32.1935
  A 1.55 1.55 0.0 0 0 98.8878 31.4980
  L 98.7804 31.5515
  A 1.55 1.55 0.0 0 0 98.0848 33.6303
  L 101.4135 40.3065
  A 1.55 1.55 0.0 0 0 103.4922 41.0020
  L 103.5996 40.9485
  A 1.55 1.55 0.0 0 0 104.2952 38.8697
  L 100.9665 32.1935"
/>
<path stroke="#8ba1c9" vector-effect="non-scaling-stroke" d="
  M 203.98 36.72
  Q 203.12 34.37 200.69 34.26
  Q 200.24 34.24 199.95 33.89
  L 199.13 32.89
  A 1.30 1.30 0.0 0 0 197.02 33.04
  Q 195.01 36.29 193.12 39.79
  Q 192.50 40.95 193.30 41.84
  A 1.42 1.42 0.0 0 0 195.53 41.69
  Q 196.96 39.58 198.30 37.37
  Q 198.67 36.75 199.13 36.65
  Q 199.79 36.49 200.34 37.01
  A 1.02 1.01 -53.0 0 1 200.51 38.25
  L 197.78 43.05
  A 1.60 1.60 0.0 0 0 200.53 44.67
  L 203.45 39.91
  A 1.09 1.09 0.0 0 1 205.43 40.78
  Q 204.79 43.03 203.18 45.40
  Q 202.32 46.65 202.96 47.46
  A 1.61 1.61 0.0 0 0 205.56 47.37
  C 207.57 44.41 212.61 37.61 204.72 37.26
  Q 204.17 37.23 203.98 36.72"
/>
<path stroke="#8ba1c9" vector-effect="non-scaling-stroke" d="
  M 93.85 45.85
  L 95.30 45.48
  A 1.29 1.28 66.5 0 0 96.06 43.54
  L 91.61 36.64
  A 1.36 1.35 -54.2 0 0 89.16 37.04
  Q 88.86 38.15 87.81 38.03
  Q 87.36 37.98 86.95 38.16
  C 79.45 41.46 89.58 53.33 93.30 46.28
  Q 93.48 45.94 93.85 45.85"
/>
<path stroke="#8ba1c9" vector-effect="non-scaling-stroke" d="
  M 80.93 51.11
  L 77.25 46.78
  A 1.48 1.47 -77.2 0 0 74.78 48.34
  C 76.45 52.11 81.22 57.87 85.42 52.37
  C 87.87 49.18 84.65 46.20 82.15 43.35
  Q 81.21 42.28 80.01 43.06
  A 1.56 1.56 0.0 0 0 79.64 45.34
  L 82.86 49.39
  Q 83.35 50.02 82.79 50.59
  L 82.22 51.16
  A 0.88 0.87 -42.5 0 1 80.93 51.11"
/>
<path stroke="#8ba1c9" vector-effect="non-scaling-stroke" d="
  M 210.89 48.13
  L 214.63 50.93
  A 1.73 1.73 0.0 0 0 217.34 49.97
  Q 218.31 46.14 216.24 44.10
  C 210.28 38.25 202.20 50.45 211.23 53.62
  Q 212.86 54.19 214.12 53.39
  A 1.30 1.30 0.0 0 0 213.51 50.99
  Q 211.19 50.83 210.19 48.70
  A 0.47 0.46 5.8 0 1 210.89 48.13"
/>
<path stroke="#8ba1c9" vector-effect="non-scaling-stroke" d="
  M 222.41 50.01
  Q 222.18 48.39 220.55 48.78
  Q 220.09 48.89 219.74 49.20
  Q 217.03 51.60 214.80 54.45
  C 214.00 55.47 213.93 56.58 215.21 57.18
  A 1.20 1.19 36.6 0 0 216.52 56.99
  Q 218.52 55.17 220.73 53.25
  Q 221.80 52.33 222.62 53.59
  A 1.12 1.10 -41.3 0 1 222.52 54.95
  Q 220.83 56.83 218.97 58.98
  Q 217.82 60.31 219.39 61.37
  A 1.45 1.44 38.1 0 0 221.27 61.15
  L 226.07 55.87
  A 0.59 0.58 69.3 0 0 226.24 55.48
  Q 226.45 51.75 222.99 50.70
  A 0.84 0.84 0.0 0 1 222.41 50.01"
/>
<path stroke="#8ba1c9" vector-effect="non-scaling-stroke" d="
  M 77.22 55.10
  C 75.46 50.43 70.45 47.73 66.01 50.60
  C 62.45 52.90 62.61 58.48 65.58 61.27
  C 69.41 64.84 74.73 64.50 77.19 59.37
  Q 77.37 59.00 77.76 58.87
  L 80.03 58.18
  Q 80.94 57.90 80.59 57.01
  Q 79.87 55.16 77.92 55.50
  Q 77.40 55.59 77.22 55.10"
/>
<path stroke="#8ba1c9" vector-effect="non-scaling-stroke" d="
  M 232.00 58.34
  Q 233.68 57.35 232.98 55.58
  A 0.94 0.94 0.0 0 0 232.25 55.00
  Q 230.69 54.77 229.89 56.07
  A 0.57 0.55 21.0 0 1 229.31 56.32
  L 227.39 55.91
  Q 226.56 55.73 226.56 56.58
  L 226.57 58.63
  A 0.54 0.53 70.1 0 1 226.38 59.04
  Q 224.61 60.57 222.92 62.20
  Q 222.11 62.98 222.03 63.63
  Q 221.88 64.77 223.36 65.25
  A 1.24 1.23 32.8 0 0 224.55 65.00
  L 228.66 61.39
  A 0.66 0.65 -49.0 0 1 229.46 61.33
  L 230.29 61.89
  A 1.14 1.14 0.0 0 0 232.02 60.62
  L 231.63 59.29
  Q 231.45 58.67 232.00 58.34"
/>
<path stroke="#8ba1c9" vector-effect="non-scaling-stroke" d="
  M 145.7637 27.7899
  A 2.26 1.76 89.4 0 0 147.4999 25.5116
  A 2.26 1.76 89.4 0 0 145.7163 23.2701
  A 2.26 1.76 89.4 0 0 143.9801 25.5484
  A 2.26 1.76 89.4 0 0 145.7637 27.7899"
/>
<path stroke="#8ba1c9" vector-effect="non-scaling-stroke" d="
  M 167.4910 29.7614
  A 2.27 1.76 99.1 0 0 169.5878 27.7984
  A 2.27 1.76 99.1 0 0 168.2090 25.2786
  A 2.27 1.76 99.1 0 0 166.1122 27.2416
  A 2.27 1.76 99.1 0 0 167.4910 29.7614"
/>
<path stroke="#8ba1c9" vector-effect="non-scaling-stroke" d="
  M 178.1369 32.6024
  A 2.37 1.80 106.5 0 0 180.5359 30.8412
  A 2.37 1.80 106.5 0 0 179.4831 28.0576
  A 2.37 1.80 106.5 0 0 177.0841 29.8188
  A 2.37 1.80 106.5 0 0 178.1369 32.6024"
/>
<path stroke="#8ba1c9" vector-effect="non-scaling-stroke" d="
  M 191.24 33.70
  A 0.15 0.15 0.0 0 0 191.45 33.57
  Q 191.51 32.43 190.43 31.85
  Q 189.23 31.21 188.58 32.00
  Q 188.27 32.39 188.72 32.59
  L 191.24 33.70"
/>
<path stroke="#8ba1c9" vector-effect="non-scaling-stroke" d="
  M 90.8362 44.7593
  A 2.27 1.73 58.2 0 0 91.1103 41.9184
  A 2.27 1.73 58.2 0 0 88.4438 40.9007
  A 2.27 1.73 58.2 0 0 88.1697 43.7416
  A 2.27 1.73 58.2 0 0 90.8362 44.7593"
/>
<path stroke="#8ba1c9" vector-effect="non-scaling-stroke" d="
  M 214.85 47.07
  Q 214.46 45.39 212.71 45.45
  A 0.50 0.50 0.0 0 0 212.42 46.35
  L 214.04 47.59
  Q 215.18 48.46 214.85 47.07"
/>
<path stroke="#8ba1c9" vector-effect="non-scaling-stroke" d="
  M 72.49 58.49
  A 1.15 1.15 0.0 0 1 71.87 56.76
  Q 72.31 56.08 73.08 55.96
  Q 73.88 55.83 73.36 55.21
  Q 72.01 53.57 70.05 52.86
  Q 69.62 52.70 69.19 52.84
  Q 65.64 54.00 67.17 57.22
  Q 69.24 61.57 73.48 59.41
  A 0.35 0.35 0.0 0 0 73.42 58.77
  L 72.49 58.49"
/>
<path stroke="#8ba1c9" vector-effect="non-scaling-stroke" d="
  M 107.5110 217.4175
  A 1.94 1.94 0.0 0 0 106.5547 214.8460
  L 106.4638 214.8043
  A 1.94 1.94 0.0 0 0 103.8923 215.7607
  L 98.4890 227.5625
  A 1.94 1.94 0.0 0 0 99.4453 230.1340
  L 99.5362 230.1757
  A 1.94 1.94 0.0 0 0 102.1077 229.2193
  L 107.5110 217.4175"
/>
<path stroke="#8ba1c9" vector-effect="non-scaling-stroke" d="
  M 188.97 219.73
  Q 190.92 224.41 193.27 228.91
  C 194.07 230.44 195.54 230.75 196.67 229.39
  A 1.75 1.74 -36.8 0 0 196.94 227.57
  C 195.31 223.81 193.23 220.01 191.73 216.07
  C 190.73 213.45 187.25 215.34 185.77 216.58
  Q 185.39 216.90 185.28 217.37
  Q 184.95 218.90 186.20 219.43
  C 186.92 219.73 187.53 219.40 188.25 219.31
  Q 188.77 219.24 188.97 219.73"
/>
<path stroke="#8ba1c9" vector-effect="non-scaling-stroke" d="
  M 113.28 221.54
  Q 115.02 221.77 116.32 222.98
  A 1.62 1.61 -66.1 0 0 119.03 221.93
  C 119.49 216.59 105.99 215.92 108.11 223.91
  C 108.66 225.98 111.11 227.25 112.66 228.76
  A 1.40 1.39 -12.9 0 1 111.21 231.07
  Q 109.31 230.38 107.72 229.04
  A 1.72 1.72 0.0 0 0 105.02 229.69
  C 103.40 233.54 113.61 237.26 116.48 232.37
  C 118.56 228.83 116.06 225.18 112.67 223.80
  A 1.18 1.18 0.0 0 1 113.28 221.54"
/>
<path stroke="#8ba1c9" vector-effect="non-scaling-stroke" d="
  M 183.7673 235.2968
  A 8.86 7.03 71.8 0 0 187.6783 224.6843
  A 8.86 7.03 71.8 0 0 178.2327 218.4632
  A 8.86 7.03 71.8 0 0 174.3217 229.0757
  A 8.86 7.03 71.8 0 0 183.7673 235.2968"
/>
<path stroke="#8ba1c9" vector-effect="non-scaling-stroke" d="
  M 125.9292 239.0440
  A 8.81 8.23 100.8 0 0 135.6642 231.9321
  A 8.81 8.23 100.8 0 0 129.2308 221.7360
  A 8.81 8.23 100.8 0 0 119.4958 228.8479
  A 8.81 8.23 100.8 0 0 125.9292 239.0440"
/>
<path stroke="#8ba1c9" vector-effect="non-scaling-stroke" d="
  M 167.1323 239.4485
  A 8.86 7.03 80.5 0 0 172.6036 229.5497
  A 8.86 7.03 80.5 0 0 164.2077 221.9715
  A 8.86 7.03 80.5 0 0 158.7364 231.8703
  A 8.86 7.03 80.5 0 0 167.1323 239.4485"
/>
<path stroke="#8ba1c9" vector-effect="non-scaling-stroke" d="
  M 149.74 234.59
  A 0.71 0.71 0.0 0 1 150.21 235.88
  Q 147.97 237.42 148.15 239.94
  A 1.35 1.34 70.9 0 0 150.25 240.96
  C 154.30 238.17 159.32 230.55 156.01 225.60
  Q 154.03 222.64 149.81 223.59
  C 143.43 225.03 144.00 235.09 149.74 234.59"
/>
<path stroke="#8ba1c9" vector-effect="non-scaling-stroke" d="
  M 182.6259 231.6439
  A 5.04 2.82 71.3 0 0 183.6811 225.9659
  A 5.04 2.82 71.3 0 0 179.3941 222.0961
  A 5.04 2.82 71.3 0 0 178.3389 227.7741
  A 5.04 2.82 71.3 0 0 182.6259 231.6439"
/>
<path stroke="#8ba1c9" vector-effect="non-scaling-stroke" d="
  M 126.5911 235.2204
  A 4.96 3.85 101.5 0 0 131.3527 231.1276
  A 4.96 3.85 101.5 0 0 128.5689 225.4996
  A 4.96 3.85 101.5 0 0 123.8073 229.5924
  A 4.96 3.85 101.5 0 0 126.5911 235.2204"
/>
<path stroke="#8ba1c9" vector-effect="non-scaling-stroke" d="
  M 166.5330 235.6860
  A 5.07 2.83 80.2 0 0 168.4587 230.2083
  A 5.07 2.83 80.2 0 0 164.8070 225.6940
  A 5.07 2.83 80.2 0 0 162.8813 231.1717
  A 5.07 2.83 80.2 0 0 166.5330 235.6860"
/>
<path stroke="#8ba1c9" vector-effect="non-scaling-stroke" d="
  M 153.11 229.25
  A 1.97 1.97 0.0 0 0 151.14 227.28
  A 1.97 1.97 0.0 0 0 149.17 229.25
  A 1.97 1.97 0.0 0 0 151.14 231.22
  A 1.97 1.97 0.0 0 0 153.11 229.25"
/>
</g>
<path fill="#ffffff" d="
  M 62.23 92.13
  Q 61.17 94.58 60.10 97.08
  Q 59.92 97.50 59.47 97.50
  L 33.78 97.50
  Q 33.30 97.50 33.43 97.04
  Q 43.99 59.20 73.98 35.73
  C 139.72 -15.69 236.22 16.64 258.34 97.01
  Q 258.46 97.45 258.00 97.45
  L 232.42 97.60
  Q 231.89 97.60 231.70 97.10
  Q 218.47 62.31 186.38 46.10
  C 158.59 32.05 124.99 33.57 98.52 49.88
  Q 74.06 64.95 62.23 92.13
  Z
  M 135.73 23.98
  Q 136.46 26.89 137.33 29.74
  Q 137.87 31.54 139.58 30.89
  A 1.54 1.52 70.9 0 0 140.49 29.00
  L 137.28 18.76
  A 2.18 2.17 -51.3 0 0 133.04 19.23
  L 132.44 26.23
  Q 132.35 27.29 131.95 26.30
  L 129.26 19.75
  A 2.08 2.08 0.0 0 0 126.41 18.68
  Q 124.90 19.43 124.94 21.26
  Q 125.04 25.94 124.77 30.62
  C 124.70 31.98 125.23 32.92 126.63 32.92
  A 1.35 1.35 0.0 0 0 127.98 31.59
  L 128.06 25.01
  Q 128.07 23.73 128.57 24.91
  Q 129.83 27.93 131.18 30.93
  Q 132.01 32.78 133.74 31.63
  A 1.64 1.64 0.0 0 0 134.47 30.45
  L 135.21 24.01
  A 0.27 0.26 41.6 0 1 135.73 23.98
  Z
  M 147.15 20.61
  C 137.71 17.50 139.67 34.70 147.19 30.49
  Q 147.60 30.26 148.02 30.49
  C 149.65 31.37 150.69 30.52 150.72 28.80
  Q 150.80 25.43 150.70 21.70
  A 1.58 1.58 0.0 0 0 148.39 20.35
  Q 148.26 20.43 148.13 20.50
  Q 147.67 20.79 147.15 20.61
  Z
  M 158.57 24.74
  L 158.22 30.49
  A 0.85 0.84 5.4 0 0 158.96 31.38
  L 160.29 31.53
  A 0.97 0.96 5.4 0 0 161.37 30.64
  C 161.60 27.01 163.75 18.85 156.35 21.04
  A 0.93 0.92 54.0 0 1 155.55 20.91
  Q 154.59 20.26 153.45 20.60
  A 0.82 0.81 84.2 0 0 152.88 21.31
  L 152.15 29.71
  A 1.56 1.56 0.0 0 0 155.26 30.02
  L 155.88 24.51
  A 1.35 1.35 0.0 0 1 158.57 24.74
  Z
  M 169.23 32.86
  Q 169.79 33.65 170.86 33.55
  A 1.29 1.29 0.0 0 0 172.01 32.50
  L 173.47 24.74
  A 1.42 1.39 -57.3 0 0 173.25 23.68
  Q 172.56 22.64 171.28 23.10
  A 1.02 1.00 49.7 0 1 170.41 23.02
  C 161.81 17.88 159.73 34.97 168.31 32.54
  Q 168.88 32.38 169.23 32.86
  Z
  M 113.74 30.70
  L 110.89 27.20
  A 1.31 1.31 0.0 0 0 108.67 27.53
  Q 107.96 29.25 105.94 28.36
  Q 105.58 28.20 105.41 27.86
  L 104.69 26.43
  A 1.48 1.48 0.0 0 0 101.93 27.46
  L 102.46 29.57
  A 0.54 0.51 -27.2 0 1 102.27 30.12
  Q 101.11 31.03 101.86 32.29
  A 0.82 0.80 -16.7 0 0 102.61 32.68
  L 103.40 32.63
  A 0.69 0.68 -12.3 0 1 104.08 33.06
  Q 105.07 35.53 106.24 37.91
  C 106.82 39.07 107.85 39.47 108.92 38.47
  A 1.37 1.37 0.0 0 0 109.25 36.94
  L 107.19 32.04
  Q 107.01 31.61 107.32 31.26
  L 108.45 29.95
  Q 108.72 29.64 108.99 29.95
  L 113.36 34.95
  Q 113.72 35.36 113.73 35.91
  Q 113.77 37.47 113.71 39.00
  Q 113.66 40.36 114.97 40.48
  Q 116.44 40.62 116.55 39.15
  Q 117.03 32.98 117.40 26.72
  C 117.48 25.44 116.54 24.53 115.22 24.90
  A 1.11 1.11 0.0 0 0 114.40 25.92
  L 114.19 30.55
  Q 114.16 31.21 113.74 30.70
  Z
  M 178.79 35.85
  Q 178.03 36.96 176.37 36.23
  Q 175.00 35.63 174.05 34.93
  A 1.26 1.26 0.0 0 0 172.04 35.78
  C 171.61 39.09 177.25 40.12 179.36 39.21
  C 182.49 37.87 183.89 30.73 184.65 27.66
  A 1.14 1.14 0.0 0 0 183.50 26.25
  L 182.29 26.30
  Q 181.80 26.32 181.49 25.95
  Q 180.26 24.48 178.71 24.72
  C 172.28 25.71 171.64 36.08 178.47 35.31
  Q 179.21 35.23 178.79 35.85
  Z
  M 99.66 29.34
  A 1.88 1.88 0.0 0 0 97.78 27.46
  A 1.88 1.88 0.0 0 0 95.90 29.34
  A 1.88 1.88 0.0 0 0 97.78 31.22
  A 1.88 1.88 0.0 0 0 99.66 29.34
  Z
  M 188.01 34.73
  L 191.93 36.50
  A 1.68 1.68 0.0 0 0 194.30 35.08
  C 195.02 23.96 180.24 29.38 184.90 37.28
  Q 186.69 40.30 191.15 39.47
  Q 192.65 39.20 192.52 37.79
  A 0.98 0.98 0.0 0 0 191.42 36.92
  Q 189.10 37.22 187.36 35.76
  A 0.61 0.61 0.0 0 1 188.01 34.73
  Z
  M 94.3665 30.6944
  A 1.58 1.58 0.0 0 0 92.2208 30.0710
  L 92.1507 30.1095
  A 1.58 1.58 0.0 0 0 91.5273 32.2553
  L 97.1735 42.5256
  A 1.58 1.58 0.0 0 0 99.3192 43.1490
  L 99.3893 43.1105
  A 1.58 1.58 0.0 0 0 100.0127 40.9647
  L 94.3665 30.6944
  Z
  M 100.9665 32.1935
  A 1.55 1.55 0.0 0 0 98.8878 31.4980
  L 98.7804 31.5515
  A 1.55 1.55 0.0 0 0 98.0848 33.6303
  L 101.4135 40.3065
  A 1.55 1.55 0.0 0 0 103.4922 41.0020
  L 103.5996 40.9485
  A 1.55 1.55 0.0 0 0 104.2952 38.8697
  L 100.9665 32.1935
  Z
  M 203.98 36.72
  Q 203.12 34.37 200.69 34.26
  Q 200.24 34.24 199.95 33.89
  L 199.13 32.89
  A 1.30 1.30 0.0 0 0 197.02 33.04
  Q 195.01 36.29 193.12 39.79
  Q 192.50 40.95 193.30 41.84
  A 1.42 1.42 0.0 0 0 195.53 41.69
  Q 196.96 39.58 198.30 37.37
  Q 198.67 36.75 199.13 36.65
  Q 199.79 36.49 200.34 37.01
  A 1.02 1.01 -53.0 0 1 200.51 38.25
  L 197.78 43.05
  A 1.60 1.60 0.0 0 0 200.53 44.67
  L 203.45 39.91
  A 1.09 1.09 0.0 0 1 205.43 40.78
  Q 204.79 43.03 203.18 45.40
  Q 202.32 46.65 202.96 47.46
  A 1.61 1.61 0.0 0 0 205.56 47.37
  C 207.57 44.41 212.61 37.61 204.72 37.26
  Q 204.17 37.23 203.98 36.72
  Z
  M 93.85 45.85
  L 95.30 45.48
  A 1.29 1.28 66.5 0 0 96.06 43.54
  L 91.61 36.64
  A 1.36 1.35 -54.2 0 0 89.16 37.04
  Q 88.86 38.15 87.81 38.03
  Q 87.36 37.98 86.95 38.16
  C 79.45 41.46 89.58 53.33 93.30 46.28
  Q 93.48 45.94 93.85 45.85
  Z
  M 80.93 51.11
  L 77.25 46.78
  A 1.48 1.47 -77.2 0 0 74.78 48.34
  C 76.45 52.11 81.22 57.87 85.42 52.37
  C 87.87 49.18 84.65 46.20 82.15 43.35
  Q 81.21 42.28 80.01 43.06
  A 1.56 1.56 0.0 0 0 79.64 45.34
  L 82.86 49.39
  Q 83.35 50.02 82.79 50.59
  L 82.22 51.16
  A 0.88 0.87 -42.5 0 1 80.93 51.11
  Z
  M 210.89 48.13
  L 214.63 50.93
  A 1.73 1.73 0.0 0 0 217.34 49.97
  Q 218.31 46.14 216.24 44.10
  C 210.28 38.25 202.20 50.45 211.23 53.62
  Q 212.86 54.19 214.12 53.39
  A 1.30 1.30 0.0 0 0 213.51 50.99
  Q 211.19 50.83 210.19 48.70
  A 0.47 0.46 5.8 0 1 210.89 48.13
  Z
  M 222.41 50.01
  Q 222.18 48.39 220.55 48.78
  Q 220.09 48.89 219.74 49.20
  Q 217.03 51.60 214.80 54.45
  C 214.00 55.47 213.93 56.58 215.21 57.18
  A 1.20 1.19 36.6 0 0 216.52 56.99
  Q 218.52 55.17 220.73 53.25
  Q 221.80 52.33 222.62 53.59
  A 1.12 1.10 -41.3 0 1 222.52 54.95
  Q 220.83 56.83 218.97 58.98
  Q 217.82 60.31 219.39 61.37
  A 1.45 1.44 38.1 0 0 221.27 61.15
  L 226.07 55.87
  A 0.59 0.58 69.3 0 0 226.24 55.48
  Q 226.45 51.75 222.99 50.70
  A 0.84 0.84 0.0 0 1 222.41 50.01
  Z
  M 77.22 55.10
  C 75.46 50.43 70.45 47.73 66.01 50.60
  C 62.45 52.90 62.61 58.48 65.58 61.27
  C 69.41 64.84 74.73 64.50 77.19 59.37
  Q 77.37 59.00 77.76 58.87
  L 80.03 58.18
  Q 80.94 57.90 80.59 57.01
  Q 79.87 55.16 77.92 55.50
  Q 77.40 55.59 77.22 55.10
  Z
  M 232.00 58.34
  Q 233.68 57.35 232.98 55.58
  A 0.94 0.94 0.0 0 0 232.25 55.00
  Q 230.69 54.77 229.89 56.07
  A 0.57 0.55 21.0 0 1 229.31 56.32
  L 227.39 55.91
  Q 226.56 55.73 226.56 56.58
  L 226.57 58.63
  A 0.54 0.53 70.1 0 1 226.38 59.04
  Q 224.61 60.57 222.92 62.20
  Q 222.11 62.98 222.03 63.63
  Q 221.88 64.77 223.36 65.25
  A 1.24 1.23 32.8 0 0 224.55 65.00
  L 228.66 61.39
  A 0.66 0.65 -49.0 0 1 229.46 61.33
  L 230.29 61.89
  A 1.14 1.14 0.0 0 0 232.02 60.62
  L 231.63 59.29
  Q 231.45 58.67 232.00 58.34
  Z"
/>
<path fill="#00FF0000" d="
  M 135.21 24.01
  L 134.47 30.45
  A 1.64 1.64 0.0 0 1 133.74 31.63
  Q 132.01 32.78 131.18 30.93
  Q 129.83 27.93 128.57 24.91
  Q 128.07 23.73 128.06 25.01
  L 127.98 31.59
  A 1.35 1.35 0.0 0 1 126.63 32.92
  C 125.23 32.92 124.70 31.98 124.77 30.62
  Q 125.04 25.94 124.94 21.26
  Q 124.90 19.43 126.41 18.68
  A 2.08 2.08 0.0 0 1 129.26 19.75
  L 131.95 26.30
  Q 132.35 27.29 132.44 26.23
  L 133.04 19.23
  A 2.18 2.17 -51.3 0 1 137.28 18.76
  L 140.49 29.00
  A 1.54 1.52 70.9 0 1 139.58 30.89
  Q 137.87 31.54 137.33 29.74
  Q 136.46 26.89 135.73 23.98
  A 0.27 0.26 41.6 0 0 135.21 24.01
  Z"
/>
<path fill="#00FF0000" d="
  M 148.13 20.50
  Q 148.26 20.43 148.39 20.35
  A 1.58 1.58 0.0 0 1 150.70 21.70
  Q 150.80 25.43 150.72 28.80
  C 150.69 30.52 149.65 31.37 148.02 30.49
  Q 147.60 30.26 147.19 30.49
  C 139.67 34.70 137.71 17.50 147.15 20.61
  Q 147.67 20.79 148.13 20.50
  Z
  M 145.7637 27.7899
  A 2.26 1.76 89.4 0 0 147.4999 25.5116
  A 2.26 1.76 89.4 0 0 145.7163 23.2701
  A 2.26 1.76 89.4 0 0 143.9801 25.5484
  A 2.26 1.76 89.4 0 0 145.7637 27.7899
  Z"
/>
<path fill="#00FF0000" d="
  M 158.57 24.74
  A 1.35 1.35 0.0 0 0 155.88 24.51
  L 155.26 30.02
  A 1.56 1.56 0.0 0 1 152.15 29.71
  L 152.88 21.31
  A 0.82 0.81 84.2 0 1 153.45 20.60
  Q 154.59 20.26 155.55 20.91
  A 0.93 0.92 54.0 0 0 156.35 21.04
  C 163.75 18.85 161.60 27.01 161.37 30.64
  A 0.97 0.96 5.4 0 1 160.29 31.53
  L 158.96 31.38
  A 0.85 0.84 5.4 0 1 158.22 30.49
  L 158.57 24.74
  Z"
/>
<path fill="#00FF0000" d="
  M 168.31 32.54
  C 159.73 34.97 161.81 17.88 170.41 23.02
  A 1.02 1.00 49.7 0 0 171.28 23.10
  Q 172.56 22.64 173.25 23.68
  A 1.42 1.39 -57.3 0 1 173.47 24.74
  L 172.01 32.50
  A 1.29 1.29 0.0 0 1 170.86 33.55
  Q 169.79 33.65 169.23 32.86
  Q 168.88 32.38 168.31 32.54
  Z
  M 167.4910 29.7614
  A 2.27 1.76 99.1 0 0 169.5878 27.7984
  A 2.27 1.76 99.1 0 0 168.2090 25.2786
  A 2.27 1.76 99.1 0 0 166.1122 27.2416
  A 2.27 1.76 99.1 0 0 167.4910 29.7614
  Z"
/>
<ellipse fill="#ffffff" cx="0.00" cy="0.00" transform="translate(145.74,25.53) rotate(89.4)" rx="2.26" ry="1.76"/>
<path fill="#00FF0000" d="
  M 114.19 30.55
  L 114.40 25.92
  A 1.11 1.11 0.0 0 1 115.22 24.90
  C 116.54 24.53 117.48 25.44 117.40 26.72
  Q 117.03 32.98 116.55 39.15
  Q 116.44 40.62 114.97 40.48
  Q 113.66 40.36 113.71 39.00
  Q 113.77 37.47 113.73 35.91
  Q 113.72 35.36 113.36 34.95
  L 108.99 29.95
  Q 108.72 29.64 108.45 29.95
  L 107.32 31.26
  Q 107.01 31.61 107.19 32.04
  L 109.25 36.94
  A 1.37 1.37 0.0 0 1 108.92 38.47
  C 107.85 39.47 106.82 39.07 106.24 37.91
  Q 105.07 35.53 104.08 33.06
  A 0.69 0.68 -12.3 0 0 103.40 32.63
  L 102.61 32.68
  A 0.82 0.80 -16.7 0 1 101.86 32.29
  Q 101.11 31.03 102.27 30.12
  A 0.54 0.51 -27.2 0 0 102.46 29.57
  L 101.93 27.46
  A 1.48 1.48 0.0 0 1 104.69 26.43
  L 105.41 27.86
  Q 105.58 28.20 105.94 28.36
  Q 107.96 29.25 108.67 27.53
  A 1.31 1.31 0.0 0 1 110.89 27.20
  L 113.74 30.70
  Q 114.16 31.21 114.19 30.55
  Z"
/>
<path fill="#00FF0000" d="
  M 178.47 35.31
  C 171.64 36.08 172.28 25.71 178.71 24.72
  Q 180.26 24.48 181.49 25.95
  Q 181.80 26.32 182.29 26.30
  L 183.50 26.25
  A 1.14 1.14 0.0 0 1 184.65 27.66
  C 183.89 30.73 182.49 37.87 179.36 39.21
  C 177.25 40.12 171.61 39.09 172.04 35.78
  A 1.26 1.26 0.0 0 1 174.05 34.93
  Q 175.00 35.63 176.37 36.23
  Q 178.03 36.96 178.79 35.85
  Q 179.21 35.23 178.47 35.31
  Z
  M 178.1369 32.6024
  A 2.37 1.80 106.5 0 0 180.5359 30.8412
  A 2.37 1.80 106.5 0 0 179.4831 28.0576
  A 2.37 1.80 106.5 0 0 177.0841 29.8188
  A 2.37 1.80 106.5 0 0 178.1369 32.6024
  Z"
/>
<ellipse fill="#ffffff" cx="0.00" cy="0.00" transform="translate(167.85,27.52) rotate(99.1)" rx="2.27" ry="1.76"/>
<circle fill="#00FF0000" cx="97.78" cy="29.34" r="1.88"/>
<ellipse fill="#ffffff" cx="0.00" cy="0.00" transform="translate(178.81,30.33) rotate(106.5)" rx="2.37" ry="1.80"/>
<path fill="#00FF0000" d="
  M 188.01 34.73
  A 0.61 0.61 0.0 0 0 187.36 35.76
  Q 189.10 37.22 191.42 36.92
  A 0.98 0.98 0.0 0 1 192.52 37.79
  Q 192.65 39.20 191.15 39.47
  Q 186.69 40.30 184.90 37.28
  C 180.24 29.38 195.02 23.96 194.30 35.08
  A 1.68 1.68 0.0 0 1 191.93 36.50
  L 188.01 34.73
  Z
  M 191.24 33.70
  A 0.15 0.15 0.0 0 0 191.45 33.57
  Q 191.51 32.43 190.43 31.85
  Q 189.23 31.21 188.58 32.00
  Q 188.27 32.39 188.72 32.59
  L 191.24 33.70
  Z"
/>
<rect fill="#00FF0000" x="-1.62" y="-7.44" transform="translate(95.77,36.61) rotate(-28.8)" width="3.24" height="14.88" rx="1.58"/>
<rect fill="#00FF0000" x="-1.61" y="-5.28" transform="translate(101.19,36.25) rotate(-26.5)" width="3.22" height="10.56" rx="1.55"/>
<path fill="#ffffff" d="
  M 191.24 33.70
  L 188.72 32.59
  Q 188.27 32.39 188.58 32.00
  Q 189.23 31.21 190.43 31.85
  Q 191.51 32.43 191.45 33.57
  A 0.15 0.15 0.0 0 1 191.24 33.70
  Z"
/>
<path fill="#00FF0000" d="
  M 204.72 37.26
  C 212.61 37.61 207.57 44.41 205.56 47.37
  A 1.61 1.61 0.0 0 1 202.96 47.46
  Q 202.32 46.65 203.18 45.40
  Q 204.79 43.03 205.43 40.78
  A 1.09 1.09 0.0 0 0 203.45 39.91
  L 200.53 44.67
  A 1.60 1.60 0.0 0 1 197.78 43.05
  L 200.51 38.25
  A 1.02 1.01 -53.0 0 0 200.34 37.01
  Q 199.79 36.49 199.13 36.65
  Q 198.67 36.75 198.30 37.37
  Q 196.96 39.58 195.53 41.69
  A 1.42 1.42 0.0 0 1 193.30 41.84
  Q 192.50 40.95 193.12 39.79
  Q 195.01 36.29 197.02 33.04
  A 1.30 1.30 0.0 0 1 199.13 32.89
  L 199.95 33.89
  Q 200.24 34.24 200.69 34.26
  Q 203.12 34.37 203.98 36.72
  Q 204.17 37.23 204.72 37.26
  Z"
/>
<path fill="#00FF0000" d="
  M 93.30 46.28
  C 89.58 53.33 79.45 41.46 86.95 38.16
  Q 87.36 37.98 87.81 38.03
  Q 88.86 38.15 89.16 37.04
  A 1.36 1.35 -54.2 0 1 91.61 36.64
  L 96.06 43.54
  A 1.29 1.28 66.5 0 1 95.30 45.48
  L 93.85 45.85
  Q 93.48 45.94 93.30 46.28
  Z
  M 90.8362 44.7593
  A 2.27 1.73 58.2 0 0 91.1103 41.9184
  A 2.27 1.73 58.2 0 0 88.4438 40.9007
  A 2.27 1.73 58.2 0 0 88.1697 43.7416
  A 2.27 1.73 58.2 0 0 90.8362 44.7593
  Z"
/>
<ellipse fill="#ffffff" cx="0.00" cy="0.00" transform="translate(89.64,42.83) rotate(58.2)" rx="2.27" ry="1.73"/>
<path fill="#00FF0000" d="
  M 80.93 51.11
  A 0.88 0.87 -42.5 0 0 82.22 51.16
  L 82.79 50.59
  Q 83.35 50.02 82.86 49.39
  L 79.64 45.34
  A 1.56 1.56 0.0 0 1 80.01 43.06
  Q 81.21 42.28 82.15 43.35
  C 84.65 46.20 87.87 49.18 85.42 52.37
  C 81.22 57.87 76.45 52.11 74.78 48.34
  A 1.48 1.47 -77.2 0 1 77.25 46.78
  L 80.93 51.11
  Z"
/>
<path fill="#00FF0000" d="
  M 210.19 48.70
  Q 211.19 50.83 213.51 50.99
  A 1.30 1.30 0.0 0 1 214.12 53.39
  Q 212.86 54.19 211.23 53.62
  C 202.20 50.45 210.28 38.25 216.24 44.10
  Q 218.31 46.14 217.34 49.97
  A 1.73 1.73 0.0 0 1 214.63 50.93
  L 210.89 48.13
  A 0.47 0.46 5.8 0 0 210.19 48.70
  Z
  M 214.85 47.07
  Q 214.46 45.39 212.71 45.45
  A 0.50 0.50 0.0 0 0 212.42 46.35
  L 214.04 47.59
  Q 215.18 48.46 214.85 47.07
  Z"
/>
<path fill="#ffffff" d="
  M 214.85 47.07
  Q 215.18 48.46 214.04 47.59
  L 212.42 46.35
  A 0.50 0.50 0.0 0 1 212.71 45.45
  Q 214.46 45.39 214.85 47.07
  Z"
/>
<path fill="#00FF0000" d="
  M 222.99 50.70
  Q 226.45 51.75 226.24 55.48
  A 0.59 0.58 69.3 0 1 226.07 55.87
  L 221.27 61.15
  A 1.45 1.44 38.1 0 1 219.39 61.37
  Q 217.82 60.31 218.97 58.98
  Q 220.83 56.83 222.52 54.95
  A 1.12 1.10 -41.3 0 0 222.62 53.59
  Q 221.80 52.33 220.73 53.25
  Q 218.52 55.17 216.52 56.99
  A 1.20 1.19 36.6 0 1 215.21 57.18
  C 213.93 56.58 214.00 55.47 214.80 54.45
  Q 217.03 51.60 219.74 49.20
  Q 220.09 48.89 220.55 48.78
  Q 222.18 48.39 222.41 50.01
  A 0.84 0.84 0.0 0 0 222.99 50.70
  Z"
/>
<path fill="#00FF0000" d="
  M 77.92 55.50
  Q 79.87 55.16 80.59 57.01
  Q 80.94 57.90 80.03 58.18
  L 77.76 58.87
  Q 77.37 59.00 77.19 59.37
  C 74.73 64.50 69.41 64.84 65.58 61.27
  C 62.61 58.48 62.45 52.90 66.01 50.60
  C 70.45 47.73 75.46 50.43 77.22 55.10
  Q 77.40 55.59 77.92 55.50
  Z
  M 72.49 58.49
  A 1.15 1.15 0.0 0 1 71.87 56.76
  Q 72.31 56.08 73.08 55.96
  Q 73.88 55.83 73.36 55.21
  Q 72.01 53.57 70.05 52.86
  Q 69.62 52.70 69.19 52.84
  Q 65.64 54.00 67.17 57.22
  Q 69.24 61.57 73.48 59.41
  A 0.35 0.35 0.0 0 0 73.42 58.77
  L 72.49 58.49
  Z"
/>
<path fill="#ffffff" d="
  M 72.49 58.49
  L 73.42 58.77
  A 0.35 0.35 0.0 0 1 73.48 59.41
  Q 69.24 61.57 67.17 57.22
  Q 65.64 54.00 69.19 52.84
  Q 69.62 52.70 70.05 52.86
  Q 72.01 53.57 73.36 55.21
  Q 73.88 55.83 73.08 55.96
  Q 72.31 56.08 71.87 56.76
  A 1.15 1.15 0.0 0 0 72.49 58.49
  Z"
/>
<path fill="#00FF0000" d="
  M 231.63 59.29
  L 232.02 60.62
  A 1.14 1.14 0.0 0 1 230.29 61.89
  L 229.46 61.33
  A 0.66 0.65 -49.0 0 0 228.66 61.39
  L 224.55 65.00
  A 1.24 1.23 32.8 0 1 223.36 65.25
  Q 221.88 64.77 222.03 63.63
  Q 222.11 62.98 222.92 62.20
  Q 224.61 60.57 226.38 59.04
  A 0.54 0.53 70.1 0 0 226.57 58.63
  L 226.56 56.58
  Q 226.56 55.73 227.39 55.91
  L 229.31 56.32
  A 0.57 0.55 21.0 0 0 229.89 56.07
  Q 230.69 54.77 232.25 55.00
  A 0.94 0.94 0.0 0 1 232.98 55.58
  Q 233.68 57.35 232.00 58.34
  Q 231.45 58.67 231.63 59.29
  Z"
/>
<rect fill="#ffffff" x="4.00" y="99.50" width="65.50" height="3.76" rx="0.36"/>
<path fill="#ffffff" d="
  M 108.76 160.00
  L 80.50 160.00
  Q 80.00 160.00 80.00 159.50
  L 80.00 115.75
  Q 80.00 115.24 80.50 115.24
  L 83.00 115.25
  Q 83.50 115.25 83.50 115.75
  L 83.50 156.25
  Q 83.50 156.75 84.00 156.75
  L 108.69 156.75
  Q 109.51 156.75 109.36 155.94
  L 109.30 155.59
  Q 109.20 155.00 108.59 155.00
  L 85.75 155.00
  Q 85.25 155.00 85.25 154.50
  L 85.25 115.50
  Q 85.25 115.01 85.75 115.01
  L 88.00 115.00
  Q 88.50 115.00 88.50 115.50
  L 88.50 151.00
  Q 88.50 151.50 89.00 151.50
  L 108.78 151.50
  Q 109.30 151.50 109.29 150.97
  L 109.26 150.25
  Q 109.25 149.75 108.75 149.75
  L 91.00 149.75
  Q 90.50 149.75 90.50 149.25
  L 90.50 115.63
  Q 90.50 115.01 91.12 115.01
  L 93.50 115.00
  Q 94.00 115.00 94.00 115.50
  L 94.00 145.75
  Q 94.00 146.25 94.50 146.25
  L 108.75 146.25
  Q 109.26 146.25 109.26 145.73
  C 109.05 131.70 116.07 122.17 131.14 122.67
  Q 131.59 122.69 131.65 122.23
  C 132.48 115.47 128.55 113.24 122.36 113.24
  Q 101.52 113.26 80.72 113.25
  Q 80.00 113.25 80.00 112.53
  L 80.00 110.28
  A 0.54 0.54 0.0 0 1 80.54 109.74
  Q 99.56 109.77 118.55 109.73
  Q 126.68 109.71 129.31 110.83
  Q 135.57 113.47 135.02 122.21
  Q 134.98 122.88 135.65 122.88
  L 136.36 122.89
  Q 136.99 122.89 137.01 122.26
  Q 137.43 112.77 130.60 109.49
  Q 127.41 107.97 119.21 107.98
  Q 99.85 108.03 80.51 107.99
  Q 80.00 107.99 80.00 107.48
  L 80.00 105.27
  Q 80.00 104.74 80.54 104.74
  Q 102.02 104.77 123.49 104.72
  Q 128.43 104.70 131.33 105.97
  Q 140.98 110.17 140.48 122.23
  Q 140.46 122.86 141.08 122.81
  L 141.68 122.76
  Q 142.12 122.73 142.15 122.29
  C 142.91 110.61 136.25 102.93 124.78 102.97
  Q 102.61 103.04 80.50 102.98
  Q 80.00 102.98 80.00 102.47
  L 80.00 100.02
  Q 80.01 99.49 80.54 99.49
  Q 102.37 99.54 124.19 99.46
  C 138.01 99.41 146.34 107.92 145.52 122.25
  A 0.50 0.50 0.0 0 0 146.04 122.79
  L 146.45 122.77
  Q 147.16 122.74 147.10 122.03
  C 145.96 108.16 153.89 99.42 167.37 99.47
  Q 189.30 99.54 211.21 99.49
  A 0.52 0.52 0.0 0 1 211.74 100.01
  L 211.76 102.49
  Q 211.77 102.99 211.26 102.99
  Q 189.64 103.01 168.03 103.00
  Q 162.36 103.00 159.64 104.17
  C 152.71 107.15 149.00 114.83 150.89 122.19
  Q 151.03 122.72 151.56 122.81
  L 151.90 122.87
  Q 152.55 122.98 152.45 122.33
  C 150.83 111.77 156.62 104.71 166.99 104.73
  Q 189.10 104.77 211.17 104.74
  Q 211.74 104.74 211.74 105.30
  L 211.76 107.44
  Q 211.77 108.03 211.17 108.03
  Q 177.43 107.92 165.81 108.04
  C 158.54 108.11 153.96 115.39 156.21 122.13
  A 1.09 1.08 -1.0 0 0 156.94 122.83
  Q 157.67 123.03 157.89 122.66
  Q 158.02 122.44 157.87 121.95
  C 155.68 114.57 159.58 109.99 166.72 109.99
  Q 189.00 110.00 211.24 110.00
  Q 211.75 110.00 211.75 110.52
  L 211.75 112.74
  Q 211.75 113.24 211.24 113.24
  Q 188.37 113.26 165.50 113.25
  C 160.73 113.24 159.14 119.39 162.76 122.41
  A 1.37 1.36 -24.7 0 0 163.64 122.73
  Q 177.19 122.81 190.74 122.72
  Q 196.82 122.69 200.11 123.97
  C 216.37 130.33 215.52 152.95 199.46 158.96
  C 194.61 160.77 187.88 159.95 182.48 160.01
  Q 182.00 160.02 182.00 160.51
  L 182.00 171.78
  A 0.44 0.44 0.0 0 1 181.30 172.13
  L 178.95 170.37
  Q 178.49 170.02 178.49 169.44
  C 178.52 161.76 178.33 154.10 178.76 146.44
  C 179.21 138.36 176.76 130.79 169.09 127.47
  Q 165.73 126.01 158.20 126.01
  Q 145.70 126.00 133.20 125.99
  C 124.35 125.99 117.63 127.55 114.14 135.78
  Q 112.73 139.11 112.73 145.92
  Q 112.74 153.81 112.77 161.69
  C 112.80 170.01 114.81 176.32 122.52 179.56
  Q 125.63 180.86 131.65 180.82
  Q 147.55 180.70 163.42 180.75
  C 166.59 180.76 168.27 181.77 170.39 183.81
  Q 170.84 184.24 170.22 184.24
  Q 150.44 184.27 130.68 184.24
  Q 124.59 184.23 121.25 182.90
  C 111.99 179.20 108.73 170.25 109.31 160.59
  Q 109.35 160.00 108.76 160.00
  Z
  M 198.53 128.83
  C 208.92 133.32 209.48 148.32 199.55 153.50
  C 195.12 155.81 187.93 155.05 182.56 154.98
  Q 181.97 154.98 181.98 155.56
  L 181.98 156.04
  Q 181.98 156.56 182.50 156.59
  Q 192.87 157.18 196.00 156.44
  C 210.82 152.92 213.19 132.77 198.78 127.10
  Q 196.07 126.04 190.07 126.01
  Q 182.61 125.97 174.63 126.02
  A 0.36 0.36 0.0 0 0 174.39 126.64
  C 175.09 127.29 175.93 127.74 176.96 127.74
  Q 183.63 127.75 190.30 127.75
  Q 196.04 127.75 198.53 128.83
  Z
  M 197.60 134.09
  C 204.17 137.73 202.05 149.78 194.00 149.75
  Q 188.26 149.73 182.51 149.76
  Q 181.98 149.76 181.99 150.28
  L 182.00 151.19
  Q 182.01 151.74 182.57 151.75
  Q 187.28 151.77 192.01 151.77
  C 206.39 151.77 207.27 131.51 192.54 131.28
  Q 186.05 131.18 179.52 131.28
  Q 178.91 131.29 179.21 131.82
  L 179.61 132.53
  Q 179.87 132.99 180.40 133.00
  C 184.98 133.01 193.87 132.03 197.60 134.09
  Z
  M 196.72 144.85
  C 200.00 141.76 197.58 136.54 192.95 136.51
  Q 187.52 136.47 182.04 136.51
  Q 181.67 136.51 181.68 136.88
  L 182.12 145.85
  A 0.39 0.39 0.0 0 0 182.51 146.22
  C 185.87 146.29 194.25 147.18 196.72 144.85
  Z"
/>
<rect fill="#ffffff" x="222.50" y="99.50" width="65.26" height="3.76" rx="0.33"/>
<rect fill="#ffffff" x="4.00" y="105.00" width="65.50" height="4.00" rx="0.32"/>
<rect fill="#ffffff" x="222.49" y="105.00" width="65.26" height="4.00" rx="0.39"/>
<rect fill="#ffffff" x="4.00" y="110.74" width="65.50" height="3.76" rx="0.37"/>
<rect fill="#ffffff" x="222.51" y="110.74" width="65.24" height="3.76" rx="0.35"/>
<rect fill="#ffffff" x="4.00" y="116.25" width="65.50" height="4.00" rx="0.35"/>
<rect fill="#ffffff" x="222.50" y="116.25" width="65.26" height="4.00" rx="0.35"/>
<rect fill="#ffffff" x="4.00" y="122.00" width="65.50" height="3.74" rx="0.35"/>
<rect fill="#ffffff" x="222.49" y="122.00" width="65.26" height="3.74" rx="0.36"/>
<rect fill="#ffffff" x="4.00" y="127.50" width="65.50" height="4.00" rx="0.37"/>
<rect fill="#ffffff" x="222.50" y="127.50" width="65.26" height="4.00" rx="0.35"/>
<path fill="#ffffff" d="
  M 172.37 137.95
  C 171.00 134.98 167.49 131.48 163.74 131.45
  Q 148.05 131.30 132.32 131.24
  Q 126.54 131.22 123.90 132.64
  C 119.34 135.09 118.02 139.09 118.01 144.42
  Q 118.00 152.42 117.99 160.42
  Q 117.97 167.09 119.43 169.85
  C 121.93 174.57 126.01 175.76 131.46 175.75
  Q 143.81 175.75 156.16 175.73
  C 159.31 175.72 161.11 176.71 163.23 178.72
  Q 163.77 179.24 163.02 179.24
  Q 148.04 179.26 133.12 179.26
  Q 126.28 179.27 123.09 177.84
  C 115.94 174.63 114.48 168.67 114.50 160.82
  Q 114.52 154.06 114.49 147.31
  Q 114.46 139.65 115.88 136.39
  Q 118.08 131.35 123.20 129.06
  Q 126.20 127.73 132.00 127.74
  Q 145.37 127.78 158.73 127.72
  Q 164.98 127.69 168.09 129.04
  C 175.99 132.46 177.02 139.04 177.01 147.56
  Q 177.01 157.91 176.99 168.27
  Q 176.99 169.05 176.35 168.60
  L 173.94 166.86
  Q 173.50 166.54 173.50 166.00
  Q 173.50 156.10 173.50 146.21
  Q 173.50 140.40 172.37 137.95
  Z"
/>
<path fill="#ffffff" d="
  M 162.84 160.58
  L 187.81 178.21
  Q 188.24 178.51 188.24 179.04
  L 188.25 182.03
  A 0.43 0.42 17.1 0 1 187.58 182.38
  L 142.93 150.83
  Q 142.50 150.53 142.50 150.01
  L 142.50 147.00
  Q 142.50 146.50 143.00 146.50
  L 167.27 146.50
  Q 167.80 146.50 167.92 145.98
  C 169.20 140.48 166.39 136.50 160.79 136.50
  Q 146.38 136.51 132.02 136.48
  C 126.11 136.47 123.28 138.23 123.26 144.26
  Q 123.24 152.92 123.25 161.61
  C 123.26 168.02 125.20 170.56 131.59 170.52
  Q 140.59 170.46 149.58 170.52
  C 152.32 170.54 153.80 171.92 155.84 173.42
  Q 156.57 173.95 155.67 173.96
  Q 144.03 174.08 132.46 173.99
  C 123.38 173.91 119.79 170.64 119.76 161.74
  Q 119.74 154.41 119.75 147.07
  C 119.76 138.14 121.76 132.99 131.34 133.00
  Q 144.70 133.01 158.05 132.99
  C 163.95 132.98 168.22 133.33 170.62 138.62
  Q 171.53 140.62 171.51 144.53
  Q 171.45 154.31 171.52 164.09
  Q 171.53 164.61 171.03 164.48
  Q 167.81 163.66 167.94 160.47
  Q 167.95 160.00 167.48 160.00
  L 163.02 160.01
  Q 162.02 160.01 162.84 160.58
  Z
  M 149.92 151.35
  Q 155.21 151.73 167.55 151.42
  Q 168.00 151.41 168.01 150.95
  L 168.01 150.25
  Q 168.01 149.75 167.50 149.75
  L 148.30 149.75
  Q 147.96 149.75 148.16 150.02
  Q 149.09 151.29 149.92 151.35
  Z
  M 168.01 156.35
  L 168.03 155.29
  A 0.25 0.25 0.0 0 0 167.78 155.03
  L 159.23 154.93
  A 3.78 0.68 0.7 0 0 155.44 155.56
  L 155.44 155.76
  A 3.78 0.68 0.7 0 0 159.21 156.49
  L 167.76 156.59
  A 0.25 0.25 0.0 0 0 168.01 156.35
  Z"
/>
<rect fill="#ffffff" x="4.00" y="133.26" width="65.50" height="3.74" rx="0.35"/>
<rect fill="#ffffff" x="222.49" y="133.26" width="65.26" height="3.74" rx="0.40"/>
<rect fill="#ffffff" x="4.00" y="138.75" width="65.50" height="4.00" rx="0.38"/>
<rect fill="#ffffff" x="222.49" y="138.75" width="65.26" height="4.00" rx="0.36"/>
<rect fill="#ffffff" x="4.00" y="144.49" width="65.50" height="3.76" rx="0.36"/>
<rect fill="#ffffff" x="222.50" y="144.49" width="65.26" height="3.76" rx="0.34"/>
<rect fill="#ffffff" x="4.00" y="150.00" width="65.50" height="3.74" rx="0.36"/>
<rect fill="#ffffff" x="222.49" y="150.00" width="65.26" height="3.74" rx="0.36"/>
<path fill="#ffffff" d="
  M 187.78 188.40
  L 142.63 156.52
  A 0.30 0.30 0.0 0 1 142.50 156.27
  L 142.51 152.69
  A 0.30 0.30 0.0 0 1 142.98 152.44
  L 188.12 184.33
  A 0.30 0.30 0.0 0 1 188.25 184.58
  L 188.25 188.15
  A 0.30 0.30 0.0 0 1 187.78 188.40
  Z"
/>
<rect fill="#ffffff" x="4.00" y="155.76" width="65.50" height="3.74" rx="0.35"/>
<rect fill="#ffffff" x="222.51" y="155.76" width="65.24" height="3.74" rx="0.35"/>
<path fill="#ffffff" d="
  M 187.73 194.31
  L 142.64 162.46
  A 0.33 0.33 0.0 0 1 142.50 162.19
  L 142.51 158.69
  A 0.33 0.33 0.0 0 1 143.03 158.42
  L 188.11 190.27
  A 0.33 0.33 0.0 0 1 188.25 190.54
  L 188.25 194.04
  A 0.33 0.33 0.0 0 1 187.73 194.31
  Z"
/>
<path fill="#ffffff" d="
  M 257.46 161.10
  C 251.51 182.19 238.23 201.61 222.10 215.59
  C 158.47 270.75 59.10 241.85 34.03 161.15
  A 0.50 0.50 0.0 0 1 34.51 160.50
  L 59.46 160.50
  Q 59.97 160.50 60.17 160.97
  C 93.03 236.56 198.66 238.22 230.54 160.82
  Q 230.67 160.50 231.02 160.50
  L 257.01 160.50
  A 0.47 0.47 0.0 0 1 257.46 161.10
  Z
  M 107.5110 217.4175
  A 1.94 1.94 0.0 0 0 106.5547 214.8460
  L 106.4638 214.8043
  A 1.94 1.94 0.0 0 0 103.8923 215.7607
  L 98.4890 227.5625
  A 1.94 1.94 0.0 0 0 99.4453 230.1340
  L 99.5362 230.1757
  A 1.94 1.94 0.0 0 0 102.1077 229.2193
  L 107.5110 217.4175
  Z
  M 188.97 219.73
  Q 190.92 224.41 193.27 228.91
  C 194.07 230.44 195.54 230.75 196.67 229.39
  A 1.75 1.74 -36.8 0 0 196.94 227.57
  C 195.31 223.81 193.23 220.01 191.73 216.07
  C 190.73 213.45 187.25 215.34 185.77 216.58
  Q 185.39 216.90 185.28 217.37
  Q 184.95 218.90 186.20 219.43
  C 186.92 219.73 187.53 219.40 188.25 219.31
  Q 188.77 219.24 188.97 219.73
  Z
  M 113.28 221.54
  Q 115.02 221.77 116.32 222.98
  A 1.62 1.61 -66.1 0 0 119.03 221.93
  C 119.49 216.59 105.99 215.92 108.11 223.91
  C 108.66 225.98 111.11 227.25 112.66 228.76
  A 1.40 1.39 -12.9 0 1 111.21 231.07
  Q 109.31 230.38 107.72 229.04
  A 1.72 1.72 0.0 0 0 105.02 229.69
  C 103.40 233.54 113.61 237.26 116.48 232.37
  C 118.56 228.83 116.06 225.18 112.67 223.80
  A 1.18 1.18 0.0 0 1 113.28 221.54
  Z
  M 183.7673 235.2968
  A 8.86 7.03 71.8 0 0 187.6783 224.6843
  A 8.86 7.03 71.8 0 0 178.2327 218.4632
  A 8.86 7.03 71.8 0 0 174.3217 229.0757
  A 8.86 7.03 71.8 0 0 183.7673 235.2968
  Z
  M 125.9292 239.0440
  A 8.81 8.23 100.8 0 0 135.6642 231.9321
  A 8.81 8.23 100.8 0 0 129.2308 221.7360
  A 8.81 8.23 100.8 0 0 119.4958 228.8479
  A 8.81 8.23 100.8 0 0 125.9292 239.0440
  Z
  M 167.1323 239.4485
  A 8.86 7.03 80.5 0 0 172.6036 229.5497
  A 8.86 7.03 80.5 0 0 164.2077 221.9715
  A 8.86 7.03 80.5 0 0 158.7364 231.8703
  A 8.86 7.03 80.5 0 0 167.1323 239.4485
  Z
  M 149.74 234.59
  A 0.71 0.71 0.0 0 1 150.21 235.88
  Q 147.97 237.42 148.15 239.94
  A 1.35 1.34 70.9 0 0 150.25 240.96
  C 154.30 238.17 159.32 230.55 156.01 225.60
  Q 154.03 222.64 149.81 223.59
  C 143.43 225.03 144.00 235.09 149.74 234.59
  Z"
/>
<rect fill="#00FF0000" x="-1.99" y="-8.43" transform="translate(103.00,222.49) rotate(24.6)" width="3.98" height="16.86" rx="1.94"/>
<path fill="#00FF0000" d="
  M 188.25 219.31
  C 187.53 219.40 186.92 219.73 186.20 219.43
  Q 184.95 218.90 185.28 217.37
  Q 185.39 216.90 185.77 216.58
  C 187.25 215.34 190.73 213.45 191.73 216.07
  C 193.23 220.01 195.31 223.81 196.94 227.57
  A 1.75 1.74 -36.8 0 1 196.67 229.39
  C 195.54 230.75 194.07 230.44 193.27 228.91
  Q 190.92 224.41 188.97 219.73
  Q 188.77 219.24 188.25 219.31
  Z"
/>
<path fill="#00FF0000" d="
  M 113.28 221.54
  A 1.18 1.18 0.0 0 0 112.67 223.80
  C 116.06 225.18 118.56 228.83 116.48 232.37
  C 113.61 237.26 103.40 233.54 105.02 229.69
  A 1.72 1.72 0.0 0 1 107.72 229.04
  Q 109.31 230.38 111.21 231.07
  A 1.40 1.39 -12.9 0 0 112.66 228.76
  C 111.11 227.25 108.66 225.98 108.11 223.91
  C 105.99 215.92 119.49 216.59 119.03 221.93
  A 1.62 1.61 -66.1 0 1 116.32 222.98
  Q 115.02 221.77 113.28 221.54
  Z"
/>
<path fill="#00FF0000" d="
  M 183.7673 235.2968
  A 8.86 7.03 71.8 0 1 174.3217 229.0757
  A 8.86 7.03 71.8 0 1 178.2327 218.4632
  A 8.86 7.03 71.8 0 1 187.6783 224.6843
  A 8.86 7.03 71.8 0 1 183.7673 235.2968
  Z
  M 182.6259 231.6439
  A 5.04 2.82 71.3 0 0 183.6811 225.9659
  A 5.04 2.82 71.3 0 0 179.3941 222.0961
  A 5.04 2.82 71.3 0 0 178.3389 227.7741
  A 5.04 2.82 71.3 0 0 182.6259 231.6439
  Z"
/>
<path fill="#00FF0000" d="
  M 125.9292 239.0440
  A 8.81 8.23 100.8 0 1 119.4958 228.8479
  A 8.81 8.23 100.8 0 1 129.2308 221.7360
  A 8.81 8.23 100.8 0 1 135.6642 231.9321
  A 8.81 8.23 100.8 0 1 125.9292 239.0440
  Z
  M 126.5911 235.2204
  A 4.96 3.85 101.5 0 0 131.3527 231.1276
  A 4.96 3.85 101.5 0 0 128.5689 225.4996
  A 4.96 3.85 101.5 0 0 123.8073 229.5924
  A 4.96 3.85 101.5 0 0 126.5911 235.2204
  Z"
/>
<path fill="#00FF0000" d="
  M 167.1323 239.4485
  A 8.86 7.03 80.5 0 1 158.7364 231.8703
  A 8.86 7.03 80.5 0 1 164.2077 221.9715
  A 8.86 7.03 80.5 0 1 172.6036 229.5497
  A 8.86 7.03 80.5 0 1 167.1323 239.4485
  Z
  M 166.5330 235.6860
  A 5.07 2.83 80.2 0 0 168.4587 230.2083
  A 5.07 2.83 80.2 0 0 164.8070 225.6940
  A 5.07 2.83 80.2 0 0 162.8813 231.1717
  A 5.07 2.83 80.2 0 0 166.5330 235.6860
  Z"
/>
<ellipse fill="#ffffff" cx="0.00" cy="0.00" transform="translate(181.01,226.87) rotate(71.3)" rx="5.04" ry="2.82"/>
<path fill="#00FF0000" d="
  M 149.74 234.59
  C 144.00 235.09 143.43 225.03 149.81 223.59
  Q 154.03 222.64 156.01 225.60
  C 159.32 230.55 154.30 238.17 150.25 240.96
  A 1.35 1.34 70.9 0 1 148.15 239.94
  Q 147.97 237.42 150.21 235.88
  A 0.71 0.71 0.0 0 0 149.74 234.59
  Z
  M 153.11 229.25
  A 1.97 1.97 0.0 0 0 151.14 227.28
  A 1.97 1.97 0.0 0 0 149.17 229.25
  A 1.97 1.97 0.0 0 0 151.14 231.22
  A 1.97 1.97 0.0 0 0 153.11 229.25
  Z"
/>
<ellipse fill="#ffffff" cx="0.00" cy="0.00" transform="translate(127.58,230.36) rotate(101.5)" rx="4.96" ry="3.85"/>
<ellipse fill="#ffffff" cx="0.00" cy="0.00" transform="translate(165.67,230.69) rotate(80.2)" rx="5.07" ry="2.83"/>
<circle fill="#ffffff" cx="151.14" cy="229.25" r="1.97"/>
</svg>
