<?xml version="1.0" encoding="UTF-8" standalone="no"?>
<!DOCTYPE svg PUBLIC "-//W3C//DTD SVG 1.1//EN" "http://www.w3.org/Graphics/SVG/1.1/DTD/svg11.dtd">
<svg xmlns="http://www.w3.org/2000/svg" version="1.1" viewBox="0.00 0.00 1280.00 277.00">
<path fill="#ffffff" d="
  M 795.36 94.32
  A 0.83 0.83 0.0 0 0 794.53 93.52
  L 744.91 93.47
  A 0.90 0.90 0.0 0 0 744.01 94.37
  L 744.02 183.10
  A 1.38 1.37 -90.0 0 1 742.65 184.48
  L 707.16 184.39
  Q 705.80 184.39 705.80 183.04
  L 705.82 94.79
  A 1.28 1.28 0.0 0 0 704.54 93.51
  L 689.47 93.48
  A 0.76 0.75 -90.0 0 1 688.72 92.72
  L 688.72 57.72
  A 0.95 0.94 -89.7 0 1 689.67 56.77
  L 704.76 56.91
  A 0.98 0.97 0.0 0 0 705.74 55.94
  C 705.73 30.90 716.27 11.49 741.39 4.40
  Q 753.67 0.93 766.54 2.18
  A 1.11 1.10 3.1 0 1 767.54 3.29
  L 767.42 37.95
  A 0.75 0.75 0.0 0 1 766.60 38.70
  C 754.94 37.54 743.49 42.36 744.14 55.94
  A 0.97 0.97 0.0 0 0 745.11 56.86
  L 794.47 56.86
  A 1.15 1.15 0.0 0 0 795.62 55.71
  L 795.60 33.98
  A 1.69 1.69 0.0 0 1 796.81 32.36
  L 833.02 21.45
  A 0.68 0.67 81.7 0 1 833.88 22.10
  L 833.91 56.27
  Q 833.91 56.88 834.52 56.88
  L 858.93 56.81
  A 1.12 1.11 90.0 0 1 860.04 57.93
  L 860.05 92.60
  A 0.91 0.90 90.0 0 1 859.15 93.51
  L 834.97 93.43
  A 1.09 1.08 0.3 0 0 833.88 94.50
  Q 833.72 116.80 833.85 139.01
  C 833.93 151.58 849.96 150.51 858.43 149.77
  Q 860.03 149.63 860.03 151.24
  L 860.09 183.55
  A 0.64 0.64 0.0 0 1 859.56 184.18
  C 844.94 186.49 823.73 186.51 811.31 178.52
  C 799.72 171.08 796.37 157.64 795.84 144.30
  C 795.17 127.63 795.98 110.89 795.36 94.32
  Z"
/>
<path fill="#ffffff" d="
  M 1280.00 90.09
  L 1280.00 184.02
  L 1244.89 184.14
  A 1.27 1.27 0.0 0 1 1243.62 182.86
  Q 1243.71 151.06 1243.64 119.14
  Q 1243.62 105.86 1242.04 101.56
  C 1238.42 91.68 1228.70 87.74 1218.61 88.48
  C 1202.16 89.69 1197.42 103.31 1197.42 118.00
  Q 1197.44 150.72 1197.53 183.05
  A 1.19 1.19 0.0 0 1 1196.34 184.25
  L 1160.62 184.21
  A 1.06 1.06 0.0 0 1 1159.56 183.15
  L 1159.55 6.56
  A 0.77 0.77 0.0 0 1 1160.32 5.79
  L 1196.40 5.72
  A 1.17 1.17 0.0 0 1 1197.57 6.90
  L 1197.26 67.52
  A 0.70 0.70 0.0 0 0 1198.50 67.96
  C 1209.30 54.70 1230.22 50.96 1246.09 54.86
  Q 1272.62 61.37 1280.00 90.09
  Z"
/>
<path fill="#ffffff" d="
  M 184.12 41.49
  C 169.38 62.73 159.89 87.27 155.12 112.60
  A 1.18 1.18 0.0 0 1 154.13 113.54
  C 98.46 121.27 42.94 103.54 1.99 65.29
  A 0.94 0.93 -46.0 0 1 1.97 63.94
  L 44.16 21.92
  A 0.88 0.88 0.0 0 1 45.36 21.88
  C 84.12 56.17 137.02 63.52 183.53 40.81
  A 0.47 0.46 4.1 0 1 184.12 41.49
  Z"
/>
<path fill="#ffffff" d="
  M 235.18 204.13
  C 212.85 189.54 189.55 180.35 164.11 175.19
  A 1.23 1.22 2.4 0 1 163.14 174.15
  C 155.60 118.24 172.74 63.64 211.07 22.15
  A 0.91 0.90 32.6 0 1 212.09 21.93
  Q 212.96 22.31 213.82 23.17
  Q 234.21 43.68 254.77 64.26
  A 0.84 0.84 0.0 0 1 254.80 65.42
  C 224.05 99.00 214.51 146.69 229.72 189.84
  C 231.22 194.09 233.49 199.07 235.69 203.68
  A 0.35 0.35 0.0 0 1 235.18 204.13
  Z"
/>
<path fill="#ffffff" d="
  M 401.82 66.94
  Q 401.79 68.79 402.91 67.33
  Q 409.05 59.39 418.51 56.26
  C 436.48 50.31 457.13 53.00 468.46 68.95
  A 1.01 1.00 -43.0 0 0 470.06 69.00
  C 480.80 55.84 495.79 52.42 511.95 53.77
  C 530.12 55.28 544.63 66.14 550.95 83.51
  C 553.74 91.15 554.51 98.61 554.52 107.61
  Q 554.57 145.45 554.53 183.23
  A 1.11 1.11 0.0 0 1 553.42 184.34
  L 517.77 184.31
  A 1.14 1.14 0.0 0 1 516.63 183.17
  Q 516.50 147.30 516.74 111.25
  C 516.83 97.63 510.18 86.29 494.98 88.79
  C 481.18 91.06 478.43 101.91 478.42 114.47
  Q 478.39 148.50 478.46 182.87
  A 1.51 1.51 0.0 0 1 476.95 184.39
  L 441.32 184.28
  A 1.08 1.08 0.0 0 1 440.25 183.20
  Q 440.27 150.22 440.24 117.04
  Q 440.23 104.12 438.63 99.70
  C 433.37 85.14 411.99 84.59 404.96 98.21
  C 402.68 102.62 401.96 106.99 401.92 112.40
  Q 401.69 146.97 401.95 182.76
  A 1.53 1.53 0.0 0 1 400.42 184.30
  L 364.88 184.32
  A 1.20 1.20 0.0 0 1 363.68 183.12
  L 363.65 58.22
  A 1.47 1.46 -89.8 0 1 365.12 56.75
  L 400.15 56.78
  Q 402.03 56.78 401.99 58.66
  L 401.82 66.94
  Z"
/>
<path fill="#ffffff" d="
  M 639.79 148.62
  C 642.81 142.48 635.21 139.59 630.75 138.32
  C 609.91 132.38 581.27 126.27 578.15 100.53
  C 575.58 79.28 587.62 62.33 607.78 56.38
  C 633.91 48.66 662.06 55.70 676.89 79.68
  Q 677.47 80.61 676.51 81.13
  L 645.74 97.72
  A 0.86 0.85 58.4 0 1 644.63 97.45
  C 639.49 90.07 633.87 85.59 624.25 87.22
  C 621.52 87.69 619.05 89.03 617.69 91.50
  C 613.90 98.35 625.65 101.65 630.79 102.77
  Q 647.00 106.32 660.24 112.95
  C 677.41 121.56 682.94 140.77 678.00 158.50
  C 669.73 188.13 628.12 192.02 604.25 184.93
  Q 584.22 178.98 572.53 159.32
  A 1.71 1.71 0.0 0 1 573.16 156.96
  L 604.18 139.32
  A 0.94 0.94 0.0 0 1 605.52 139.81
  C 608.48 147.88 615.04 152.62 623.54 153.74
  C 628.61 154.41 637.16 153.97 639.79 148.62
  Z"
/>
<path fill="#ffffff" d="
  M 913.79 137.04
  C 918.74 151.49 936.50 155.54 950.01 153.38
  Q 960.17 151.75 967.41 145.08
  A 1.87 1.86 38.5 0 1 969.60 144.84
  L 997.70 160.99
  A 1.19 1.19 0.0 0 1 998.07 162.72
  Q 986.09 178.91 966.45 184.54
  C 938.08 192.67 904.65 186.42 886.18 162.15
  C 870.69 141.79 868.79 112.00 879.99 89.40
  Q 892.65 63.85 920.23 56.23
  C 955.06 46.60 990.11 62.39 1001.64 97.47
  C 1005.50 109.21 1005.90 122.02 1004.17 134.43
  Q 1003.97 135.84 1002.55 135.84
  L 914.75 135.71
  Q 913.34 135.71 913.79 137.04
  Z
  M 966.92 106.36
  C 960.12 80.40 918.89 80.39 912.90 106.66
  Q 912.67 107.65 913.69 107.65
  L 966.00 107.55
  A 0.95 0.95 0.0 0 0 966.92 106.36
  Z"
/>
<path fill="#ffffff" d="
  M 1089.41 91.12
  C 1048.69 87.44 1045.85 150.10 1086.24 150.28
  Q 1102.55 150.36 1110.78 136.68
  A 0.70 0.70 0.0 0 1 1111.73 136.43
  L 1142.61 154.13
  Q 1144.42 155.17 1143.30 156.92
  C 1126.59 183.01 1095.00 194.21 1065.45 184.77
  C 1025.79 172.10 1008.64 127.77 1025.72 91.03
  C 1039.28 61.86 1071.65 48.03 1102.71 55.41
  Q 1128.79 61.61 1143.68 84.52
  A 1.43 1.42 -31.8 0 1 1143.20 86.53
  L 1111.80 104.81
  Q 1111.24 105.14 1110.88 104.60
  Q 1102.66 92.32 1089.41 91.12
  Z"
/>
<path fill="#ffffff" d="
  M 94.98 154.26
  C 93.77 199.21 75.74 241.99 45.37 274.91
  A 0.86 0.86 0.0 0 1 44.13 274.93
  L 1.72 232.46
  A 0.85 0.85 0.0 0 1 1.69 231.29
  C 36.00 193.63 43.79 138.98 20.92 93.32
  A 0.46 0.46 0.0 0 1 21.59 92.73
  Q 52.37 113.27 88.45 120.51
  C 91.21 121.07 93.58 120.79 93.90 124.39
  Q 95.35 140.44 94.98 154.26
  Z"
/>
<path fill="#ffffff" d="
  M 210.74 274.63
  C 178.75 245.51 134.24 236.23 93.02 247.98
  C 86.68 249.79 79.94 252.83 73.48 255.69
  A 0.35 0.35 0.0 0 1 73.03 255.19
  C 78.29 246.09 84.06 236.57 87.98 227.56
  Q 96.95 206.93 101.34 184.65
  A 1.93 1.92 1.4 0 1 102.97 183.11
  C 158.82 175.62 213.45 193.21 254.62 231.55
  A 0.74 0.74 0.0 0 1 254.64 232.61
  L 212.77 274.58
  A 1.47 1.47 0.0 0 1 210.74 274.63
  Z"
/>
<path fill="#ffffff" d="
  M 692.00 228.73
  L 688.95 233.31
  A 1.22 1.22 0.0 0 1 687.68 233.82
  L 685.96 233.46
  A 1.22 1.22 0.0 0 1 685.12 231.71
  L 687.06 227.93
  A 1.22 1.22 0.0 0 1 687.96 227.28
  L 690.81 226.84
  A 1.22 1.22 0.0 0 1 692.00 228.73
  Z"
/>
<path fill="#ffffff" d="
  M 463.01 271.53
  C 450.96 280.26 436.52 272.15 435.55 258.02
  C 434.73 246.18 443.35 236.49 455.25 237.58
  Q 462.87 238.28 467.24 244.71
  Q 467.55 245.16 467.26 245.62
  Q 465.91 247.84 463.31 248.32
  A 0.70 0.70 0.0 0 1 462.58 247.99
  C 459.35 242.59 452.11 241.48 447.24 244.47
  C 436.85 250.84 440.71 270.95 453.96 270.35
  C 458.15 270.16 464.68 266.90 463.84 261.68
  Q 463.73 260.99 463.03 260.96
  L 456.85 260.69
  A 0.72 0.72 0.0 0 1 456.17 260.03
  L 455.91 257.10
  A 0.75 0.75 0.0 0 1 456.67 256.29
  L 468.37 256.46
  A 0.69 0.69 0.0 0 1 469.05 257.16
  Q 468.94 264.64 468.96 271.90
  Q 468.97 274.02 467.92 274.83
  Q 466.57 275.87 464.45 275.09
  Q 464.00 274.92 463.97 274.44
  L 463.81 271.91
  A 0.51 0.50 -19.5 0 0 463.01 271.53
  Z"
/>
<rect fill="#ffffff" x="684.22" y="237.63" width="5.94" height="37.68" rx="1.27"/>
<path fill="#ffffff" d="
  M 831.20 269.63
  C 835.64 267.26 833.95 262.21 829.48 260.79
  Q 824.50 259.21 819.50 257.77
  C 808.11 254.48 811.17 240.75 821.43 238.18
  Q 830.14 235.99 837.96 241.40
  Q 838.55 241.81 838.20 242.43
  L 836.38 245.64
  A 0.73 0.72 -58.2 0 1 835.34 245.89
  Q 829.63 242.03 822.75 243.07
  C 816.65 243.99 817.18 251.39 822.68 252.91
  C 827.03 254.10 831.86 254.76 835.78 257.11
  C 840.94 260.19 841.19 267.46 837.48 271.50
  C 831.59 277.92 818.73 275.35 812.08 271.60
  A 1.48 1.48 0.0 0 1 811.47 269.67
  L 813.04 266.38
  A 0.75 0.75 0.0 0 1 814.18 266.11
  C 818.21 269.30 826.21 272.28 831.20 269.63
  Z"
/>
<rect fill="#ffffff" x="363.97" y="237.88" width="5.80" height="37.36" rx="1.30"/>
<path fill="#ffffff" d="
  M 414.23 263.58
  L 414.53 238.92
  Q 414.54 237.89 415.58 237.90
  L 419.34 237.95
  A 0.68 0.68 0.0 0 1 420.01 238.63
  L 420.06 274.02
  Q 420.06 274.50 419.64 274.73
  Q 416.44 276.43 414.59 274.16
  Q 404.64 261.97 394.95 249.56
  Q 394.69 249.23 394.24 249.22
  A 0.28 0.28 0.0 0 0 393.96 249.50
  L 394.01 274.20
  A 0.96 0.96 0.0 0 1 393.05 275.16
  L 388.97 275.19
  Q 388.26 275.19 388.26 274.47
  L 388.26 240.25
  A 2.82 2.81 -64.2 0 1 393.28 238.50
  L 413.39 263.86
  A 0.47 0.47 0.0 0 0 414.23 263.58
  Z"
/>
<path fill="#ffffff" d="
  M 491.26 270.20
  L 509.38 270.16
  A 0.72 0.72 0.0 0 1 510.10 270.89
  L 510.05 274.20
  A 0.83 0.83 0.0 0 1 509.22 275.02
  L 485.51 275.19
  A 0.93 0.92 89.7 0 1 484.58 274.26
  L 484.59 238.78
  Q 484.59 237.91 485.47 237.91
  L 508.80 237.85
  Q 509.51 237.85 509.51 238.55
  L 509.51 242.26
  Q 509.51 243.02 508.74 243.02
  L 491.49 242.97
  A 1.26 1.26 0.0 0 0 490.23 244.25
  L 490.39 253.20
  A 0.60 0.60 0.0 0 0 491.00 253.79
  Q 497.85 253.72 504.78 253.75
  C 507.35 253.77 507.80 255.23 507.06 257.44
  Q 506.71 258.48 505.61 258.47
  L 491.61 258.32
  Q 490.27 258.31 490.28 259.64
  L 490.34 269.28
  A 0.92 0.91 89.7 0 0 491.26 270.20
  Z"
/>
<path fill="#ffffff" d="
  M 532.18 249.33
  A 0.33 0.33 0.0 0 0 531.76 249.65
  L 531.80 274.32
  Q 531.80 275.19 530.94 275.22
  L 526.48 275.33
  A 0.66 0.66 0.0 0 1 525.80 274.67
  L 525.87 239.68
  A 1.93 1.92 -87.7 0 1 527.95 237.76
  Q 530.65 237.97 531.93 239.58
  Q 541.62 251.86 550.49 263.26
  Q 551.81 264.96 551.83 262.81
  L 551.98 238.84
  A 0.94 0.93 -0.3 0 1 552.91 237.91
  L 556.70 237.90
  A 1.05 1.05 0.0 0 1 557.75 238.95
  L 557.85 273.90
  A 1.28 1.28 0.0 0 1 556.83 275.15
  C 554.26 275.66 553.06 275.32 551.40 273.21
  Q 542.08 261.36 532.60 249.65
  Q 532.39 249.38 532.18 249.33
  Z"
/>
<rect fill="#ffffff" x="-2.89" y="-18.77" transform="translate(578.27,256.63) rotate(0.1)" width="5.78" height="37.54" rx="1.45"/>
<path fill="#ffffff" d="
  M 606.14 253.77
  L 621.09 253.76
  A 1.26 1.25 -88.3 0 1 622.35 255.10
  L 622.19 257.67
  A 0.83 0.82 1.8 0 1 621.36 258.44
  L 606.77 258.32
  A 1.41 1.40 -89.8 0 0 605.36 259.73
  L 605.41 269.06
  A 1.14 1.14 0.0 0 0 606.55 270.19
  L 624.66 270.18
  Q 625.40 270.18 625.39 270.91
  L 625.36 274.19
  A 0.83 0.83 0.0 0 1 624.54 275.01
  L 600.49 275.27
  A 0.79 0.78 -0.4 0 1 599.69 274.49
  L 599.71 238.78
  A 0.89 0.88 -0.0 0 1 600.60 237.90
  L 623.85 237.94
  Q 624.37 237.94 624.56 238.43
  Q 625.33 240.45 624.48 242.44
  Q 624.23 243.02 623.60 243.02
  L 606.50 242.98
  Q 605.24 242.98 605.26 244.25
  L 605.46 253.10
  A 0.68 0.68 0.0 0 0 606.14 253.77
  Z"
/>
<path fill="#ffffff" d="
  M 646.07 262.68
  L 646.08 273.78
  A 1.49 1.48 90.0 0 1 644.60 275.27
  L 641.03 275.27
  A 0.87 0.87 0.0 0 1 640.16 274.41
  L 640.10 238.83
  A 0.97 0.96 -89.7 0 1 641.07 237.86
  Q 647.43 237.88 653.98 237.92
  C 660.95 237.96 666.01 240.20 667.51 247.23
  Q 669.40 256.01 661.46 260.75
  A 0.91 0.91 0.0 0 0 661.16 262.01
  L 668.90 274.27
  Q 669.47 275.17 668.40 275.20
  L 663.43 275.35
  A 1.02 1.01 73.2 0 1 662.53 274.86
  L 655.05 262.70
  A 1.10 1.10 0.0 0 0 654.15 262.18
  L 646.82 261.96
  A 0.73 0.72 0.8 0 0 646.07 262.68
  Z
  M 646.06 244.30
  L 646.04 255.76
  A 1.35 1.35 0.0 0 0 647.39 257.11
  L 655.86 257.12
  A 6.64 6.10 -89.9 0 0 661.97 250.49
  L 661.97 249.61
  A 6.64 6.10 -89.9 0 0 655.88 242.96
  L 647.41 242.95
  A 1.35 1.35 0.0 0 0 646.06 244.30
  Z"
/>
<path fill="#ffffff" d="
  M 714.29 265.78
  L 711.11 274.75
  A 0.83 0.83 0.0 0 1 710.36 275.30
  L 705.96 275.45
  A 0.84 0.84 0.0 0 1 705.14 274.30
  Q 711.61 257.78 718.16 241.34
  C 719.25 238.60 719.27 237.51 722.48 237.86
  C 724.41 238.07 724.92 238.29 725.65 240.21
  Q 732.21 257.40 739.12 274.45
  A 0.57 0.56 -12.5 0 1 738.62 275.22
  L 733.95 275.41
  A 0.95 0.95 0.0 0 1 733.02 274.79
  L 729.83 266.25
  A 2.10 2.10 0.0 0 0 727.88 264.89
  L 715.73 264.77
  A 1.51 1.51 0.0 0 0 714.29 265.78
  Z
  M 716.09 260.35
  A 0.52 0.52 0.0 0 0 716.58 261.05
  L 727.68 261.01
  A 0.52 0.52 0.0 0 0 728.16 260.31
  L 722.56 245.47
  A 0.52 0.52 0.0 0 0 721.59 245.48
  L 716.09 260.35
  Z"
/>
<path fill="#ffffff" d="
  M 780.00 243.81
  L 780.12 252.96
  Q 780.13 253.79 780.96 253.78
  L 795.78 253.73
  Q 796.43 253.73 796.69 254.33
  Q 797.52 256.27 796.53 258.10
  A 0.78 0.77 -74.4 0 1 795.84 258.50
  L 781.00 258.28
  A 0.97 0.97 0.0 0 0 780.01 259.25
  L 780.07 269.07
  A 1.13 1.12 0.0 0 0 781.20 270.19
  L 799.26 270.14
  A 0.71 0.71 0.0 0 1 799.97 270.86
  L 799.92 274.26
  A 0.71 0.71 0.0 0 1 799.22 274.96
  L 775.24 275.24
  A 1.00 1.00 0.0 0 1 774.22 274.23
  L 774.25 238.96
  A 1.05 1.05 0.0 0 1 775.30 237.91
  L 798.36 237.95
  Q 799.03 237.95 799.24 238.59
  Q 799.90 240.63 798.94 242.48
  A 0.93 0.93 0.0 0 1 798.09 243.00
  L 780.81 242.99
  A 0.81 0.80 90.0 0 0 780.00 243.81
  Z"
/>
<path fill="#ffffff" d="
  M 861.05 262.78
  L 861.13 273.93
  A 1.32 1.32 0.0 0 1 859.81 275.26
  L 855.83 275.26
  A 0.69 0.69 0.0 0 1 855.14 274.58
  L 855.03 239.07
  Q 855.03 237.76 856.34 237.80
  C 861.75 237.97 869.17 237.28 873.46 238.34
  C 883.78 240.90 885.52 255.04 876.67 260.60
  C 872.91 262.96 866.18 262.12 861.80 262.04
  A 0.73 0.73 0.0 0 0 861.05 262.78
  Z
  M 861.06 244.24
  L 861.00 255.80
  A 1.33 1.33 0.0 0 0 862.32 257.14
  L 870.24 257.18
  A 6.31 6.09 -89.7 0 0 876.37 250.90
  L 876.37 249.30
  A 6.31 6.09 -89.7 0 0 870.32 242.96
  L 862.40 242.92
  A 1.33 1.33 0.0 0 0 861.06 244.24
  Z"
/>
<path fill="#ffffff" d="
  M 904.20 253.80
  Q 911.23 253.93 918.26 253.82
  C 921.10 253.78 920.94 258.33 918.25 258.35
  Q 911.00 258.42 904.04 258.25
  A 0.77 0.76 0.0 0 0 903.26 259.02
  L 903.30 268.89
  A 1.33 1.33 0.0 0 0 904.64 270.22
  L 922.43 270.16
  Q 923.21 270.15 923.19 270.93
  L 923.11 274.32
  A 0.67 0.66 0.4 0 1 922.44 274.97
  L 898.52 275.19
  A 0.96 0.96 0.0 0 1 897.55 274.23
  L 897.52 238.76
  A 0.86 0.85 0.0 0 1 898.38 237.91
  L 921.96 237.93
  Q 922.62 237.93 922.60 238.59
  L 922.48 242.28
  A 0.74 0.73 0.8 0 1 921.74 242.99
  L 904.39 242.97
  A 1.13 1.13 0.0 0 0 903.25 244.11
  L 903.38 252.97
  Q 903.39 253.78 904.20 253.80
  Z"
/>
<path fill="#ffffff" d="
  M 958.67 243.88
  C 937.88 236.84 936.03 269.37 953.28 270.46
  Q 959.30 270.84 963.24 264.95
  A 0.87 0.87 0.0 0 1 964.10 264.58
  Q 966.62 265.02 968.10 267.13
  A 0.71 0.70 -44.7 0 1 968.09 267.95
  C 962.69 275.20 952.64 277.61 944.91 273.07
  C 932.49 265.78 932.35 246.16 945.57 239.52
  C 953.07 235.75 962.67 237.45 967.34 244.88
  Q 967.62 245.33 967.30 245.75
  Q 965.95 247.56 963.75 248.16
  A 0.82 0.82 0.0 0 1 962.85 247.83
  Q 960.64 244.55 958.67 243.88
  Z"
/>
<rect fill="#ffffff" x="983.77" y="237.82" width="5.78" height="37.56" rx="1.21"/>
<path fill="#ffffff" d="
  M 1028.35 265.78
  A 1.49 1.49 0.0 0 0 1026.98 264.84
  L 1014.68 264.74
  A 1.64 1.63 -79.1 0 0 1013.14 265.79
  L 1009.70 274.80
  A 0.67 0.65 8.6 0 1 1009.11 275.22
  L 1004.39 275.39
  Q 1003.41 275.43 1003.77 274.52
  Q 1010.68 257.11 1017.52 239.76
  C 1018.44 237.44 1021.51 237.11 1023.04 238.35
  Q 1023.83 238.98 1024.67 241.17
  Q 1031.07 257.74 1037.70 274.30
  A 0.64 0.64 0.0 0 1 1037.11 275.18
  L 1032.61 275.25
  A 0.78 0.77 78.4 0 1 1031.88 274.76
  L 1028.35 265.78
  Z
  M 1014.77 260.12
  A 0.70 0.70 0.0 0 0 1015.42 261.06
  L 1026.08 261.08
  A 0.70 0.70 0.0 0 0 1026.74 260.14
  L 1021.43 245.61
  A 0.70 0.70 0.0 0 0 1020.12 245.61
  L 1014.77 260.12
  Z"
/>
<rect fill="#ffffff" x="-2.90" y="-18.74" transform="translate(1094.82,256.58) rotate(-0.1)" width="5.80" height="37.48" rx="1.28"/>
<path fill="#ffffff" d="
  M 1134.49 242.97
  L 1114.51 243.00
  A 0.65 0.64 1.3 0 1 1113.86 242.33
  L 1114.02 238.59
  A 0.66 0.66 0.0 0 1 1114.68 237.96
  L 1141.04 237.92
  A 2.60 2.60 0.0 0 1 1143.08 242.14
  L 1121.96 268.68
  Q 1120.81 270.13 1122.66 270.14
  Q 1131.82 270.19 1142.01 270.20
  Q 1143.64 270.20 1143.21 271.93
  A 0.67 0.67 0.0 0 0 1143.21 272.29
  Q 1143.54 273.50 1143.08 274.50
  Q 1142.85 275.00 1142.30 275.01
  L 1114.70 275.35
  A 1.16 1.15 86.1 0 1 1113.55 274.34
  C 1113.22 271.76 1113.86 270.31 1115.57 268.23
  Q 1125.23 256.46 1135.16 244.39
  A 0.87 0.87 0.0 0 0 1134.49 242.97
  Z"
/>
<path fill="#ffffff" d="
  M 1178.27 264.92
  L 1165.75 264.74
  A 1.44 1.43 11.0 0 0 1164.40 265.65
  Q 1163.10 268.94 1161.80 272.49
  C 1160.60 275.76 1159.24 275.88 1156.05 275.45
  A 1.12 1.12 0.0 0 1 1155.15 273.93
  Q 1161.72 257.25 1168.46 240.23
  Q 1170.11 236.07 1174.51 238.47
  Q 1174.88 238.67 1175.03 239.06
  L 1188.80 274.09
  Q 1189.01 274.64 1188.47 274.89
  Q 1185.92 276.03 1183.95 275.00
  Q 1182.68 274.34 1181.95 271.98
  Q 1180.88 268.55 1179.16 265.46
  A 1.04 1.03 76.0 0 0 1178.27 264.92
  Z
  M 1165.99 260.03
  A 0.71 0.71 0.0 0 0 1166.65 260.99
  L 1177.15 261.04
  A 0.71 0.71 0.0 0 0 1177.82 260.09
  L 1172.65 245.70
  A 0.71 0.71 0.0 0 0 1171.31 245.69
  L 1165.99 260.03
  Z"
/>
<path fill="#ffffff" d="
  M 1203.53 238.77
  A 1.00 1.00 0.0 0 1 1204.54 237.78
  L 1217.32 237.87
  A 17.55 17.54 -89.6 0 1 1234.74 255.54
  L 1234.72 257.70
  A 17.55 17.54 -89.6 0 1 1217.06 275.13
  L 1204.28 275.04
  A 1.00 1.00 0.0 0 1 1203.29 274.03
  L 1203.53 238.77
  Z
  M 1209.02 244.51
  L 1209.02 268.57
  A 1.70 1.70 0.0 0 0 1210.72 270.27
  L 1216.96 270.27
  A 12.38 12.00 90.0 0 0 1228.96 257.89
  L 1228.96 255.19
  A 12.38 12.00 -90.0 0 0 1216.96 242.81
  L 1210.72 242.81
  A 1.70 1.70 0.0 0 0 1209.02 244.51
  Z"
/>
<path fill="#ffffff" d="
  M 1254.59 265.28
  Q 1253.15 268.23 1252.09 271.38
  C 1250.93 274.87 1249.51 276.50 1245.69 275.12
  A 0.93 0.93 0.0 0 1 1245.14 273.90
  Q 1251.64 257.71 1257.83 241.79
  C 1259.17 238.34 1260.59 236.28 1264.47 238.48
  A 1.24 1.23 -86.0 0 1 1265.03 239.13
  L 1278.87 274.65
  Q 1279.19 275.49 1278.30 275.43
  L 1273.77 275.16
  A 0.72 0.72 0.0 0 1 1273.15 274.71
  L 1269.42 265.47
  A 0.98 0.97 -10.4 0 0 1268.53 264.86
  L 1255.54 264.70
  A 1.04 1.04 0.0 0 0 1254.59 265.28
  Z
  M 1256.03 260.01
  A 0.76 0.76 0.0 0 0 1256.75 261.03
  L 1267.17 261.05
  A 0.76 0.76 0.0 0 0 1267.89 260.03
  L 1262.70 245.59
  A 0.76 0.76 0.0 0 0 1261.27 245.59
  L 1256.03 260.01
  Z"
/>
<path fill="#ffffff" d="
  M 1058.06 269.00
  A 1.22 1.21 89.3 0 0 1059.29 270.21
  Q 1067.91 270.10 1076.76 270.32
  Q 1078.92 270.37 1078.45 273.70
  Q 1078.27 274.99 1076.96 275.01
  L 1053.02 275.28
  A 0.76 0.76 0.0 0 1 1052.25 274.52
  L 1052.30 239.35
  A 1.36 1.36 0.0 0 1 1053.62 237.99
  L 1056.68 237.91
  A 1.27 1.27 0.0 0 1 1057.98 239.18
  L 1058.06 269.00
  Z"
/>
</svg>
