<?xml version="1.0" encoding="UTF-8" standalone="no"?>
<!DOCTYPE svg PUBLIC "-//W3C//DTD SVG 1.1//EN" "http://www.w3.org/Graphics/SVG/1.1/DTD/svg11.dtd">
<svg xmlns="http://www.w3.org/2000/svg" version="1.1" viewBox="0.00 0.00 1331.00 291.00">
<g stroke-width="2.00" fill="none" stroke-linecap="butt">
<path stroke="#00FF0000" vector-effect="non-scaling-stroke" d="
  M 772.71 60.85
  C 772.63 45.99 783.66 42.68 796.41 43.56
  A 0.55 0.55 0.0 0 0 797.00 43.01
  L 797.00 5.78
  Q 797.00 5.41 796.63 5.37
  Q 779.23 3.68 765.08 8.58
  C 741.68 16.69 733.26 37.01 732.66 60.74
  Q 732.64 61.36 732.02 61.36
  L 715.67 61.35
  A 0.48 0.48 0.0 0 0 715.19 61.83
  L 715.18 99.24
  A 0.56 0.56 0.0 0 0 715.74 99.80
  L 732.28 99.82
  Q 732.58 99.82 732.58 100.12
  L 732.58 192.99
  Q 732.58 193.64 733.24 193.64
  L 771.96 193.62
  Q 772.52 193.62 772.53 193.04
  L 772.64 100.40
  Q 772.64 99.82 773.22 99.82
  L 825.00 99.82
  Q 825.56 99.82 825.56 100.38
  Q 825.59 124.07 825.68 147.75
  C 825.79 174.98 835.04 190.46 862.80 193.85
  Q 877.38 195.63 892.09 193.41
  Q 892.64 193.33 892.64 192.77
  L 892.65 158.00
  A 0.80 0.79 -2.9 0 0 891.77 157.21
  Q 883.67 158.06 875.90 157.05
  C 869.09 156.16 865.69 152.78 865.68 145.93
  Q 865.64 123.22 865.66 100.40
  Q 865.66 99.81 866.24 99.81
  L 892.17 99.81
  Q 892.66 99.81 892.66 99.33
  L 892.64 62.00
  Q 892.64 61.35 892.00 61.35
  L 866.27 61.38
  A 0.61 0.61 0.0 0 1 865.66 60.77
  L 865.65 25.18
  Q 865.65 24.47 864.97 24.67
  L 826.16 36.33
  Q 825.58 36.50 825.58 37.10
  L 825.58 60.76
  Q 825.58 61.35 824.99 61.35
  L 773.21 61.34
  Q 772.71 61.34 772.71 60.85"
/>
<path stroke="#00FF0000" vector-effect="non-scaling-stroke" d="
  M 1241.81 72.55
  L 1241.81 9.53
  Q 1241.81 8.99 1241.28 8.99
  L 1202.63 8.99
  Q 1202.00 8.99 1202.00 9.62
  L 1202.00 193.06
  Q 1202.00 193.63 1202.56 193.63
  L 1241.25 193.59
  Q 1241.78 193.59 1241.78 193.06
  Q 1241.85 159.67 1241.79 126.29
  Q 1241.77 115.72 1243.21 110.84
  Q 1247.87 95.10 1265.12 94.65
  C 1274.98 94.39 1283.60 98.63 1287.04 107.98
  Q 1288.61 112.25 1288.60 124.21
  Q 1288.54 158.57 1288.62 193.00
  Q 1288.62 193.64 1289.26 193.64
  L 1328.23 193.66
  A 0.43 0.43 0.0 0 0 1328.66 193.23
  Q 1328.68 153.02 1328.67 112.99
  C 1328.67 100.46 1326.26 88.42 1319.14 78.19
  Q 1303.98 56.39 1274.01 58.14
  Q 1254.26 59.29 1242.04 72.64
  Q 1241.81 72.90 1241.81 72.55"
/>
<path stroke="#00FF0000" vector-effect="non-scaling-stroke" d="
  M 177.31 51.49
  C 132.91 66.57 84.73 56.51 50.04 24.81
  Q 49.57 24.38 49.11 24.83
  L 4.98 68.97
  A 1.01 1.00 44.0 0 0 5.01 70.41
  C 44.82 107.41 95.61 125.51 150.29 121.78
  C 153.55 121.55 158.77 120.71 163.09 120.75
  A 0.84 0.84 0.0 0 0 163.93 120.06
  Q 168.76 93.87 180.14 69.75
  C 184.02 61.54 189.27 52.96 194.33 44.84
  Q 194.84 44.01 193.96 44.43
  C 188.50 47.05 182.69 49.66 177.31 51.49"
/>
<path stroke="#00FF0000" vector-effect="non-scaling-stroke" d="
  M 172.98 184.30
  C 199.84 189.58 224.48 199.44 247.21 214.58
  A 0.31 0.31 0.0 0 0 247.66 214.19
  C 244.73 207.95 241.79 201.28 239.88 195.27
  C 225.99 151.57 236.08 104.10 267.42 70.32
  Q 267.76 69.95 267.40 69.59
  L 223.03 25.22
  A 0.85 0.85 0.0 0 0 221.80 25.25
  Q 179.80 70.42 171.50 131.03
  C 169.18 147.93 169.60 165.87 171.55 182.75
  Q 171.70 184.05 172.98 184.30"
/>
<path stroke="#00FF0000" vector-effect="non-scaling-stroke" d="
  M 419.00 71.98
  L 419.00 61.93
  Q 419.00 61.36 418.43 61.36
  L 379.79 61.35
  Q 379.19 61.35 379.19 61.96
  L 379.19 193.04
  Q 379.19 193.63 379.78 193.63
  L 418.47 193.63
  Q 418.99 193.63 418.99 193.11
  Q 419.01 157.04 419.01 120.99
  C 419.01 110.42 421.33 99.51 432.52 95.56
  Q 438.48 93.46 445.14 95.27
  C 454.38 97.78 458.02 105.99 458.04 115.01
  Q 458.15 154.00 458.24 193.11
  Q 458.24 193.64 458.77 193.64
  L 497.46 193.61
  Q 497.95 193.61 497.95 193.12
  Q 498.03 155.56 498.21 118.00
  Q 498.24 111.66 500.31 106.27
  C 506.59 90.00 531.94 90.46 536.21 108.01
  Q 537.20 112.09 537.20 114.76
  Q 537.14 153.87 537.20 193.07
  Q 537.20 193.63 537.76 193.63
  L 576.47 193.60
  Q 576.99 193.60 576.99 193.09
  Q 577.04 151.30 576.99 109.49
  C 576.96 83.22 560.14 60.66 533.22 58.19
  C 515.75 56.59 500.31 60.21 488.90 74.28
  Q 488.58 74.67 488.29 74.26
  C 477.46 59.28 460.85 55.97 443.48 58.70
  Q 429.04 60.96 419.55 72.19
  Q 419.00 72.84 419.00 71.98"
/>
<path stroke="#00FF0000" vector-effect="non-scaling-stroke" d="
  M 663.23 149.76
  C 667.29 153.02 664.83 158.54 660.75 160.03
  Q 655.62 161.90 649.23 161.47
  Q 634.36 160.45 629.30 146.35
  Q 629.10 145.80 628.59 146.09
  L 594.96 165.23
  Q 594.51 165.48 594.73 165.95
  C 607.05 192.89 635.88 199.55 662.76 196.48
  C 690.31 193.34 710.74 175.05 705.64 145.35
  C 701.35 120.33 675.81 114.06 655.29 108.83
  C 651.53 107.87 645.67 106.12 643.63 104.13
  C 640.63 101.20 641.02 97.54 644.19 95.09
  Q 645.81 93.84 646.77 93.65
  Q 662.44 90.51 669.56 104.19
  Q 669.86 104.75 670.41 104.45
  L 703.73 86.48
  A 0.44 0.44 0.0 0 0 703.90 85.86
  Q 691.45 65.53 668.86 59.76
  C 661.53 57.88 653.69 57.65 646.00 58.12
  C 620.58 59.70 599.68 75.69 600.63 103.00
  C 601.71 133.79 632.74 139.16 655.73 146.09
  Q 660.42 147.50 663.23 149.76"
/>
<path stroke="#00FF0000" vector-effect="non-scaling-stroke" d="
  M 948.51 143.64
  L 1040.53 143.64
  Q 1041.09 143.64 1041.20 143.10
  C 1050.81 95.12 1017.12 53.05 966.75 58.33
  C 943.45 60.77 923.73 73.36 913.22 94.16
  Q 900.51 119.29 907.90 147.29
  C 917.94 185.35 953.91 200.64 990.48 196.41
  Q 1018.89 193.12 1035.87 170.59
  A 0.83 0.82 33.6 0 0 1035.62 169.38
  L 1004.86 151.68
  Q 1004.43 151.43 1004.07 151.78
  Q 996.66 159.05 986.34 160.77
  C 970.81 163.37 954.97 159.51 948.07 144.32
  Q 947.76 143.64 948.51 143.64"
/>
<path stroke="#00FF0000" vector-effect="non-scaling-stroke" d="
  M 1122.49 97.39
  C 1134.18 95.95 1145.71 100.81 1151.47 111.56
  Q 1151.74 112.07 1152.24 111.78
  L 1186.27 92.04
  A 0.59 0.58 -30.6 0 0 1186.48 91.23
  C 1172.06 67.54 1146.71 55.39 1119.09 58.14
  C 1079.50 62.07 1054.21 94.90 1057.19 134.12
  C 1062.31 201.69 1152.03 220.43 1186.47 163.59
  A 0.62 0.62 0.0 0 0 1186.25 162.72
  L 1152.25 143.21
  Q 1151.79 142.95 1151.54 143.42
  C 1141.07 163.40 1109.93 162.33 1100.11 142.36
  C 1090.93 123.68 1100.43 100.12 1122.49 97.39"
/>
<path stroke="#00FF0000" vector-effect="non-scaling-stroke" d="
  M 26.67 209.19
  Q 19.36 226.01 4.60 242.07
  Q 4.23 242.47 4.62 242.86
  L 49.25 287.48
  Q 49.68 287.91 50.10 287.46
  Q 110.84 220.76 100.46 129.68
  A 1.84 1.83 2.1 0 0 98.97 128.08
  Q 58.83 120.62 24.96 97.98
  A 0.40 0.40 0.0 0 0 24.38 98.49
  Q 51.04 153.11 26.67 209.19"
/>
<path stroke="#00FF0000" vector-effect="non-scaling-stroke" d="
  M 78.11 267.95
  C 126.26 244.20 182.40 251.32 221.92 287.65
  A 0.50 0.50 0.0 0 0 222.60 287.63
  L 267.35 242.87
  Q 267.67 242.56 267.34 242.25
  Q 201.76 182.26 111.94 191.43
  C 110.87 191.53 109.91 191.99 108.67 192.08
  Q 108.05 192.12 107.94 192.73
  Q 100.48 233.24 77.63 267.40
  A 0.38 0.38 0.0 0 0 78.11 267.95"
/>
<path stroke="#00FF0000" vector-effect="non-scaling-stroke" d="
  M 720.59 237.46
  A 0.30 0.30 0.0 0 0 720.34 237.00
  L 715.17 237.00
  A 0.30 0.30 0.0 0 0 714.91 237.16
  L 711.92 242.76
  A 0.30 0.30 0.0 0 0 712.11 243.19
  L 715.97 244.14
  A 0.30 0.30 0.0 0 0 716.30 244.01
  L 720.59 237.46"
/>
<path stroke="#00FF0000" vector-effect="non-scaling-stroke" d="
  M 482.68 283.04
  L 482.47 286.34
  A 0.62 0.62 0.0 0 0 483.09 287.00
  L 487.23 287.00
  Q 487.95 287.00 487.95 286.27
  L 487.94 267.72
  Q 487.94 267.24 487.47 267.24
  L 474.79 267.24
  Q 474.32 267.24 474.32 267.71
  L 474.30 271.21
  Q 474.30 271.88 474.96 271.88
  L 481.95 271.92
  Q 482.49 271.92 482.47 272.45
  L 482.37 275.85
  A 1.40 1.34 -24.8 0 1 482.03 276.72
  C 477.68 281.72 470.64 283.36 465.11 279.35
  C 459.57 275.33 458.23 266.86 460.96 260.99
  C 465.12 252.07 476.09 250.58 481.61 259.45
  Q 481.92 259.95 482.40 259.61
  L 486.30 256.86
  Q 486.78 256.51 486.52 255.99
  Q 484.30 251.55 480.24 249.68
  C 466.47 243.32 452.25 253.65 453.07 268.44
  C 453.45 275.21 457.28 282.64 463.48 285.52
  Q 473.72 290.27 482.38 282.89
  A 0.18 0.18 0.0 0 1 482.68 283.04"
/>
<path stroke="#00FF0000" vector-effect="non-scaling-stroke" d="
  M 386.72 248.51
  A 0.40 0.40 0.0 0 0 386.32 248.11
  L 380.72 248.11
  A 0.40 0.40 0.0 0 0 380.32 248.51
  L 380.32 286.59
  A 0.40 0.40 0.0 0 0 380.72 286.99
  L 386.32 286.99
  A 0.40 0.40 0.0 0 0 386.72 286.59
  L 386.72 248.51"
/>
<path stroke="#00FF0000" vector-effect="non-scaling-stroke" d="
  M 410.72 260.74
  A 0.28 0.27 25.7 0 1 411.21 260.57
  L 432.13 286.59
  Q 432.46 287.00 432.98 287.00
  L 437.00 287.00
  Q 437.75 287.00 437.75 286.25
  L 437.85 248.73
  Q 437.86 248.11 437.23 248.11
  L 431.93 248.12
  A 0.57 0.57 0.0 0 0 431.36 248.69
  L 431.27 275.00
  Q 431.27 275.56 430.91 275.12
  L 409.88 248.58
  Q 409.48 248.08 408.84 248.09
  L 404.84 248.13
  Q 404.32 248.14 404.32 248.66
  L 404.33 286.42
  Q 404.33 287.00 404.92 287.00
  L 410.09 286.99
  Q 410.68 286.99 410.68 286.41
  L 410.72 260.74"
/>
<path stroke="#00FF0000" vector-effect="non-scaling-stroke" d="
  M 511.04 281.50
  A 0.34 0.34 0.0 0 1 510.70 281.16
  L 510.70 270.10
  A 0.34 0.34 0.0 0 1 511.04 269.76
  L 527.73 269.75
  A 0.34 0.34 0.0 0 0 528.07 269.41
  L 528.00 264.84
  A 0.34 0.34 0.0 0 0 527.66 264.50
  L 511.05 264.50
  A 0.34 0.34 0.0 0 1 510.71 264.16
  L 510.70 254.10
  A 0.34 0.34 0.0 0 1 511.04 253.76
  L 530.37 253.75
  A 0.34 0.34 0.0 0 0 530.71 253.41
  L 530.72 248.45
  A 0.34 0.34 0.0 0 0 530.38 248.11
  L 504.68 248.11
  A 0.34 0.34 0.0 0 0 504.34 248.45
  L 504.34 286.66
  A 0.34 0.34 0.0 0 0 504.68 287.00
  L 530.92 287.00
  A 0.34 0.34 0.0 0 0 531.26 286.66
  L 531.27 281.84
  A 0.34 0.34 0.0 0 0 530.93 281.50
  L 511.04 281.50"
/>
<path stroke="#00FF0000" vector-effect="non-scaling-stroke" d="
  M 556.05 252.74
  C 553.50 249.67 552.76 246.78 547.67 248.33
  Q 547.32 248.44 547.32 248.81
  L 547.32 286.41
  Q 547.32 287.00 547.91 287.00
  L 553.11 286.99
  Q 553.71 286.99 553.71 286.39
  L 553.71 260.74
  A 0.28 0.27 25.7 0 1 554.20 260.57
  L 575.08 286.53
  Q 575.46 287.01 576.07 287.00
  L 580.16 286.99
  Q 580.82 286.99 580.82 286.33
  L 580.70 248.64
  Q 580.70 248.09 580.14 248.10
  L 574.84 248.14
  Q 574.33 248.14 574.33 248.65
  L 574.30 274.51
  A 0.42 0.42 0.0 0 1 573.55 274.76
  Q 564.97 263.47 556.05 252.74"
/>
<path stroke="#00FF0000" vector-effect="non-scaling-stroke" d="
  M 604.70 248.51
  A 0.39 0.39 0.0 0 0 604.31 248.12
  L 598.71 248.12
  A 0.39 0.39 0.0 0 0 598.32 248.51
  L 598.32 286.61
  A 0.39 0.39 0.0 0 0 598.71 287.00
  L 604.31 287.00
  A 0.39 0.39 0.0 0 0 604.70 286.61
  L 604.70 248.51"
/>
<path stroke="#00FF0000" vector-effect="non-scaling-stroke" d="
  M 629.70 254.11
  A 0.35 0.35 0.0 0 1 630.05 253.76
  L 649.32 253.73
  A 0.35 0.35 0.0 0 0 649.67 253.39
  L 649.75 248.51
  A 0.35 0.35 0.0 0 0 649.40 248.15
  L 623.67 248.10
  A 0.35 0.35 0.0 0 0 623.32 248.45
  L 623.34 286.65
  A 0.35 0.35 0.0 0 0 623.69 287.00
  L 649.90 286.99
  A 0.35 0.35 0.0 0 0 650.25 286.64
  L 650.24 281.87
  A 0.35 0.35 0.0 0 0 649.89 281.52
  L 630.07 281.50
  A 0.35 0.35 0.0 0 1 629.72 281.15
  L 629.70 270.13
  A 0.35 0.35 0.0 0 1 630.05 269.78
  L 646.76 269.67
  A 0.35 0.35 0.0 0 0 647.11 269.33
  L 647.19 264.87
  A 0.35 0.35 0.0 0 0 646.84 264.51
  L 630.05 264.50
  A 0.35 0.35 0.0 0 1 629.70 264.15
  L 629.70 254.11"
/>
<path stroke="#00FF0000" vector-effect="non-scaling-stroke" d="
  M 687.30 272.65
  Q 687.20 272.49 687.37 272.40
  Q 695.16 268.14 694.60 260.33
  C 694.09 253.11 689.14 248.21 681.76 248.11
  Q 673.84 247.99 665.87 248.17
  Q 665.33 248.18 665.33 248.73
  L 665.39 286.45
  Q 665.39 287.01 665.95 287.00
  L 671.11 286.99
  Q 671.72 286.99 671.72 286.39
  L 671.70 274.24
  Q 671.70 273.66 672.29 273.66
  L 680.00 273.65
  Q 680.57 273.65 680.87 274.13
  L 688.56 286.49
  A 1.13 1.09 -15.3 0 0 689.51 287.01
  L 695.49 286.98
  Q 696.12 286.98 695.79 286.44
  L 687.30 272.65"
/>
<path stroke="#00FF0000" vector-effect="non-scaling-stroke" d="
  M 717.72 248.52
  A 0.40 0.40 0.0 0 0 717.32 248.12
  L 711.72 248.12
  A 0.40 0.40 0.0 0 0 711.32 248.52
  L 711.32 286.60
  A 0.40 0.40 0.0 0 0 711.72 287.00
  L 717.32 287.00
  A 0.40 0.40 0.0 0 0 717.72 286.60
  L 717.72 248.52"
/>
<path stroke="#00FF0000" vector-effect="non-scaling-stroke" d="
  M 747.15 248.08
  A 0.30 0.30 0.0 0 0 746.86 248.27
  L 731.66 286.59
  A 0.30 0.30 0.0 0 0 731.94 287.00
  L 738.13 287.00
  A 0.30 0.30 0.0 0 0 738.41 286.81
  L 742.23 276.86
  A 0.30 0.30 0.0 0 1 742.51 276.67
  L 756.80 276.66
  A 0.30 0.30 0.0 0 1 757.07 276.85
  L 760.99 286.82
  A 0.30 0.30 0.0 0 0 761.28 287.01
  L 767.40 286.98
  A 0.30 0.30 0.0 0 0 767.68 286.57
  L 752.62 248.32
  A 0.30 0.30 0.0 0 0 752.35 248.13
  L 747.15 248.08"
/>
<path stroke="#00FF0000" vector-effect="non-scaling-stroke" d="
  M 810.02 264.51
  A 0.33 0.33 0.0 0 1 809.69 264.18
  L 809.70 254.09
  A 0.33 0.33 0.0 0 1 810.03 253.76
  L 829.38 253.75
  A 0.33 0.33 0.0 0 0 829.71 253.42
  L 829.72 248.44
  A 0.33 0.33 0.0 0 0 829.39 248.11
  L 803.71 248.12
  A 0.33 0.33 0.0 0 0 803.38 248.45
  L 803.37 286.67
  A 0.33 0.33 0.0 0 0 803.70 287.00
  L 829.92 287.00
  A 0.33 0.33 0.0 0 0 830.25 286.67
  L 830.23 281.84
  A 0.33 0.33 0.0 0 0 829.90 281.51
  L 810.05 281.50
  A 0.33 0.33 0.0 0 1 809.72 281.17
  L 809.70 270.09
  A 0.33 0.33 0.0 0 1 810.03 269.76
  L 827.02 269.75
  A 0.33 0.33 0.0 0 0 827.35 269.41
  L 827.23 264.82
  A 0.33 0.33 0.0 0 0 826.90 264.50
  L 810.02 264.51"
/>
<path stroke="#00FF0000" vector-effect="non-scaling-stroke" d="
  M 870.75 253.24
  L 871.11 252.82
  Q 871.54 252.32 871.00 251.95
  C 864.54 247.46 852.59 245.45 846.71 252.19
  Q 843.66 255.70 843.93 260.44
  C 844.28 266.43 848.63 268.13 854.15 269.77
  C 857.30 270.71 862.58 271.59 864.87 274.00
  C 867.85 277.13 865.34 281.01 861.47 281.51
  Q 852.83 282.63 845.74 277.12
  Q 845.27 276.76 844.99 277.28
  L 842.66 281.70
  Q 842.38 282.23 842.87 282.56
  Q 851.53 288.50 861.55 287.26
  C 868.69 286.37 873.53 282.93 873.09 275.24
  C 872.34 261.95 847.47 267.30 851.11 257.01
  C 853.42 250.45 864.46 254.26 868.17 257.07
  Q 868.65 257.44 868.91 256.89
  L 870.14 254.19
  Q 870.38 253.67 870.75 253.24"
/>
<path stroke="#00FF0000" vector-effect="non-scaling-stroke" d="
  M 914.74 268.22
  Q 914.94 268.11 915.14 267.95
  Q 915.46 267.70 915.62 267.24
  C 918.95 257.91 914.99 248.26 904.47 248.14
  Q 896.67 248.05 888.91 248.14
  Q 888.27 248.14 888.27 248.79
  L 888.28 286.39
  Q 888.28 287.00 888.89 287.00
  L 894.11 287.00
  Q 894.71 287.00 894.71 286.39
  L 894.75 274.23
  Q 894.75 273.67 895.31 273.67
  C 901.41 273.68 910.59 275.22 914.15 268.79
  Q 914.36 268.42 914.74 268.22"
/>
<path stroke="#00FF0000" vector-effect="non-scaling-stroke" d="
  M 938.01 264.50
  A 0.30 0.30 0.0 0 1 937.71 264.20
  L 937.70 254.06
  A 0.30 0.30 0.0 0 1 938.00 253.76
  L 957.41 253.75
  A 0.30 0.30 0.0 0 0 957.71 253.45
  L 957.72 248.41
  A 0.30 0.30 0.0 0 0 957.42 248.11
  L 931.61 248.11
  A 0.30 0.30 0.0 0 0 931.31 248.41
  L 931.34 286.70
  A 0.30 0.30 0.0 0 0 931.64 287.00
  L 957.95 287.00
  A 0.30 0.30 0.0 0 0 958.25 286.70
  L 958.20 281.81
  A 0.30 0.30 0.0 0 0 957.90 281.51
  L 938.02 281.50
  A 0.30 0.30 0.0 0 1 937.72 281.20
  L 937.72 270.06
  A 0.30 0.30 0.0 0 1 938.02 269.76
  L 954.79 269.75
  A 0.30 0.30 0.0 0 0 955.09 269.45
  L 955.01 264.81
  A 0.30 0.30 0.0 0 0 954.71 264.51
  L 938.01 264.50"
/>
<path stroke="#00FF0000" vector-effect="non-scaling-stroke" d="
  M 982.48 285.84
  C 989.87 289.18 1001.25 286.91 1005.31 278.96
  Q 1005.61 278.38 1005.04 278.06
  L 1000.68 275.61
  Q 1000.26 275.37 1000.00 275.78
  Q 996.07 281.96 989.48 281.63
  C 971.81 280.77 974.69 249.06 993.25 254.07
  Q 997.33 255.17 999.48 259.32
  Q 999.75 259.84 1000.24 259.52
  L 1004.31 256.81
  Q 1004.76 256.51 1004.51 256.04
  C 1000.29 248.00 990.06 246.10 982.33 249.37
  C 966.78 255.96 967.77 279.19 982.48 285.84"
/>
<path stroke="#00FF0000" vector-effect="non-scaling-stroke" d="
  M 1026.8030 248.6457
  A 0.52 0.52 0.0 0 0 1026.2839 248.1248
  L 1020.8239 248.1153
  A 0.52 0.52 0.0 0 0 1020.3030 248.6344
  L 1020.2370 286.4543
  A 0.52 0.52 0.0 0 0 1020.7561 286.9752
  L 1026.2161 286.9847
  A 0.52 0.52 0.0 0 0 1026.7370 286.4656
  L 1026.8030 248.6457"
/>
<path stroke="#00FF0000" vector-effect="non-scaling-stroke" d="
  M 1056.21 248.08
  A 0.32 0.32 0.0 0 0 1055.91 248.28
  L 1040.66 286.56
  A 0.32 0.32 0.0 0 0 1040.96 287.00
  L 1047.00 287.00
  A 0.32 0.32 0.0 0 0 1047.30 286.80
  L 1051.22 276.85
  A 0.32 0.32 0.0 0 1 1051.52 276.65
  L 1065.80 276.67
  A 0.32 0.32 0.0 0 1 1066.10 276.87
  L 1069.94 286.80
  A 0.32 0.32 0.0 0 0 1070.24 287.01
  L 1076.28 286.98
  A 0.32 0.32 0.0 0 0 1076.58 286.55
  L 1061.68 248.32
  A 0.32 0.32 0.0 0 0 1061.38 248.12
  L 1056.21 248.08"
/>
<path stroke="#00FF0000" vector-effect="non-scaling-stroke" d="
  M 1098.06 281.50
  A 0.35 0.35 0.0 0 1 1097.71 281.15
  L 1097.71 248.45
  A 0.35 0.35 0.0 0 0 1097.36 248.10
  L 1091.66 248.13
  A 0.35 0.35 0.0 0 0 1091.31 248.48
  L 1091.33 286.65
  A 0.35 0.35 0.0 0 0 1091.68 287.00
  L 1118.24 287.00
  A 0.35 0.35 0.0 0 0 1118.59 286.64
  L 1118.53 281.84
  A 0.35 0.35 0.0 0 0 1118.18 281.50
  L 1098.06 281.50"
/>
<path stroke="#00FF0000" vector-effect="non-scaling-stroke" d="
  M 1138.73 248.55
  A 0.44 0.44 0.0 0 0 1138.29 248.11
  L 1132.75 248.11
  A 0.44 0.44 0.0 0 0 1132.31 248.55
  L 1132.31 286.55
  A 0.44 0.44 0.0 0 0 1132.75 286.99
  L 1138.29 286.99
  A 0.44 0.44 0.0 0 0 1138.73 286.55
  L 1138.73 248.55"
/>
<path stroke="#00FF0000" vector-effect="non-scaling-stroke" d="
  M 1176.68 254.22
  Q 1166.06 267.56 1155.06 280.61
  C 1153.43 282.54 1153.45 284.15 1153.69 286.50
  Q 1153.75 287.00 1154.26 287.00
  L 1184.11 287.00
  Q 1184.72 287.00 1184.71 286.39
  L 1184.70 281.98
  Q 1184.70 281.50 1184.22 281.50
  L 1162.48 281.51
  Q 1161.82 281.51 1162.24 281.00
  Q 1172.86 268.02 1183.32 254.89
  C 1185.03 252.75 1184.98 251.07 1184.63 248.50
  Q 1184.58 248.11 1184.19 248.11
  L 1154.78 248.11
  Q 1154.17 248.11 1154.18 248.72
  L 1154.23 253.24
  Q 1154.23 253.75 1154.74 253.75
  L 1176.47 253.76
  Q 1177.05 253.76 1176.68 254.22"
/>
<path stroke="#00FF0000" vector-effect="non-scaling-stroke" d="
  M 1212.12 248.10
  A 0.32 0.32 0.0 0 0 1211.82 248.30
  L 1196.68 286.56
  A 0.32 0.32 0.0 0 0 1196.98 287.00
  L 1203.01 287.00
  A 0.32 0.32 0.0 0 0 1203.31 286.80
  L 1207.27 276.85
  A 0.32 0.32 0.0 0 1 1207.57 276.65
  L 1221.81 276.66
  A 0.32 0.32 0.0 0 1 1222.11 276.86
  L 1225.94 286.80
  A 0.32 0.32 0.0 0 0 1226.24 287.01
  L 1232.32 286.98
  A 0.32 0.32 0.0 0 0 1232.62 286.55
  L 1217.65 248.33
  A 0.32 0.32 0.0 0 0 1217.35 248.13
  L 1212.12 248.10"
/>
<path stroke="#00FF0000" vector-effect="non-scaling-stroke" d="
  M 1247.33 248.50
  L 1247.33 286.66
  A 0.39 0.39 0.0 0 0 1247.72 287.05
  L 1262.35 287.05
  A 18.04 17.85 -0.0 0 0 1280.39 269.20
  L 1280.39 265.96
  A 18.04 17.85 0.0 0 0 1262.35 248.11
  L 1247.72 248.11
  A 0.39 0.39 0.0 0 0 1247.33 248.50"
/>
<path stroke="#00FF0000" vector-effect="non-scaling-stroke" d="
  M 1306.24 248.08
  A 0.34 0.34 0.0 0 0 1305.92 248.30
  L 1290.64 286.53
  A 0.34 0.34 0.0 0 0 1290.95 287.00
  L 1297.00 287.00
  A 0.34 0.34 0.0 0 0 1297.32 286.79
  L 1301.30 276.86
  A 0.34 0.34 0.0 0 1 1301.62 276.65
  L 1315.79 276.66
  A 0.34 0.34 0.0 0 1 1316.10 276.88
  L 1319.95 286.80
  A 0.34 0.34 0.0 0 0 1320.27 287.02
  L 1326.25 286.96
  A 0.34 0.34 0.0 0 0 1326.56 286.50
  L 1311.67 248.33
  A 0.34 0.34 0.0 0 0 1311.36 248.12
  L 1306.24 248.08"
/>
<path stroke="#00FF0000" vector-effect="non-scaling-stroke" d="
  M 947.73 113.60
  L 1002.67 113.60
  A 0.26 0.25 81.4 0 0 1002.91 113.27
  Q 999.28 101.07 988.82 96.13
  C 981.51 92.68 971.10 92.37 963.47 95.12
  Q 950.92 99.63 947.38 113.15
  Q 947.27 113.60 947.73 113.60"
/>
<path stroke="#00FF0000" vector-effect="non-scaling-stroke" d="
  M 671.62 254.17
  L 671.70 267.73
  A 0.43 0.43 0.0 0 0 672.13 268.16
  L 681.65 268.11
  A 6.75 6.43 89.7 0 0 688.04 261.33
  L 688.04 260.41
  A 6.75 6.43 89.7 0 0 681.57 253.69
  L 672.05 253.74
  A 0.43 0.43 0.0 0 0 671.62 254.17"
/>
<path stroke="#00FF0000" vector-effect="non-scaling-stroke" d="
  M 743.76 271.28
  A 0.31 0.31 0.0 0 0 744.04 271.70
  L 755.20 271.74
  A 0.31 0.31 0.0 0 0 755.49 271.32
  L 749.96 256.49
  A 0.31 0.31 0.0 0 0 749.38 256.49
  L 743.76 271.28"
/>
<path stroke="#00FF0000" vector-effect="non-scaling-stroke" d="
  M 894.73 254.21
  L 894.71 267.67
  A 0.48 0.48 0.0 0 0 895.19 268.15
  L 904.08 268.16
  A 6.56 6.37 -89.9 0 0 910.46 261.61
  L 910.46 260.31
  A 6.56 6.37 -89.9 0 0 904.10 253.74
  L 895.21 253.73
  A 0.48 0.48 0.0 0 0 894.73 254.21"
/>
<path stroke="#00FF0000" vector-effect="non-scaling-stroke" d="
  M 1052.73 271.30
  A 0.31 0.31 0.0 0 0 1053.02 271.72
  L 1064.20 271.74
  A 0.31 0.31 0.0 0 0 1064.49 271.32
  L 1058.93 256.46
  A 0.31 0.31 0.0 0 0 1058.35 256.46
  L 1052.73 271.30"
/>
<path stroke="#00FF0000" vector-effect="non-scaling-stroke" d="
  M 1208.79 271.26
  A 0.34 0.34 0.0 0 0 1209.11 271.72
  L 1220.15 271.74
  A 0.34 0.34 0.0 0 0 1220.47 271.28
  L 1214.98 256.57
  A 0.34 0.34 0.0 0 0 1214.34 256.56
  L 1208.79 271.26"
/>
<path stroke="#00FF0000" vector-effect="non-scaling-stroke" d="
  M 1253.85 253.95
  L 1253.89 281.29
  A 0.23 0.23 0.0 0 0 1254.12 281.52
  L 1261.65 281.50
  A 12.63 12.24 89.9 0 0 1273.87 268.85
  L 1273.87 266.31
  A 12.63 12.24 89.9 0 0 1261.61 253.70
  L 1254.08 253.72
  A 0.23 0.23 0.0 0 0 1253.85 253.95"
/>
<path stroke="#00FF0000" vector-effect="non-scaling-stroke" d="
  M 1302.82 271.26
  A 0.34 0.34 0.0 0 0 1303.14 271.72
  L 1314.14 271.74
  A 0.34 0.34 0.0 0 0 1314.46 271.28
  L 1308.99 256.54
  A 0.34 0.34 0.0 0 0 1308.35 256.54
  L 1302.82 271.26"
/>
</g>
<path fill="#09457d" d="
  M 0.00 0.00
  L 1331.00 0.00
  L 1331.00 291.00
  L 0.00 291.00
  L 0.00 0.00
  Z
  M 772.71 60.85
  C 772.63 45.99 783.66 42.68 796.41 43.56
  A 0.55 0.55 0.0 0 0 797.00 43.01
  L 797.00 5.78
  Q 797.00 5.41 796.63 5.37
  Q 779.23 3.68 765.08 8.58
  C 741.68 16.69 733.26 37.01 732.66 60.74
  Q 732.64 61.36 732.02 61.36
  L 715.67 61.35
  A 0.48 0.48 0.0 0 0 715.19 61.83
  L 715.18 99.24
  A 0.56 0.56 0.0 0 0 715.74 99.80
  L 732.28 99.82
  Q 732.58 99.82 732.58 100.12
  L 732.58 192.99
  Q 732.58 193.64 733.24 193.64
  L 771.96 193.62
  Q 772.52 193.62 772.53 193.04
  L 772.64 100.40
  Q 772.64 99.82 773.22 99.82
  L 825.00 99.82
  Q 825.56 99.82 825.56 100.38
  Q 825.59 124.07 825.68 147.75
  C 825.79 174.98 835.04 190.46 862.80 193.85
  Q 877.38 195.63 892.09 193.41
  Q 892.64 193.33 892.64 192.77
  L 892.65 158.00
  A 0.80 0.79 -2.9 0 0 891.77 157.21
  Q 883.67 158.06 875.90 157.05
  C 869.09 156.16 865.69 152.78 865.68 145.93
  Q 865.64 123.22 865.66 100.40
  Q 865.66 99.81 866.24 99.81
  L 892.17 99.81
  Q 892.66 99.81 892.66 99.33
  L 892.64 62.00
  Q 892.64 61.35 892.00 61.35
  L 866.27 61.38
  A 0.61 0.61 0.0 0 1 865.66 60.77
  L 865.65 25.18
  Q 865.65 24.47 864.97 24.67
  L 826.16 36.33
  Q 825.58 36.50 825.58 37.10
  L 825.58 60.76
  Q 825.58 61.35 824.99 61.35
  L 773.21 61.34
  Q 772.71 61.34 772.71 60.85
  Z
  M 1241.81 72.55
  L 1241.81 9.53
  Q 1241.81 8.99 1241.28 8.99
  L 1202.63 8.99
  Q 1202.00 8.99 1202.00 9.62
  L 1202.00 193.06
  Q 1202.00 193.63 1202.56 193.63
  L 1241.25 193.59
  Q 1241.78 193.59 1241.78 193.06
  Q 1241.85 159.67 1241.79 126.29
  Q 1241.77 115.72 1243.21 110.84
  Q 1247.87 95.10 1265.12 94.65
  C 1274.98 94.39 1283.60 98.63 1287.04 107.98
  Q 1288.61 112.25 1288.60 124.21
  Q 1288.54 158.57 1288.62 193.00
  Q 1288.62 193.64 1289.26 193.64
  L 1328.23 193.66
  A 0.43 0.43 0.0 0 0 1328.66 193.23
  Q 1328.68 153.02 1328.67 112.99
  C 1328.67 100.46 1326.26 88.42 1319.14 78.19
  Q 1303.98 56.39 1274.01 58.14
  Q 1254.26 59.29 1242.04 72.64
  Q 1241.81 72.90 1241.81 72.55
  Z
  M 177.31 51.49
  C 132.91 66.57 84.73 56.51 50.04 24.81
  Q 49.57 24.38 49.11 24.83
  L 4.98 68.97
  A 1.01 1.00 44.0 0 0 5.01 70.41
  C 44.82 107.41 95.61 125.51 150.29 121.78
  C 153.55 121.55 158.77 120.71 163.09 120.75
  A 0.84 0.84 0.0 0 0 163.93 120.06
  Q 168.76 93.87 180.14 69.75
  C 184.02 61.54 189.27 52.96 194.33 44.84
  Q 194.84 44.01 193.96 44.43
  C 188.50 47.05 182.69 49.66 177.31 51.49
  Z
  M 172.98 184.30
  C 199.84 189.58 224.48 199.44 247.21 214.58
  A 0.31 0.31 0.0 0 0 247.66 214.19
  C 244.73 207.95 241.79 201.28 239.88 195.27
  C 225.99 151.57 236.08 104.10 267.42 70.32
  Q 267.76 69.95 267.40 69.59
  L 223.03 25.22
  A 0.85 0.85 0.0 0 0 221.80 25.25
  Q 179.80 70.42 171.50 131.03
  C 169.18 147.93 169.60 165.87 171.55 182.75
  Q 171.70 184.05 172.98 184.30
  Z
  M 419.00 71.98
  L 419.00 61.93
  Q 419.00 61.36 418.43 61.36
  L 379.79 61.35
  Q 379.19 61.35 379.19 61.96
  L 379.19 193.04
  Q 379.19 193.63 379.78 193.63
  L 418.47 193.63
  Q 418.99 193.63 418.99 193.11
  Q 419.01 157.04 419.01 120.99
  C 419.01 110.42 421.33 99.51 432.52 95.56
  Q 438.48 93.46 445.14 95.27
  C 454.38 97.78 458.02 105.99 458.04 115.01
  Q 458.15 154.00 458.24 193.11
  Q 458.24 193.64 458.77 193.64
  L 497.46 193.61
  Q 497.95 193.61 497.95 193.12
  Q 498.03 155.56 498.21 118.00
  Q 498.24 111.66 500.31 106.27
  C 506.59 90.00 531.94 90.46 536.21 108.01
  Q 537.20 112.09 537.20 114.76
  Q 537.14 153.87 537.20 193.07
  Q 537.20 193.63 537.76 193.63
  L 576.47 193.60
  Q 576.99 193.60 576.99 193.09
  Q 577.04 151.30 576.99 109.49
  C 576.96 83.22 560.14 60.66 533.22 58.19
  C 515.75 56.59 500.31 60.21 488.90 74.28
  Q 488.58 74.67 488.29 74.26
  C 477.46 59.28 460.85 55.97 443.48 58.70
  Q 429.04 60.96 419.55 72.19
  Q 419.00 72.84 419.00 71.98
  Z
  M 663.23 149.76
  C 667.29 153.02 664.83 158.54 660.75 160.03
  Q 655.62 161.90 649.23 161.47
  Q 634.36 160.45 629.30 146.35
  Q 629.10 145.80 628.59 146.09
  L 594.96 165.23
  Q 594.51 165.48 594.73 165.95
  C 607.05 192.89 635.88 199.55 662.76 196.48
  C 690.31 193.34 710.74 175.05 705.64 145.35
  C 701.35 120.33 675.81 114.06 655.29 108.83
  C 651.53 107.87 645.67 106.12 643.63 104.13
  C 640.63 101.20 641.02 97.54 644.19 95.09
  Q 645.81 93.84 646.77 93.65
  Q 662.44 90.51 669.56 104.19
  Q 669.86 104.75 670.41 104.45
  L 703.73 86.48
  A 0.44 0.44 0.0 0 0 703.90 85.86
  Q 691.45 65.53 668.86 59.76
  C 661.53 57.88 653.69 57.65 646.00 58.12
  C 620.58 59.70 599.68 75.69 600.63 103.00
  C 601.71 133.79 632.74 139.16 655.73 146.09
  Q 660.42 147.50 663.23 149.76
  Z
  M 948.51 143.64
  L 1040.53 143.64
  Q 1041.09 143.64 1041.20 143.10
  C 1050.81 95.12 1017.12 53.05 966.75 58.33
  C 943.45 60.77 923.73 73.36 913.22 94.16
  Q 900.51 119.29 907.90 147.29
  C 917.94 185.35 953.91 200.64 990.48 196.41
  Q 1018.89 193.12 1035.87 170.59
  A 0.83 0.82 33.6 0 0 1035.62 169.38
  L 1004.86 151.68
  Q 1004.43 151.43 1004.07 151.78
  Q 996.66 159.05 986.34 160.77
  C 970.81 163.37 954.97 159.51 948.07 144.32
  Q 947.76 143.64 948.51 143.64
  Z
  M 1122.49 97.39
  C 1134.18 95.95 1145.71 100.81 1151.47 111.56
  Q 1151.74 112.07 1152.24 111.78
  L 1186.27 92.04
  A 0.59 0.58 -30.6 0 0 1186.48 91.23
  C 1172.06 67.54 1146.71 55.39 1119.09 58.14
  C 1079.50 62.07 1054.21 94.90 1057.19 134.12
  C 1062.31 201.69 1152.03 220.43 1186.47 163.59
  A 0.62 0.62 0.0 0 0 1186.25 162.72
  L 1152.25 143.21
  Q 1151.79 142.95 1151.54 143.42
  C 1141.07 163.40 1109.93 162.33 1100.11 142.36
  C 1090.93 123.68 1100.43 100.12 1122.49 97.39
  Z
  M 26.67 209.19
  Q 19.36 226.01 4.60 242.07
  Q 4.23 242.47 4.62 242.86
  L 49.25 287.48
  Q 49.68 287.91 50.10 287.46
  Q 110.84 220.76 100.46 129.68
  A 1.84 1.83 2.1 0 0 98.97 128.08
  Q 58.83 120.62 24.96 97.98
  A 0.40 0.40 0.0 0 0 24.38 98.49
  Q 51.04 153.11 26.67 209.19
  Z
  M 78.11 267.95
  C 126.26 244.20 182.40 251.32 221.92 287.65
  A 0.50 0.50 0.0 0 0 222.60 287.63
  L 267.35 242.87
  Q 267.67 242.56 267.34 242.25
  Q 201.76 182.26 111.94 191.43
  C 110.87 191.53 109.91 191.99 108.67 192.08
  Q 108.05 192.12 107.94 192.73
  Q 100.48 233.24 77.63 267.40
  A 0.38 0.38 0.0 0 0 78.11 267.95
  Z
  M 720.59 237.46
  A 0.30 0.30 0.0 0 0 720.34 237.00
  L 715.17 237.00
  A 0.30 0.30 0.0 0 0 714.91 237.16
  L 711.92 242.76
  A 0.30 0.30 0.0 0 0 712.11 243.19
  L 715.97 244.14
  A 0.30 0.30 0.0 0 0 716.30 244.01
  L 720.59 237.46
  Z
  M 482.68 283.04
  L 482.47 286.34
  A 0.62 0.62 0.0 0 0 483.09 287.00
  L 487.23 287.00
  Q 487.95 287.00 487.95 286.27
  L 487.94 267.72
  Q 487.94 267.24 487.47 267.24
  L 474.79 267.24
  Q 474.32 267.24 474.32 267.71
  L 474.30 271.21
  Q 474.30 271.88 474.96 271.88
  L 481.95 271.92
  Q 482.49 271.92 482.47 272.45
  L 482.37 275.85
  A 1.40 1.34 -24.8 0 1 482.03 276.72
  C 477.68 281.72 470.64 283.36 465.11 279.35
  C 459.57 275.33 458.23 266.86 460.96 260.99
  C 465.12 252.07 476.09 250.58 481.61 259.45
  Q 481.92 259.95 482.40 259.61
  L 486.30 256.86
  Q 486.78 256.51 486.52 255.99
  Q 484.30 251.55 480.24 249.68
  C 466.47 243.32 452.25 253.65 453.07 268.44
  C 453.45 275.21 457.28 282.64 463.48 285.52
  Q 473.72 290.27 482.38 282.89
  A 0.18 0.18 0.0 0 1 482.68 283.04
  Z
  M 386.72 248.51
  A 0.40 0.40 0.0 0 0 386.32 248.11
  L 380.72 248.11
  A 0.40 0.40 0.0 0 0 380.32 248.51
  L 380.32 286.59
  A 0.40 0.40 0.0 0 0 380.72 286.99
  L 386.32 286.99
  A 0.40 0.40 0.0 0 0 386.72 286.59
  L 386.72 248.51
  Z
  M 410.72 260.74
  A 0.28 0.27 25.7 0 1 411.21 260.57
  L 432.13 286.59
  Q 432.46 287.00 432.98 287.00
  L 437.00 287.00
  Q 437.75 287.00 437.75 286.25
  L 437.85 248.73
  Q 437.86 248.11 437.23 248.11
  L 431.93 248.12
  A 0.57 0.57 0.0 0 0 431.36 248.69
  L 431.27 275.00
  Q 431.27 275.56 430.91 275.12
  L 409.88 248.58
  Q 409.48 248.08 408.84 248.09
  L 404.84 248.13
  Q 404.32 248.14 404.32 248.66
  L 404.33 286.42
  Q 404.33 287.00 404.92 287.00
  L 410.09 286.99
  Q 410.68 286.99 410.68 286.41
  L 410.72 260.74
  Z
  M 511.04 281.50
  A 0.34 0.34 0.0 0 1 510.70 281.16
  L 510.70 270.10
  A 0.34 0.34 0.0 0 1 511.04 269.76
  L 527.73 269.75
  A 0.34 0.34 0.0 0 0 528.07 269.41
  L 528.00 264.84
  A 0.34 0.34 0.0 0 0 527.66 264.50
  L 511.05 264.50
  A 0.34 0.34 0.0 0 1 510.71 264.16
  L 510.70 254.10
  A 0.34 0.34 0.0 0 1 511.04 253.76
  L 530.37 253.75
  A 0.34 0.34 0.0 0 0 530.71 253.41
  L 530.72 248.45
  A 0.34 0.34 0.0 0 0 530.38 248.11
  L 504.68 248.11
  A 0.34 0.34 0.0 0 0 504.34 248.45
  L 504.34 286.66
  A 0.34 0.34 0.0 0 0 504.68 287.00
  L 530.92 287.00
  A 0.34 0.34 0.0 0 0 531.26 286.66
  L 531.27 281.84
  A 0.34 0.34 0.0 0 0 530.93 281.50
  L 511.04 281.50
  Z
  M 556.05 252.74
  C 553.50 249.67 552.76 246.78 547.67 248.33
  Q 547.32 248.44 547.32 248.81
  L 547.32 286.41
  Q 547.32 287.00 547.91 287.00
  L 553.11 286.99
  Q 553.71 286.99 553.71 286.39
  L 553.71 260.74
  A 0.28 0.27 25.7 0 1 554.20 260.57
  L 575.08 286.53
  Q 575.46 287.01 576.07 287.00
  L 580.16 286.99
  Q 580.82 286.99 580.82 286.33
  L 580.70 248.64
  Q 580.70 248.09 580.14 248.10
  L 574.84 248.14
  Q 574.33 248.14 574.33 248.65
  L 574.30 274.51
  A 0.42 0.42 0.0 0 1 573.55 274.76
  Q 564.97 263.47 556.05 252.74
  Z
  M 604.70 248.51
  A 0.39 0.39 0.0 0 0 604.31 248.12
  L 598.71 248.12
  A 0.39 0.39 0.0 0 0 598.32 248.51
  L 598.32 286.61
  A 0.39 0.39 0.0 0 0 598.71 287.00
  L 604.31 287.00
  A 0.39 0.39 0.0 0 0 604.70 286.61
  L 604.70 248.51
  Z
  M 629.70 254.11
  A 0.35 0.35 0.0 0 1 630.05 253.76
  L 649.32 253.73
  A 0.35 0.35 0.0 0 0 649.67 253.39
  L 649.75 248.51
  A 0.35 0.35 0.0 0 0 649.40 248.15
  L 623.67 248.10
  A 0.35 0.35 0.0 0 0 623.32 248.45
  L 623.34 286.65
  A 0.35 0.35 0.0 0 0 623.69 287.00
  L 649.90 286.99
  A 0.35 0.35 0.0 0 0 650.25 286.64
  L 650.24 281.87
  A 0.35 0.35 0.0 0 0 649.89 281.52
  L 630.07 281.50
  A 0.35 0.35 0.0 0 1 629.72 281.15
  L 629.70 270.13
  A 0.35 0.35 0.0 0 1 630.05 269.78
  L 646.76 269.67
  A 0.35 0.35 0.0 0 0 647.11 269.33
  L 647.19 264.87
  A 0.35 0.35 0.0 0 0 646.84 264.51
  L 630.05 264.50
  A 0.35 0.35 0.0 0 1 629.70 264.15
  L 629.70 254.11
  Z
  M 687.30 272.65
  Q 687.20 272.49 687.37 272.40
  Q 695.16 268.14 694.60 260.33
  C 694.09 253.11 689.14 248.21 681.76 248.11
  Q 673.84 247.99 665.87 248.17
  Q 665.33 248.18 665.33 248.73
  L 665.39 286.45
  Q 665.39 287.01 665.95 287.00
  L 671.11 286.99
  Q 671.72 286.99 671.72 286.39
  L 671.70 274.24
  Q 671.70 273.66 672.29 273.66
  L 680.00 273.65
  Q 680.57 273.65 680.87 274.13
  L 688.56 286.49
  A 1.13 1.09 -15.3 0 0 689.51 287.01
  L 695.49 286.98
  Q 696.12 286.98 695.79 286.44
  L 687.30 272.65
  Z
  M 717.72 248.52
  A 0.40 0.40 0.0 0 0 717.32 248.12
  L 711.72 248.12
  A 0.40 0.40 0.0 0 0 711.32 248.52
  L 711.32 286.60
  A 0.40 0.40 0.0 0 0 711.72 287.00
  L 717.32 287.00
  A 0.40 0.40 0.0 0 0 717.72 286.60
  L 717.72 248.52
  Z
  M 747.15 248.08
  A 0.30 0.30 0.0 0 0 746.86 248.27
  L 731.66 286.59
  A 0.30 0.30 0.0 0 0 731.94 287.00
  L 738.13 287.00
  A 0.30 0.30 0.0 0 0 738.41 286.81
  L 742.23 276.86
  A 0.30 0.30 0.0 0 1 742.51 276.67
  L 756.80 276.66
  A 0.30 0.30 0.0 0 1 757.07 276.85
  L 760.99 286.82
  A 0.30 0.30 0.0 0 0 761.28 287.01
  L 767.40 286.98
  A 0.30 0.30 0.0 0 0 767.68 286.57
  L 752.62 248.32
  A 0.30 0.30 0.0 0 0 752.35 248.13
  L 747.15 248.08
  Z
  M 810.02 264.51
  A 0.33 0.33 0.0 0 1 809.69 264.18
  L 809.70 254.09
  A 0.33 0.33 0.0 0 1 810.03 253.76
  L 829.38 253.75
  A 0.33 0.33 0.0 0 0 829.71 253.42
  L 829.72 248.44
  A 0.33 0.33 0.0 0 0 829.39 248.11
  L 803.71 248.12
  A 0.33 0.33 0.0 0 0 803.38 248.45
  L 803.37 286.67
  A 0.33 0.33 0.0 0 0 803.70 287.00
  L 829.92 287.00
  A 0.33 0.33 0.0 0 0 830.25 286.67
  L 830.23 281.84
  A 0.33 0.33 0.0 0 0 829.90 281.51
  L 810.05 281.50
  A 0.33 0.33 0.0 0 1 809.72 281.17
  L 809.70 270.09
  A 0.33 0.33 0.0 0 1 810.03 269.76
  L 827.02 269.75
  A 0.33 0.33 0.0 0 0 827.35 269.41
  L 827.23 264.82
  A 0.33 0.33 0.0 0 0 826.90 264.50
  L 810.02 264.51
  Z
  M 870.75 253.24
  L 871.11 252.82
  Q 871.54 252.32 871.00 251.95
  C 864.54 247.46 852.59 245.45 846.71 252.19
  Q 843.66 255.70 843.93 260.44
  C 844.28 266.43 848.63 268.13 854.15 269.77
  C 857.30 270.71 862.58 271.59 864.87 274.00
  C 867.85 277.13 865.34 281.01 861.47 281.51
  Q 852.83 282.63 845.74 277.12
  Q 845.27 276.76 844.99 277.28
  L 842.66 281.70
  Q 842.38 282.23 842.87 282.56
  Q 851.53 288.50 861.55 287.26
  C 868.69 286.37 873.53 282.93 873.09 275.24
  C 872.34 261.95 847.47 267.30 851.11 257.01
  C 853.42 250.45 864.46 254.26 868.17 257.07
  Q 868.65 257.44 868.91 256.89
  L 870.14 254.19
  Q 870.38 253.67 870.75 253.24
  Z
  M 914.74 268.22
  Q 914.94 268.11 915.14 267.95
  Q 915.46 267.70 915.62 267.24
  C 918.95 257.91 914.99 248.26 904.47 248.14
  Q 896.67 248.05 888.91 248.14
  Q 888.27 248.14 888.27 248.79
  L 888.28 286.39
  Q 888.28 287.00 888.89 287.00
  L 894.11 287.00
  Q 894.71 287.00 894.71 286.39
  L 894.75 274.23
  Q 894.75 273.67 895.31 273.67
  C 901.41 273.68 910.59 275.22 914.15 268.79
  Q 914.36 268.42 914.74 268.22
  Z
  M 938.01 264.50
  A 0.30 0.30 0.0 0 1 937.71 264.20
  L 937.70 254.06
  A 0.30 0.30 0.0 0 1 938.00 253.76
  L 957.41 253.75
  A 0.30 0.30 0.0 0 0 957.71 253.45
  L 957.72 248.41
  A 0.30 0.30 0.0 0 0 957.42 248.11
  L 931.61 248.11
  A 0.30 0.30 0.0 0 0 931.31 248.41
  L 931.34 286.70
  A 0.30 0.30 0.0 0 0 931.64 287.00
  L 957.95 287.00
  A 0.30 0.30 0.0 0 0 958.25 286.70
  L 958.20 281.81
  A 0.30 0.30 0.0 0 0 957.90 281.51
  L 938.02 281.50
  A 0.30 0.30 0.0 0 1 937.72 281.20
  L 937.72 270.06
  A 0.30 0.30 0.0 0 1 938.02 269.76
  L 954.79 269.75
  A 0.30 0.30 0.0 0 0 955.09 269.45
  L 955.01 264.81
  A 0.30 0.30 0.0 0 0 954.71 264.51
  L 938.01 264.50
  Z
  M 982.48 285.84
  C 989.87 289.18 1001.25 286.91 1005.31 278.96
  Q 1005.61 278.38 1005.04 278.06
  L 1000.68 275.61
  Q 1000.26 275.37 1000.00 275.78
  Q 996.07 281.96 989.48 281.63
  C 971.81 280.77 974.69 249.06 993.25 254.07
  Q 997.33 255.17 999.48 259.32
  Q 999.75 259.84 1000.24 259.52
  L 1004.31 256.81
  Q 1004.76 256.51 1004.51 256.04
  C 1000.29 248.00 990.06 246.10 982.33 249.37
  C 966.78 255.96 967.77 279.19 982.48 285.84
  Z
  M 1026.8030 248.6457
  A 0.52 0.52 0.0 0 0 1026.2839 248.1248
  L 1020.8239 248.1153
  A 0.52 0.52 0.0 0 0 1020.3030 248.6344
  L 1020.2370 286.4543
  A 0.52 0.52 0.0 0 0 1020.7561 286.9752
  L 1026.2161 286.9847
  A 0.52 0.52 0.0 0 0 1026.7370 286.4656
  L 1026.8030 248.6457
  Z
  M 1056.21 248.08
  A 0.32 0.32 0.0 0 0 1055.91 248.28
  L 1040.66 286.56
  A 0.32 0.32 0.0 0 0 1040.96 287.00
  L 1047.00 287.00
  A 0.32 0.32 0.0 0 0 1047.30 286.80
  L 1051.22 276.85
  A 0.32 0.32 0.0 0 1 1051.52 276.65
  L 1065.80 276.67
  A 0.32 0.32 0.0 0 1 1066.10 276.87
  L 1069.94 286.80
  A 0.32 0.32 0.0 0 0 1070.24 287.01
  L 1076.28 286.98
  A 0.32 0.32 0.0 0 0 1076.58 286.55
  L 1061.68 248.32
  A 0.32 0.32 0.0 0 0 1061.38 248.12
  L 1056.21 248.08
  Z
  M 1098.06 281.50
  A 0.35 0.35 0.0 0 1 1097.71 281.15
  L 1097.71 248.45
  A 0.35 0.35 0.0 0 0 1097.36 248.10
  L 1091.66 248.13
  A 0.35 0.35 0.0 0 0 1091.31 248.48
  L 1091.33 286.65
  A 0.35 0.35 0.0 0 0 1091.68 287.00
  L 1118.24 287.00
  A 0.35 0.35 0.0 0 0 1118.59 286.64
  L 1118.53 281.84
  A 0.35 0.35 0.0 0 0 1118.18 281.50
  L 1098.06 281.50
  Z
  M 1138.73 248.55
  A 0.44 0.44 0.0 0 0 1138.29 248.11
  L 1132.75 248.11
  A 0.44 0.44 0.0 0 0 1132.31 248.55
  L 1132.31 286.55
  A 0.44 0.44 0.0 0 0 1132.75 286.99
  L 1138.29 286.99
  A 0.44 0.44 0.0 0 0 1138.73 286.55
  L 1138.73 248.55
  Z
  M 1176.68 254.22
  Q 1166.06 267.56 1155.06 280.61
  C 1153.43 282.54 1153.45 284.15 1153.69 286.50
  Q 1153.75 287.00 1154.26 287.00
  L 1184.11 287.00
  Q 1184.72 287.00 1184.71 286.39
  L 1184.70 281.98
  Q 1184.70 281.50 1184.22 281.50
  L 1162.48 281.51
  Q 1161.82 281.51 1162.24 281.00
  Q 1172.86 268.02 1183.32 254.89
  C 1185.03 252.75 1184.98 251.07 1184.63 248.50
  Q 1184.58 248.11 1184.19 248.11
  L 1154.78 248.11
  Q 1154.17 248.11 1154.18 248.72
  L 1154.23 253.24
  Q 1154.23 253.75 1154.74 253.75
  L 1176.47 253.76
  Q 1177.05 253.76 1176.68 254.22
  Z
  M 1212.12 248.10
  A 0.32 0.32 0.0 0 0 1211.82 248.30
  L 1196.68 286.56
  A 0.32 0.32 0.0 0 0 1196.98 287.00
  L 1203.01 287.00
  A 0.32 0.32 0.0 0 0 1203.31 286.80
  L 1207.27 276.85
  A 0.32 0.32 0.0 0 1 1207.57 276.65
  L 1221.81 276.66
  A 0.32 0.32 0.0 0 1 1222.11 276.86
  L 1225.94 286.80
  A 0.32 0.32 0.0 0 0 1226.24 287.01
  L 1232.32 286.98
  A 0.32 0.32 0.0 0 0 1232.62 286.55
  L 1217.65 248.33
  A 0.32 0.32 0.0 0 0 1217.35 248.13
  L 1212.12 248.10
  Z
  M 1247.33 248.50
  L 1247.33 286.66
  A 0.39 0.39 0.0 0 0 1247.72 287.05
  L 1262.35 287.05
  A 18.04 17.85 -0.0 0 0 1280.39 269.20
  L 1280.39 265.96
  A 18.04 17.85 0.0 0 0 1262.35 248.11
  L 1247.72 248.11
  A 0.39 0.39 0.0 0 0 1247.33 248.50
  Z
  M 1306.24 248.08
  A 0.34 0.34 0.0 0 0 1305.92 248.30
  L 1290.64 286.53
  A 0.34 0.34 0.0 0 0 1290.95 287.00
  L 1297.00 287.00
  A 0.34 0.34 0.0 0 0 1297.32 286.79
  L 1301.30 276.86
  A 0.34 0.34 0.0 0 1 1301.62 276.65
  L 1315.79 276.66
  A 0.34 0.34 0.0 0 1 1316.10 276.88
  L 1319.95 286.80
  A 0.34 0.34 0.0 0 0 1320.27 287.02
  L 1326.25 286.96
  A 0.34 0.34 0.0 0 0 1326.56 286.50
  L 1311.67 248.33
  A 0.34 0.34 0.0 0 0 1311.36 248.12
  L 1306.24 248.08
  Z"
/>
<path fill="#ffffff" d="
  M 773.21 61.34
  L 824.99 61.35
  Q 825.58 61.35 825.58 60.76
  L 825.58 37.10
  Q 825.58 36.50 826.16 36.33
  L 864.97 24.67
  Q 865.65 24.47 865.65 25.18
  L 865.66 60.77
  A 0.61 0.61 0.0 0 0 866.27 61.38
  L 892.00 61.35
  Q 892.64 61.35 892.64 62.00
  L 892.66 99.33
  Q 892.66 99.81 892.17 99.81
  L 866.24 99.81
  Q 865.66 99.81 865.66 100.40
  Q 865.64 123.22 865.68 145.93
  C 865.69 152.78 869.09 156.16 875.90 157.05
  Q 883.67 158.06 891.77 157.21
  A 0.80 0.79 -2.9 0 1 892.65 158.00
  L 892.64 192.77
  Q 892.64 193.33 892.09 193.41
  Q 877.38 195.63 862.80 193.85
  C 835.04 190.46 825.79 174.98 825.68 147.75
  Q 825.59 124.07 825.56 100.38
  Q 825.56 99.82 825.00 99.82
  L 773.22 99.82
  Q 772.64 99.82 772.64 100.40
  L 772.53 193.04
  Q 772.52 193.62 771.96 193.62
  L 733.24 193.64
  Q 732.58 193.64 732.58 192.99
  L 732.58 100.12
  Q 732.58 99.82 732.28 99.82
  L 715.74 99.80
  A 0.56 0.56 0.0 0 1 715.18 99.24
  L 715.19 61.83
  A 0.48 0.48 0.0 0 1 715.67 61.35
  L 732.02 61.36
  Q 732.64 61.36 732.66 60.74
  C 733.26 37.01 741.68 16.69 765.08 8.58
  Q 779.23 3.68 796.63 5.37
  Q 797.00 5.41 797.00 5.78
  L 797.00 43.01
  A 0.55 0.55 0.0 0 1 796.41 43.56
  C 783.66 42.68 772.63 45.99 772.71 60.85
  Q 772.71 61.34 773.21 61.34
  Z"
/>
<path fill="#ffffff" d="
  M 1242.04 72.64
  Q 1254.26 59.29 1274.01 58.14
  Q 1303.98 56.39 1319.14 78.19
  C 1326.26 88.42 1328.67 100.46 1328.67 112.99
  Q 1328.68 153.02 1328.66 193.23
  A 0.43 0.43 0.0 0 1 1328.23 193.66
  L 1289.26 193.64
  Q 1288.62 193.64 1288.62 193.00
  Q 1288.54 158.57 1288.60 124.21
  Q 1288.61 112.25 1287.04 107.98
  C 1283.60 98.63 1274.98 94.39 1265.12 94.65
  Q 1247.87 95.10 1243.21 110.84
  Q 1241.77 115.72 1241.79 126.29
  Q 1241.85 159.67 1241.78 193.06
  Q 1241.78 193.59 1241.25 193.59
  L 1202.56 193.63
  Q 1202.00 193.63 1202.00 193.06
  L 1202.00 9.62
  Q 1202.00 8.99 1202.63 8.99
  L 1241.28 8.99
  Q 1241.81 8.99 1241.81 9.53
  L 1241.81 72.55
  Q 1241.81 72.90 1242.04 72.64
  Z"
/>
<path fill="#ffffff" d="
  M 177.31 51.49
  C 182.69 49.66 188.50 47.05 193.96 44.43
  Q 194.84 44.01 194.33 44.84
  C 189.27 52.96 184.02 61.54 180.14 69.75
  Q 168.76 93.87 163.93 120.06
  A 0.84 0.84 0.0 0 1 163.09 120.75
  C 158.77 120.71 153.55 121.55 150.29 121.78
  C 95.61 125.51 44.82 107.41 5.01 70.41
  A 1.01 1.00 44.0 0 1 4.98 68.97
  L 49.11 24.83
  Q 49.57 24.38 50.04 24.81
  C 84.73 56.51 132.91 66.57 177.31 51.49
  Z"
/>
<path fill="#ffffff" d="
  M 247.21 214.58
  C 224.48 199.44 199.84 189.58 172.98 184.30
  Q 171.70 184.05 171.55 182.75
  C 169.60 165.87 169.18 147.93 171.50 131.03
  Q 179.80 70.42 221.80 25.25
  A 0.85 0.85 0.0 0 1 223.03 25.22
  L 267.40 69.59
  Q 267.76 69.95 267.42 70.32
  C 236.08 104.10 225.99 151.57 239.88 195.27
  C 241.79 201.28 244.73 207.95 247.66 214.19
  A 0.31 0.31 0.0 0 1 247.21 214.58
  Z"
/>
<path fill="#ffffff" d="
  M 419.55 72.19
  Q 429.04 60.96 443.48 58.70
  C 460.85 55.97 477.46 59.28 488.29 74.26
  Q 488.58 74.67 488.90 74.28
  C 500.31 60.21 515.75 56.59 533.22 58.19
  C 560.14 60.66 576.96 83.22 576.99 109.49
  Q 577.04 151.30 576.99 193.09
  Q 576.99 193.60 576.47 193.60
  L 537.76 193.63
  Q 537.20 193.63 537.20 193.07
  Q 537.14 153.87 537.20 114.76
  Q 537.20 112.09 536.21 108.01
  C 531.94 90.46 506.59 90.00 500.31 106.27
  Q 498.24 111.66 498.21 118.00
  Q 498.03 155.56 497.95 193.12
  Q 497.95 193.61 497.46 193.61
  L 458.77 193.64
  Q 458.24 193.64 458.24 193.11
  Q 458.15 154.00 458.04 115.01
  C 458.02 105.99 454.38 97.78 445.14 95.27
  Q 438.48 93.46 432.52 95.56
  C 421.33 99.51 419.01 110.42 419.01 120.99
  Q 419.01 157.04 418.99 193.11
  Q 418.99 193.63 418.47 193.63
  L 379.78 193.63
  Q 379.19 193.63 379.19 193.04
  L 379.19 61.96
  Q 379.19 61.35 379.79 61.35
  L 418.43 61.36
  Q 419.00 61.36 419.00 61.93
  L 419.00 71.98
  Q 419.00 72.84 419.55 72.19
  Z"
/>
<path fill="#ffffff" d="
  M 660.75 160.03
  C 664.83 158.54 667.29 153.02 663.23 149.76
  Q 660.42 147.50 655.73 146.09
  C 632.74 139.16 601.71 133.79 600.63 103.00
  C 599.68 75.69 620.58 59.70 646.00 58.12
  C 653.69 57.65 661.53 57.88 668.86 59.76
  Q 691.45 65.53 703.90 85.86
  A 0.44 0.44 0.0 0 1 703.73 86.48
  L 670.41 104.45
  Q 669.86 104.75 669.56 104.19
  Q 662.44 90.51 646.77 93.65
  Q 645.81 93.84 644.19 95.09
  C 641.02 97.54 640.63 101.20 643.63 104.13
  C 645.67 106.12 651.53 107.87 655.29 108.83
  C 675.81 114.06 701.35 120.33 705.64 145.35
  C 710.74 175.05 690.31 193.34 662.76 196.48
  C 635.88 199.55 607.05 192.89 594.73 165.95
  Q 594.51 165.48 594.96 165.23
  L 628.59 146.09
  Q 629.10 145.80 629.30 146.35
  Q 634.36 160.45 649.23 161.47
  Q 655.62 161.90 660.75 160.03
  Z"
/>
<path fill="#ffffff" d="
  M 948.07 144.32
  C 954.97 159.51 970.81 163.37 986.34 160.77
  Q 996.66 159.05 1004.07 151.78
  Q 1004.43 151.43 1004.86 151.68
  L 1035.62 169.38
  A 0.83 0.82 33.6 0 1 1035.87 170.59
  Q 1018.89 193.12 990.48 196.41
  C 953.91 200.64 917.94 185.35 907.90 147.29
  Q 900.51 119.29 913.22 94.16
  C 923.73 73.36 943.45 60.77 966.75 58.33
  C 1017.12 53.05 1050.81 95.12 1041.20 143.10
  Q 1041.09 143.64 1040.53 143.64
  L 948.51 143.64
  Q 947.76 143.64 948.07 144.32
  Z
  M 947.73 113.60
  L 1002.67 113.60
  A 0.26 0.25 81.4 0 0 1002.91 113.27
  Q 999.28 101.07 988.82 96.13
  C 981.51 92.68 971.10 92.37 963.47 95.12
  Q 950.92 99.63 947.38 113.15
  Q 947.27 113.60 947.73 113.60
  Z"
/>
<path fill="#ffffff" d="
  M 1122.49 97.39
  C 1100.43 100.12 1090.93 123.68 1100.11 142.36
  C 1109.93 162.33 1141.07 163.40 1151.54 143.42
  Q 1151.79 142.95 1152.25 143.21
  L 1186.25 162.72
  A 0.62 0.62 0.0 0 1 1186.47 163.59
  C 1152.03 220.43 1062.31 201.69 1057.19 134.12
  C 1054.21 94.90 1079.50 62.07 1119.09 58.14
  C 1146.71 55.39 1172.06 67.54 1186.48 91.23
  A 0.59 0.58 -30.6 0 1 1186.27 92.04
  L 1152.24 111.78
  Q 1151.74 112.07 1151.47 111.56
  C 1145.71 100.81 1134.18 95.95 1122.49 97.39
  Z"
/>
<path fill="#09457d" d="
  M 1002.67 113.60
  L 947.73 113.60
  Q 947.27 113.60 947.38 113.15
  Q 950.92 99.63 963.47 95.12
  C 971.10 92.37 981.51 92.68 988.82 96.13
  Q 999.28 101.07 1002.91 113.27
  A 0.26 0.25 81.4 0 1 1002.67 113.60
  Z"
/>
<path fill="#ffffff" d="
  M 26.67 209.19
  Q 51.04 153.11 24.38 98.49
  A 0.40 0.40 0.0 0 1 24.96 97.98
  Q 58.83 120.62 98.97 128.08
  A 1.84 1.83 2.1 0 1 100.46 129.68
  Q 110.84 220.76 50.10 287.46
  Q 49.68 287.91 49.25 287.48
  L 4.62 242.86
  Q 4.23 242.47 4.60 242.07
  Q 19.36 226.01 26.67 209.19
  Z"
/>
<path fill="#ffffff" d="
  M 221.92 287.65
  C 182.40 251.32 126.26 244.20 78.11 267.95
  A 0.38 0.38 0.0 0 1 77.63 267.40
  Q 100.48 233.24 107.94 192.73
  Q 108.05 192.12 108.67 192.08
  C 109.91 191.99 110.87 191.53 111.94 191.43
  Q 201.76 182.26 267.34 242.25
  Q 267.67 242.56 267.35 242.87
  L 222.60 287.63
  A 0.50 0.50 0.0 0 1 221.92 287.65
  Z"
/>
<path fill="#ffffff" d="
  M 720.59 237.46
  L 716.30 244.01
  A 0.30 0.30 0.0 0 1 715.97 244.14
  L 712.11 243.19
  A 0.30 0.30 0.0 0 1 711.92 242.76
  L 714.91 237.16
  A 0.30 0.30 0.0 0 1 715.17 237.00
  L 720.34 237.00
  A 0.30 0.30 0.0 0 1 720.59 237.46
  Z"
/>
<path fill="#ffffff" d="
  M 482.68 283.04
  A 0.18 0.18 0.0 0 0 482.38 282.89
  Q 473.72 290.27 463.48 285.52
  C 457.28 282.64 453.45 275.21 453.07 268.44
  C 452.25 253.65 466.47 243.32 480.24 249.68
  Q 484.30 251.55 486.52 255.99
  Q 486.78 256.51 486.30 256.86
  L 482.40 259.61
  Q 481.92 259.95 481.61 259.45
  C 476.09 250.58 465.12 252.07 460.96 260.99
  C 458.23 266.86 459.57 275.33 465.11 279.35
  C 470.64 283.36 477.68 281.72 482.03 276.72
  A 1.40 1.34 -24.8 0 0 482.37 275.85
  L 482.47 272.45
  Q 482.49 271.92 481.95 271.92
  L 474.96 271.88
  Q 474.30 271.88 474.30 271.21
  L 474.32 267.71
  Q 474.32 267.24 474.79 267.24
  L 487.47 267.24
  Q 487.94 267.24 487.94 267.72
  L 487.95 286.27
  Q 487.95 287.00 487.23 287.00
  L 483.09 287.00
  A 0.62 0.62 0.0 0 1 482.47 286.34
  L 482.68 283.04
  Z"
/>
<rect fill="#ffffff" x="380.32" y="248.11" width="6.40" height="38.88" rx="0.40"/>
<path fill="#ffffff" d="
  M 410.72 260.74
  L 410.68 286.41
  Q 410.68 286.99 410.09 286.99
  L 404.92 287.00
  Q 404.33 287.00 404.33 286.42
  L 404.32 248.66
  Q 404.32 248.14 404.84 248.13
  L 408.84 248.09
  Q 409.48 248.08 409.88 248.58
  L 430.91 275.12
  Q 431.27 275.56 431.27 275.00
  L 431.36 248.69
  A 0.57 0.57 0.0 0 1 431.93 248.12
  L 437.23 248.11
  Q 437.86 248.11 437.85 248.73
  L 437.75 286.25
  Q 437.75 287.00 437.00 287.00
  L 432.98 287.00
  Q 432.46 287.00 432.13 286.59
  L 411.21 260.57
  A 0.28 0.27 25.7 0 0 410.72 260.74
  Z"
/>
<path fill="#ffffff" d="
  M 511.04 281.50
  L 530.93 281.50
  A 0.34 0.34 0.0 0 1 531.27 281.84
  L 531.26 286.66
  A 0.34 0.34 0.0 0 1 530.92 287.00
  L 504.68 287.00
  A 0.34 0.34 0.0 0 1 504.34 286.66
  L 504.34 248.45
  A 0.34 0.34 0.0 0 1 504.68 248.11
  L 530.38 248.11
  A 0.34 0.34 0.0 0 1 530.72 248.45
  L 530.71 253.41
  A 0.34 0.34 0.0 0 1 530.37 253.75
  L 511.04 253.76
  A 0.34 0.34 0.0 0 0 510.70 254.10
  L 510.71 264.16
  A 0.34 0.34 0.0 0 0 511.05 264.50
  L 527.66 264.50
  A 0.34 0.34 0.0 0 1 528.00 264.84
  L 528.07 269.41
  A 0.34 0.34 0.0 0 1 527.73 269.75
  L 511.04 269.76
  A 0.34 0.34 0.0 0 0 510.70 270.10
  L 510.70 281.16
  A 0.34 0.34 0.0 0 0 511.04 281.50
  Z"
/>
<path fill="#ffffff" d="
  M 556.05 252.74
  Q 564.97 263.47 573.55 274.76
  A 0.42 0.42 0.0 0 0 574.30 274.51
  L 574.33 248.65
  Q 574.33 248.14 574.84 248.14
  L 580.14 248.10
  Q 580.70 248.09 580.70 248.64
  L 580.82 286.33
  Q 580.82 286.99 580.16 286.99
  L 576.07 287.00
  Q 575.46 287.01 575.08 286.53
  L 554.20 260.57
  A 0.28 0.27 25.7 0 0 553.71 260.74
  L 553.71 286.39
  Q 553.71 286.99 553.11 286.99
  L 547.91 287.00
  Q 547.32 287.00 547.32 286.41
  L 547.32 248.81
  Q 547.32 248.44 547.67 248.33
  C 552.76 246.78 553.50 249.67 556.05 252.74
  Z"
/>
<rect fill="#ffffff" x="598.32" y="248.12" width="6.38" height="38.88" rx="0.39"/>
<path fill="#ffffff" d="
  M 629.70 254.11
  L 629.70 264.15
  A 0.35 0.35 0.0 0 0 630.05 264.50
  L 646.84 264.51
  A 0.35 0.35 0.0 0 1 647.19 264.87
  L 647.11 269.33
  A 0.35 0.35 0.0 0 1 646.76 269.67
  L 630.05 269.78
  A 0.35 0.35 0.0 0 0 629.70 270.13
  L 629.72 281.15
  A 0.35 0.35 0.0 0 0 630.07 281.50
  L 649.89 281.52
  A 0.35 0.35 0.0 0 1 650.24 281.87
  L 650.25 286.64
  A 0.35 0.35 0.0 0 1 649.90 286.99
  L 623.69 287.00
  A 0.35 0.35 0.0 0 1 623.34 286.65
  L 623.32 248.45
  A 0.35 0.35 0.0 0 1 623.67 248.10
  L 649.40 248.15
  A 0.35 0.35 0.0 0 1 649.75 248.51
  L 649.67 253.39
  A 0.35 0.35 0.0 0 1 649.32 253.73
  L 630.05 253.76
  A 0.35 0.35 0.0 0 0 629.70 254.11
  Z"
/>
<path fill="#ffffff" d="
  M 687.30 272.65
  L 695.79 286.44
  Q 696.12 286.98 695.49 286.98
  L 689.51 287.01
  A 1.13 1.09 -15.3 0 1 688.56 286.49
  L 680.87 274.13
  Q 680.57 273.65 680.00 273.65
  L 672.29 273.66
  Q 671.70 273.66 671.70 274.24
  L 671.72 286.39
  Q 671.72 286.99 671.11 286.99
  L 665.95 287.00
  Q 665.39 287.01 665.39 286.45
  L 665.33 248.73
  Q 665.33 248.18 665.87 248.17
  Q 673.84 247.99 681.76 248.11
  C 689.14 248.21 694.09 253.11 694.60 260.33
  Q 695.16 268.14 687.37 272.40
  Q 687.20 272.49 687.30 272.65
  Z
  M 671.62 254.17
  L 671.70 267.73
  A 0.43 0.43 0.0 0 0 672.13 268.16
  L 681.65 268.11
  A 6.75 6.43 89.7 0 0 688.04 261.33
  L 688.04 260.41
  A 6.75 6.43 89.7 0 0 681.57 253.69
  L 672.05 253.74
  A 0.43 0.43 0.0 0 0 671.62 254.17
  Z"
/>
<rect fill="#ffffff" x="711.32" y="248.12" width="6.40" height="38.88" rx="0.40"/>
<path fill="#ffffff" d="
  M 747.15 248.08
  L 752.35 248.13
  A 0.30 0.30 0.0 0 1 752.62 248.32
  L 767.68 286.57
  A 0.30 0.30 0.0 0 1 767.40 286.98
  L 761.28 287.01
  A 0.30 0.30 0.0 0 1 760.99 286.82
  L 757.07 276.85
  A 0.30 0.30 0.0 0 0 756.80 276.66
  L 742.51 276.67
  A 0.30 0.30 0.0 0 0 742.23 276.86
  L 738.41 286.81
  A 0.30 0.30 0.0 0 1 738.13 287.00
  L 731.94 287.00
  A 0.30 0.30 0.0 0 1 731.66 286.59
  L 746.86 248.27
  A 0.30 0.30 0.0 0 1 747.15 248.08
  Z
  M 743.76 271.28
  A 0.31 0.31 0.0 0 0 744.04 271.70
  L 755.20 271.74
  A 0.31 0.31 0.0 0 0 755.49 271.32
  L 749.96 256.49
  A 0.31 0.31 0.0 0 0 749.38 256.49
  L 743.76 271.28
  Z"
/>
<path fill="#ffffff" d="
  M 810.02 264.51
  L 826.90 264.50
  A 0.33 0.33 0.0 0 1 827.23 264.82
  L 827.35 269.41
  A 0.33 0.33 0.0 0 1 827.02 269.75
  L 810.03 269.76
  A 0.33 0.33 0.0 0 0 809.70 270.09
  L 809.72 281.17
  A 0.33 0.33 0.0 0 0 810.05 281.50
  L 829.90 281.51
  A 0.33 0.33 0.0 0 1 830.23 281.84
  L 830.25 286.67
  A 0.33 0.33 0.0 0 1 829.92 287.00
  L 803.70 287.00
  A 0.33 0.33 0.0 0 1 803.37 286.67
  L 803.38 248.45
  A 0.33 0.33 0.0 0 1 803.71 248.12
  L 829.39 248.11
  A 0.33 0.33 0.0 0 1 829.72 248.44
  L 829.71 253.42
  A 0.33 0.33 0.0 0 1 829.38 253.75
  L 810.03 253.76
  A 0.33 0.33 0.0 0 0 809.70 254.09
  L 809.69 264.18
  A 0.33 0.33 0.0 0 0 810.02 264.51
  Z"
/>
<path fill="#ffffff" d="
  M 870.14 254.19
  L 868.91 256.89
  Q 868.65 257.44 868.17 257.07
  C 864.46 254.26 853.42 250.45 851.11 257.01
  C 847.47 267.30 872.34 261.95 873.09 275.24
  C 873.53 282.93 868.69 286.37 861.55 287.26
  Q 851.53 288.50 842.87 282.56
  Q 842.38 282.23 842.66 281.70
  L 844.99 277.28
  Q 845.27 276.76 845.74 277.12
  Q 852.83 282.63 861.47 281.51
  C 865.34 281.01 867.85 277.13 864.87 274.00
  C 862.58 271.59 857.30 270.71 854.15 269.77
  C 848.63 268.13 844.28 266.43 843.93 260.44
  Q 843.66 255.70 846.71 252.19
  C 852.59 245.45 864.54 247.46 871.00 251.95
  Q 871.54 252.32 871.11 252.82
  L 870.75 253.24
  Q 870.38 253.67 870.14 254.19
  Z"
/>
<path fill="#ffffff" d="
  M 914.15 268.79
  C 910.59 275.22 901.41 273.68 895.31 273.67
  Q 894.75 273.67 894.75 274.23
  L 894.71 286.39
  Q 894.71 287.00 894.11 287.00
  L 888.89 287.00
  Q 888.28 287.00 888.28 286.39
  L 888.27 248.79
  Q 888.27 248.14 888.91 248.14
  Q 896.67 248.05 904.47 248.14
  C 914.99 248.26 918.95 257.91 915.62 267.24
  Q 915.46 267.70 915.14 267.95
  Q 914.94 268.11 914.74 268.22
  Q 914.36 268.42 914.15 268.79
  Z
  M 894.73 254.21
  L 894.71 267.67
  A 0.48 0.48 0.0 0 0 895.19 268.15
  L 904.08 268.16
  A 6.56 6.37 -89.9 0 0 910.46 261.61
  L 910.46 260.31
  A 6.56 6.37 -89.9 0 0 904.10 253.74
  L 895.21 253.73
  A 0.48 0.48 0.0 0 0 894.73 254.21
  Z"
/>
<path fill="#ffffff" d="
  M 938.01 264.50
  L 954.71 264.51
  A 0.30 0.30 0.0 0 1 955.01 264.81
  L 955.09 269.45
  A 0.30 0.30 0.0 0 1 954.79 269.75
  L 938.02 269.76
  A 0.30 0.30 0.0 0 0 937.72 270.06
  L 937.72 281.20
  A 0.30 0.30 0.0 0 0 938.02 281.50
  L 957.90 281.51
  A 0.30 0.30 0.0 0 1 958.20 281.81
  L 958.25 286.70
  A 0.30 0.30 0.0 0 1 957.95 287.00
  L 931.64 287.00
  A 0.30 0.30 0.0 0 1 931.34 286.70
  L 931.31 248.41
  A 0.30 0.30 0.0 0 1 931.61 248.11
  L 957.42 248.11
  A 0.30 0.30 0.0 0 1 957.72 248.41
  L 957.71 253.45
  A 0.30 0.30 0.0 0 1 957.41 253.75
  L 938.00 253.76
  A 0.30 0.30 0.0 0 0 937.70 254.06
  L 937.71 264.20
  A 0.30 0.30 0.0 0 0 938.01 264.50
  Z"
/>
<path fill="#ffffff" d="
  M 1005.31 278.96
  C 1001.25 286.91 989.87 289.18 982.48 285.84
  C 967.77 279.19 966.78 255.96 982.33 249.37
  C 990.06 246.10 1000.29 248.00 1004.51 256.04
  Q 1004.76 256.51 1004.31 256.81
  L 1000.24 259.52
  Q 999.75 259.84 999.48 259.32
  Q 997.33 255.17 993.25 254.07
  C 974.69 249.06 971.81 280.77 989.48 281.63
  Q 996.07 281.96 1000.00 275.78
  Q 1000.26 275.37 1000.68 275.61
  L 1005.04 278.06
  Q 1005.61 278.38 1005.31 278.96
  Z"
/>
<rect fill="#ffffff" x="-3.25" y="-19.43" transform="translate(1023.52,267.55) rotate(0.1)" width="6.50" height="38.86" rx="0.52"/>
<path fill="#ffffff" d="
  M 1056.21 248.08
  L 1061.38 248.12
  A 0.32 0.32 0.0 0 1 1061.68 248.32
  L 1076.58 286.55
  A 0.32 0.32 0.0 0 1 1076.28 286.98
  L 1070.24 287.01
  A 0.32 0.32 0.0 0 1 1069.94 286.80
  L 1066.10 276.87
  A 0.32 0.32 0.0 0 0 1065.80 276.67
  L 1051.52 276.65
  A 0.32 0.32 0.0 0 0 1051.22 276.85
  L 1047.30 286.80
  A 0.32 0.32 0.0 0 1 1047.00 287.00
  L 1040.96 287.00
  A 0.32 0.32 0.0 0 1 1040.66 286.56
  L 1055.91 248.28
  A 0.32 0.32 0.0 0 1 1056.21 248.08
  Z
  M 1052.73 271.30
  A 0.31 0.31 0.0 0 0 1053.02 271.72
  L 1064.20 271.74
  A 0.31 0.31 0.0 0 0 1064.49 271.32
  L 1058.93 256.46
  A 0.31 0.31 0.0 0 0 1058.35 256.46
  L 1052.73 271.30
  Z"
/>
<path fill="#ffffff" d="
  M 1098.06 281.50
  L 1118.18 281.50
  A 0.35 0.35 0.0 0 1 1118.53 281.84
  L 1118.59 286.64
  A 0.35 0.35 0.0 0 1 1118.24 287.00
  L 1091.68 287.00
  A 0.35 0.35 0.0 0 1 1091.33 286.65
  L 1091.31 248.48
  A 0.35 0.35 0.0 0 1 1091.66 248.13
  L 1097.36 248.10
  A 0.35 0.35 0.0 0 1 1097.71 248.45
  L 1097.71 281.15
  A 0.35 0.35 0.0 0 0 1098.06 281.50
  Z"
/>
<rect fill="#ffffff" x="1132.31" y="248.11" width="6.42" height="38.88" rx="0.44"/>
<path fill="#ffffff" d="
  M 1176.47 253.76
  L 1154.74 253.75
  Q 1154.23 253.75 1154.23 253.24
  L 1154.18 248.72
  Q 1154.17 248.11 1154.78 248.11
  L 1184.19 248.11
  Q 1184.58 248.11 1184.63 248.50
  C 1184.98 251.07 1185.03 252.75 1183.32 254.89
  Q 1172.86 268.02 1162.24 281.00
  Q 1161.82 281.51 1162.48 281.51
  L 1184.22 281.50
  Q 1184.70 281.50 1184.70 281.98
  L 1184.71 286.39
  Q 1184.72 287.00 1184.11 287.00
  L 1154.26 287.00
  Q 1153.75 287.00 1153.69 286.50
  C 1153.45 284.15 1153.43 282.54 1155.06 280.61
  Q 1166.06 267.56 1176.68 254.22
  Q 1177.05 253.76 1176.47 253.76
  Z"
/>
<path fill="#ffffff" d="
  M 1212.12 248.10
  L 1217.35 248.13
  A 0.32 0.32 0.0 0 1 1217.65 248.33
  L 1232.62 286.55
  A 0.32 0.32 0.0 0 1 1232.32 286.98
  L 1226.24 287.01
  A 0.32 0.32 0.0 0 1 1225.94 286.80
  L 1222.11 276.86
  A 0.32 0.32 0.0 0 0 1221.81 276.66
  L 1207.57 276.65
  A 0.32 0.32 0.0 0 0 1207.27 276.85
  L 1203.31 286.80
  A 0.32 0.32 0.0 0 1 1203.01 287.00
  L 1196.98 287.00
  A 0.32 0.32 0.0 0 1 1196.68 286.56
  L 1211.82 248.30
  A 0.32 0.32 0.0 0 1 1212.12 248.10
  Z
  M 1208.79 271.26
  A 0.34 0.34 0.0 0 0 1209.11 271.72
  L 1220.15 271.74
  A 0.34 0.34 0.0 0 0 1220.47 271.28
  L 1214.98 256.57
  A 0.34 0.34 0.0 0 0 1214.34 256.56
  L 1208.79 271.26
  Z"
/>
<path fill="#ffffff" d="
  M 1247.33 248.50
  A 0.39 0.39 0.0 0 1 1247.72 248.11
  L 1262.35 248.11
  A 18.04 17.85 0.0 0 1 1280.39 265.96
  L 1280.39 269.20
  A 18.04 17.85 0.0 0 1 1262.35 287.05
  L 1247.72 287.05
  A 0.39 0.39 0.0 0 1 1247.33 286.66
  L 1247.33 248.50
  Z
  M 1253.85 253.95
  L 1253.89 281.29
  A 0.23 0.23 0.0 0 0 1254.12 281.52
  L 1261.65 281.50
  A 12.63 12.24 89.9 0 0 1273.87 268.85
  L 1273.87 266.31
  A 12.63 12.24 89.9 0 0 1261.61 253.70
  L 1254.08 253.72
  A 0.23 0.23 0.0 0 0 1253.85 253.95
  Z"
/>
<path fill="#ffffff" d="
  M 1306.24 248.08
  L 1311.36 248.12
  A 0.34 0.34 0.0 0 1 1311.67 248.33
  L 1326.56 286.50
  A 0.34 0.34 0.0 0 1 1326.25 286.96
  L 1320.27 287.02
  A 0.34 0.34 0.0 0 1 1319.95 286.80
  L 1316.10 276.88
  A 0.34 0.34 0.0 0 0 1315.79 276.66
  L 1301.62 276.65
  A 0.34 0.34 0.0 0 0 1301.30 276.86
  L 1297.32 286.79
  A 0.34 0.34 0.0 0 1 1297.00 287.00
  L 1290.95 287.00
  A 0.34 0.34 0.0 0 1 1290.64 286.53
  L 1305.92 248.30
  A 0.34 0.34 0.0 0 1 1306.24 248.08
  Z
  M 1302.82 271.26
  A 0.34 0.34 0.0 0 0 1303.14 271.72
  L 1314.14 271.74
  A 0.34 0.34 0.0 0 0 1314.46 271.28
  L 1308.99 256.54
  A 0.34 0.34 0.0 0 0 1308.35 256.54
  L 1302.82 271.26
  Z"
/>
<path fill="#09457d" d="
  M 671.62 254.17
  A 0.43 0.43 0.0 0 1 672.05 253.74
  L 681.57 253.69
  A 6.75 6.43 89.7 0 1 688.04 260.41
  L 688.04 261.33
  A 6.75 6.43 89.7 0 1 681.65 268.11
  L 672.13 268.16
  A 0.43 0.43 0.0 0 1 671.70 267.73
  L 671.62 254.17
  Z"
/>
<path fill="#09457d" d="
  M 894.73 254.21
  A 0.48 0.48 0.0 0 1 895.21 253.73
  L 904.10 253.74
  A 6.56 6.37 -89.9 0 1 910.46 260.31
  L 910.46 261.61
  A 6.56 6.37 -89.9 0 1 904.08 268.16
  L 895.19 268.15
  A 0.48 0.48 0.0 0 1 894.71 267.67
  L 894.73 254.21
  Z"
/>
<path fill="#09457d" d="
  M 1253.85 253.95
  A 0.23 0.23 0.0 0 1 1254.08 253.72
  L 1261.61 253.70
  A 12.63 12.24 89.9 0 1 1273.87 266.31
  L 1273.87 268.85
  A 12.63 12.24 89.9 0 1 1261.65 281.50
  L 1254.12 281.52
  A 0.23 0.23 0.0 0 1 1253.89 281.29
  L 1253.85 253.95
  Z"
/>
<path fill="#09457d" d="
  M 743.76 271.28
  L 749.38 256.49
  A 0.31 0.31 0.0 0 1 749.96 256.49
  L 755.49 271.32
  A 0.31 0.31 0.0 0 1 755.20 271.74
  L 744.04 271.70
  A 0.31 0.31 0.0 0 1 743.76 271.28
  Z"
/>
<path fill="#09457d" d="
  M 1052.73 271.30
  L 1058.35 256.46
  A 0.31 0.31 0.0 0 1 1058.93 256.46
  L 1064.49 271.32
  A 0.31 0.31 0.0 0 1 1064.20 271.74
  L 1053.02 271.72
  A 0.31 0.31 0.0 0 1 1052.73 271.30
  Z"
/>
<path fill="#09457d" d="
  M 1208.79 271.26
  L 1214.34 256.56
  A 0.34 0.34 0.0 0 1 1214.98 256.57
  L 1220.47 271.28
  A 0.34 0.34 0.0 0 1 1220.15 271.74
  L 1209.11 271.72
  A 0.34 0.34 0.0 0 1 1208.79 271.26
  Z"
/>
<path fill="#09457d" d="
  M 1302.82 271.26
  L 1308.35 256.54
  A 0.34 0.34 0.0 0 1 1308.99 256.54
  L 1314.46 271.28
  A 0.34 0.34 0.0 0 1 1314.14 271.74
  L 1303.14 271.72
  A 0.34 0.34 0.0 0 1 1302.82 271.26
  Z"
/>
</svg>
